<svg xmlns="http://www.w3.org/2000/svg" width="45" height="43" viewBox="0 0 45 43">
  <defs>
    <style>
      .a {
        fill: #d7e0ea;
      }

      .b {
        fill: #153a65;
      }
    </style>
  </defs>
  <title>OPS-symbol</title>
  <rect class="a" width="45" height="43"/>
  <g>
    <path class="b" d="M16.48,22.45a4.32,4.32,0,0,1-.32,1.67,3.82,3.82,0,0,1-.86,1.32,4,4,0,0,1-1.32.87,4.44,4.44,0,0,1-1.65.3H9.88a4.44,4.44,0,0,1-1.65-.3A3.93,3.93,0,0,1,6,24.12a4.32,4.32,0,0,1-.32-1.67v-1.9A4.36,4.36,0,0,1,6,18.88,3.87,3.87,0,0,1,8.23,16.7a4.25,4.25,0,0,1,1.65-.31h2.45A4.25,4.25,0,0,1,14,16.7a4,4,0,0,1,1.32.86,3.82,3.82,0,0,1,.86,1.32,4.36,4.36,0,0,1,.32,1.67Zm-1.81-1.9a2.5,2.5,0,0,0-.17-1,2.12,2.12,0,0,0-1.22-1.22,2.67,2.67,0,0,0-.95-.17H9.88a2.69,2.69,0,0,0-1,.17,2.06,2.06,0,0,0-.74.48,2.13,2.13,0,0,0-.49.74,2.7,2.7,0,0,0-.17,1v1.9a2.7,2.7,0,0,0,.17,1,2.13,2.13,0,0,0,.49.74,2.06,2.06,0,0,0,.74.48,2.69,2.69,0,0,0,1,.17h2.43a2.69,2.69,0,0,0,1-.17,2.1,2.1,0,0,0,.75-.48,2,2,0,0,0,.48-.74,2.5,2.5,0,0,0,.17-1Z"/>
    <path class="b" d="M28.18,20.69a3.4,3.4,0,0,1-.16,1.1,3.11,3.11,0,0,1-.41.86,2.58,2.58,0,0,1-.6.63,3.28,3.28,0,0,1-.71.43,3.67,3.67,0,0,1-.75.25,3.63,3.63,0,0,1-.71.07H20.76v-1.8h4.08a2.42,2.42,0,0,0,.63-.14,1.72,1.72,0,0,0,.48-.31,1.38,1.38,0,0,0,.31-.47,1.52,1.52,0,0,0,.11-.62v-.82a2.42,2.42,0,0,0-.14-.63,1.59,1.59,0,0,0-.31-.48,1.27,1.27,0,0,0-.46-.32,1.71,1.71,0,0,0-.62-.11H20.77a.65.65,0,0,0-.73.73v7.42H18.23V19.06a2.48,2.48,0,0,1,.26-1.18,2.17,2.17,0,0,1,.63-.79,2.39,2.39,0,0,1,.82-.43,2.88,2.88,0,0,1,.82-.14h4.08a3.74,3.74,0,0,1,1.1.16,2.93,2.93,0,0,1,.85.42,2.58,2.58,0,0,1,.63.6,3.06,3.06,0,0,1,.43.71,3.15,3.15,0,0,1,.25.75,3.68,3.68,0,0,1,.08.71Z"/>
    <path class="b" d="M39.28,23.55a3.22,3.22,0,0,1-.14,1,2.88,2.88,0,0,1-.35.75,2.53,2.53,0,0,1-.52.56,3.62,3.62,0,0,1-.62.37,3.11,3.11,0,0,1-.65.22,3.57,3.57,0,0,1-.62.07h-7V24.67h7a1.06,1.06,0,0,0,.81-.3,1.17,1.17,0,0,0,.29-.82,1.34,1.34,0,0,0-.08-.46,1,1,0,0,0-.22-.36,1,1,0,0,0-.35-.24,1.25,1.25,0,0,0-.45-.08H32.23a3,3,0,0,1-.94-.16,2.67,2.67,0,0,1-.94-.5,2.79,2.79,0,0,1-.73-.91,3,3,0,0,1-.28-1.37,3,3,0,0,1,.28-1.37,2.79,2.79,0,0,1,.73-.91,2.54,2.54,0,0,1,.94-.51,3.31,3.31,0,0,1,.94-.16h6.14v1.81H32.23a1,1,0,0,0-.8.31,1.18,1.18,0,0,0-.29.83,1.16,1.16,0,0,0,.29.82,1.06,1.06,0,0,0,.8.3h4.16a3.51,3.51,0,0,1,.62.08,2.81,2.81,0,0,1,.65.23,3.26,3.26,0,0,1,.61.38,2.53,2.53,0,0,1,.52.56,2.89,2.89,0,0,1,.36.75A3.14,3.14,0,0,1,39.28,23.55Z"/>
  </g>
</svg>
