<svg xmlns="http://www.w3.org/2000/svg" width="45" height="45" viewBox="0 0 45 45">
  <defs>
    <style>
      .a {
        fill: #d31621;
      }

      .b {
        fill: #fff;
      }
    </style>
  </defs>
  <title>PK-logo</title>
  <g>
    <rect class="a" width="45" height="45"/>
    <g>
      <path class="b" d="M17,23.56c-1.38-.06-2.77-.06-4.15,0a1.2,1.2,0,0,0-1.25,1.28,1.26,1.26,0,0,0,1.26,1.29c.66.05,1.33,0,2,0h0c.73,0,1.46.05,2.18,0a1.28,1.28,0,0,0,0-2.54Z"/>
      <path class="b" d="M28.5,21.28c-1.05,0-1.66.51-1.64,1.35s.57,1.26,1.63,1.27,1.65-.48,1.68-1.24S29.52,21.28,28.5,21.28Z"/>
      <path class="b" d="M13.12,15.7c.56,0,1.14,0,1.7,0s1.26,0,1.89,0,1.34-.37,1.41-1.23a1.25,1.25,0,0,0-1.31-1.42A36.66,36.66,0,0,0,13,13a1.34,1.34,0,0,0-1.38,1.39A1.36,1.36,0,0,0,13.12,15.7Z"/>
      <path class="b" d="M9.86,24.4A1.36,1.36,0,0,0,8.5,25.76v4.89a1.37,1.37,0,0,0,2.73,0V25.76A1.36,1.36,0,0,0,9.86,24.4Z"/>
      <path class="b" d="M25.15,23.43a1.36,1.36,0,0,0-1.36,1.36v5.86a1.36,1.36,0,1,0,2.72,0V24.79A1.36,1.36,0,0,0,25.15,23.43Z"/>
      <path class="b" d="M32.84,25a1.35,1.35,0,0,0-1.9-.32,1.37,1.37,0,0,0-.32,1.9L34,31.43a1.36,1.36,0,0,0,2.22-1.58Z"/>
      <path class="b" d="M9.86,14.67A1.36,1.36,0,0,0,8.5,16v6.36a1.37,1.37,0,0,0,2.73,0V16A1.36,1.36,0,0,0,9.86,14.67Z"/>
      <path class="b" d="M20,14.67A1.36,1.36,0,0,0,18.63,16v6.36a1.37,1.37,0,0,0,2.73,0V16A1.36,1.36,0,0,0,20,14.67Z"/>
      <path class="b" d="M25.15,13a1.36,1.36,0,0,0-1.36,1.36v6.36a1.36,1.36,0,0,0,2.72,0V14.35A1.36,1.36,0,0,0,25.15,13Z"/>
      <path class="b" d="M30.76,20.71h0a1.37,1.37,0,0,0,1.9-.35l3.6-5.24A1.36,1.36,0,0,0,34,13.58l-3.6,5.23A1.37,1.37,0,0,0,30.76,20.71Z"/>
    </g>
  </g>
</svg>
