<svg id="Capa_1" width="60px" height="30px" enable-background="new 0 0 512 512" viewBox="0 0 512 512" xmlns="http://www.w3.org/2000/svg" xmlns:xlink="http://www.w3.org/1999/xlink"><linearGradient id="SVGID_1_" gradientUnits="userSpaceOnUse" x1="256" x2="256" y1="512" y2="0"><stop offset="0" stop-color="#addcff"/><stop offset=".5028" stop-color="#eaf6ff"/><stop offset="1" stop-color="#eaf6ff"/></linearGradient><linearGradient id="SVGID_2_" gradientUnits="userSpaceOnUse" x1="256" x2="256" y1="398" y2="114"><stop offset="0" stop-color="#00c0ff"/><stop offset="1" stop-color="#5558ff"/></linearGradient><g><g><circle cx="256" cy="256" fill="url(#SVGID_1_)" r="256"/></g><g><g><path d="m406.871 313.722c-.798-7.974-5.066-15.098-11.745-19.535l-45.226-30.118c-10.513-7.011-24.651-5.633-33.62 3.328l-11.883 11.883c-6.991-1.005-23.593-5.157-40.629-22.179-17.018-17.013-21.182-33.593-22.188-40.57l11.901-11.891c8.934-8.936 10.339-23.063 3.331-33.602l-30.151-45.19c-4.458-6.665-11.588-10.929-19.568-11.718-7.789-.78-15.787 2.002-21.442 7.67l-18.857 18.833c-8.969 8.97-13.705 21.226-12.976 33.619 1.423 24.137 11.866 72.708 65.992 126.781 47.316 47.286 97.201 66.017 129.381 66.017 1.52 0 3.007-.295 4.51-.455v4.78c0 4.897-3.99 8.875-8.882 8.875h-83.34l-15.301-30.595c-3.018-6.015-12.872-6.015-15.891 0l-9.819 19.622-9.819-19.622c-3.019-6.015-12.872-6.015-15.891 0l-9.819 19.622-9.819-19.622c-3.019-6.015-12.872-6.015-15.891 0l-9.819 19.622-9.819-19.622c-3.019-6.015-12.872-6.015-15.891 0l-17.764 35.5c-2.186 4.385-.416 9.716 3.973 11.908 4.497 2.216 9.757.338 11.918-3.969l9.819-19.622 9.819 19.622c3.019 6.015 12.872 6.015 15.891 0l9.819-19.622 9.819 19.622c3.019 6.015 12.872 6.015 15.891 0l9.819-19.622 9.819 19.622c3.019 6.015 12.872 6.015 15.891 0l9.819-19.622 9.819 19.622c1.509 3.008 4.58 4.906 7.945 4.906h88.821c14.694 0 26.646-11.943 26.646-26.625v-10.676c3.172-1.887 6.209-4.031 8.882-6.702l18.84-18.833c5.673-5.66 8.466-13.477 7.685-21.442z" fill="url(#SVGID_2_)"/></g></g></g></svg>