<svg xmlns="http://www.w3.org/2000/svg" width="175.7" height="200" viewBox="0 0 175.7 200">
  <defs>
    <style>
      .a {
        fill: #fff;
      }
    </style>
  </defs>
  <title>apply-bond</title>
  <g>
    <path class="a" d="M60.94,190.57l-52-59L110,24.79l45.11,51.15ZM90,60.76c.88,1.82,1.35,3.65,2.45,4.93q13.26,15.3,26.74,30.4c2.78,3.13,6.26,3.09,9.08,0q5.16-5.7,10.17-11.53a7.4,7.4,0,0,0,0-10.25q-13.24-15.16-26.61-30.2c-2.92-3.29-6.28-3.25-9.24,0-3.44,3.8-6.89,7.6-10.12,11.57C91.34,57.09,90.84,59,90,60.76ZM118.26,105c-.36-.47-.72-1.21-.91-1.17a3.55,3.55,0,0,0-1.88.92q-18.06,21.44-36,43c-.48.57-.25,1.73-.36,2.61.77-.34,1.77-.47,2.26-1.05q17.91-21.21,35.71-42.53A21.1,21.1,0,0,0,118.26,105ZM61.37,185.71l1-.11c.13-1.93.41-3.86.37-5.78-.4-20.44-18.92-44.25-38.67-49.51-3-.8-6.24-.69-9.38-.89a4.76,4.76,0,0,0-1.78.64v.65c15.07-.81,25.82,7.06,35,17.59S62.74,171.08,61.37,185.71ZM66.7,166.5c.66-.26,1-.28,1.11-.45,2.47-3.15,4.94-6.29,7.32-9.5.18-.25-.2-1.13-.55-1.48a1.35,1.35,0,0,0-1.31.22c-2.4,3-4.78,6-7,9.09C66,164.75,66.51,165.72,66.7,166.5Z"/>
    <path class="a" d="M156.59,73,112.37,22.9h14.85c3.59,0,7.18,0,10.76.18a4.85,4.85,0,0,1,3,1.37c4.89,5.37,9.67,10.84,14.42,16.32a4.32,4.32,0,0,1,1.11,2.45C156.61,52.94,156.59,62.67,156.59,73Zm-7.71-15.66L150,58.71c.45-.41,1.2-.75,1.32-1.24.92-3.9,1.77-7.82,2.49-11.75.1-.52-.6-1.19-.93-1.79-.46.41-1.22.76-1.34,1.25-.94,3.9-1.74,7.82-2.66,12.2Z"/>
    <path class="a" d="M51.58,183.35l3.29,3.71a45.54,45.54,0,0,0-3.47,4.12c-.42.6-.22,1.62-.31,2.44a6.15,6.15,0,0,0,2.1-.79c1.17-1.09,2.16-2.37,3.39-3.76l2.58,2.85L52,200c-17.39-19.73-34.66-39.3-52-59l7.07-8,2.48,2.74A46.74,46.74,0,0,0,6,139.89c-.39.55-.22,1.49-.3,2.25.71-.18,1.61-.14,2.09-.58a50.21,50.21,0,0,0,3.47-3.82l3.35,3.65c-1.31,1.51-2.58,2.79-3.6,4.24-.38.54-.18,1.49-.24,2.25.71-.2,1.61-.19,2.09-.64a50.21,50.21,0,0,0,3.47-3.82l3.32,3.67a34.4,34.4,0,0,0-3.11,3.7,9.19,9.19,0,0,0-.7,2.82,9,9,0,0,0,2.43-1.09,37.21,37.21,0,0,0,3.1-3.42c1.14,1.27,2.14,2.39,3.28,3.68a46.87,46.87,0,0,0-3.45,4.13c-.41.61-.22,1.62-.3,2.45a6,6,0,0,0,2.09-.78c1.2-1.19,2.34-2.45,3.42-3.76l3.27,3.68a51.36,51.36,0,0,0-3.49,4.17c-.4.6-.18,1.61-.24,2.43a6.47,6.47,0,0,0,2.1-.84c1.17-1.09,2.17-2.36,3.4-3.74l3.29,3.74a30.57,30.57,0,0,0-2.86,3.36,13.19,13.19,0,0,0-1.05,3,11.91,11.91,0,0,0,2.79-1.27,25.11,25.11,0,0,0,2.83-3.09L39.79,170a54.92,54.92,0,0,0-3.59,4.18c-.39.54-.22,1.48-.3,2.24.71-.18,1.63-.15,2.11-.59A48.52,48.52,0,0,0,41.48,172l3.31,3.64a46.13,46.13,0,0,0-3.42,4.1,5.92,5.92,0,0,0-.4,2.43,6.66,6.66,0,0,0,2.27-.86,39.66,39.66,0,0,0,3.26-3.6l3.34,3.71a29,29,0,0,0-3,3.45,11.7,11.7,0,0,0-.86,3,11.06,11.06,0,0,0,2.61-1.27A31.72,31.72,0,0,0,51.58,183.35Z"/>
    <path class="a" d="M170,1.66,145.83,25.17l-2.58-2.86L169.13.72Z"/>
    <path class="a" d="M171.84,3.56,149.26,29.11l-2.52-2.83L170.91,2.69Z"/>
    <path class="a" d="M173.61,5.56l-20.86,27.5-2.52-2.85L172.62,4.76Z"/>
    <path class="a" d="M156.08,36.85l-2.39-2.7L174.62,6.44C174.85,8.64,161.11,30.73,156.08,36.85Z"/>
    <path class="a" d="M159.5,40.37c-2.16-1.26-2.34-2.52-1-4.56,5.37-8,10.53-16.12,15.78-24.19.4-.62.86-1.2,1.42-2C175.9,11.92,164.3,33.67,159.5,40.37Z"/>
    <path class="a" d="M142.35,21.28l-2-2.35L166.55,0l.5.66Z"/>
    <path class="a" d="M104.92,56.31l3.76,4.16a66.72,66.72,0,0,1-5.23,5.66c-1.87,1.66-4.9.56-6-1.89a7.77,7.77,0,0,1-.61-4.41,13.29,13.29,0,0,1,6.86-9.14c3.43-1.94,7.15-.22,7.69,3.36.33,2.22-.34,3.5-2.81,3.22-1.47-4.22-3.46-4.62-6.37-1.17a8.7,8.7,0,0,0-1.93,3.8,3.43,3.43,0,0,0,1.39,2.63c.43.32,1.61-.35,2.78-.67l-1.91-2.69Z"/>
    <path class="a" d="M117.34,86.47c4-4.46,7.72-8.72,11.62-13.11l5.74,6.51L132,83.06l-3.66-4-1.79,1.55,3.49,4-2.51,3L124.18,84c-2.12,1.37-2.12,1.37-.47,3.28,2.62,3,2.62,3-.52,5.6C121.34,90.89,119.46,88.82,117.34,86.47Z"/>
    <path class="a" d="M120.55,63.83l2.09,2.35c-1.36,1.57-2.67,3.1-4,4.61-.9,1-1.9,2-2.7,3.07-.92,1.26-2.47,2.77-.74,4.21s2.8-.39,3.81-1.44c1.71-1.78,3.28-3.7,4.92-5.55.44-.5.91-1,1.5-1.6l2.17,2.45c-3,3.16-5.8,6.33-8.83,9.28-1.62,1.58-3.77,2.27-5.8.68s-2.81-3.75-1.64-6.14a29.36,29.36,0,0,1,3.38-5.34C116.45,68.21,118.42,66.21,120.55,63.83Z"/>
    <path class="a" d="M108.6,76.39,102.88,70l11.43-13.06,2.18,2.3-8.72,10,3.46,4Z"/>
  </g>
</svg>
