<svg xmlns="http://www.w3.org/2000/svg" width="229.27" height="200" viewBox="0 0 229.27 200">
  <defs>
    <style>
      .a {
        fill: #fff;
      }
    </style>
  </defs>
  <title>welding-heavyDutyPress</title>
  <g>
    <path class="a" d="M124.51,60.35l.49.26c-.44.33-.91.25-1.58.07Z" transform="translate(0)"/>
    <path class="a" d="M123.57,90.47H89.27A2.48,2.48,0,0,1,86.78,88h0V2.48A2.48,2.48,0,0,0,84.3,0H46a2.48,2.48,0,0,0-2.48,2.48V88A2.48,2.48,0,0,1,41,90.47H6.74a2.49,2.49,0,0,0-1.68,4.32l31.6,28.91h0c1,.93,2,1.87,3.06,2.8v.08L44,130.66l19.55,17.85a2.29,2.29,0,0,0,1,.55h0a2.73,2.73,0,0,0,.4.05h.45a2.73,2.73,0,0,0,.4-.05h0a2.29,2.29,0,0,0,1-.55l19.55-17.85,4.26-4.08v-.08c1-.93,2-1.87,3.06-2.8h0l31.6-28.91a2.49,2.49,0,0,0-1.68-4.32Z" transform="translate(0)"/>
    <path class="a" d="M223.78,14.49a5.8,5.8,0,0,1-1.39,3.84q-10,16.13-19.94,32.23c-2,3.24-1.89,3.48,2,3.74,6.72.46,13.44.87,20.16,1.31.75,0,1.67.09,2.41.11,1.07,0,1.95-.11,2.23,1,.21.88-.87,1.33-1.48,1.88l-19.06,17Q192.89,89.7,177,103.77c-1,.9-1.87,2.1-3.53,2.42-.28-1.42.64-2.33,1.2-3.32Q184,86.69,193.25,70.48c1.89-3.3,1.82-3.49-2.08-3.85-4.93-.47-9.87-.83-14.81-1.26-1-.09-2.35.22-2.74-.92s.83-1.78,1.54-2.47q19.38-19,38.77-37.85C217.06,21.08,220.18,18,223.78,14.49Z" transform="translate(0)"/>
    <g>
      <path class="a" d="M112,172.54a3.57,3.57,0,0,0-1.3-.83,4.28,4.28,0,0,0-1.66-.3h-6.9v11H109a4.28,4.28,0,0,0,1.66-.3,3.57,3.57,0,0,0,1.3-.83,3.45,3.45,0,0,0,.83-1.29,4.33,4.33,0,0,0,.3-1.67V175.5a4.33,4.33,0,0,0-.3-1.67A3.45,3.45,0,0,0,112,172.54Z" transform="translate(0)"/>
      <path class="a" d="M221.43,115.55H113.82l-.5.45-1.81,1.66h0l-1.39,1.28h.08l-5,4.89h0Q89,138.56,72.8,153.4l-4.25,3.86a5,5,0,0,1-6.73,0c-6.66-6.07-13.25-12.1-19.93-18.2l-4.68-4.47v-.09l-.09-.08L.77,192.34A5,5,0,0,0,5,200H174.67a5,5,0,0,0,4.23-2.34l46.77-74.45a5,5,0,0,0-4.24-7.66ZM56.74,184.45a1.68,1.68,0,0,1-.44.83,1.55,1.55,0,0,1-.82.45,1.65,1.65,0,0,1-.93-.11,1.55,1.55,0,0,1-.69-.6l-5.73-9.41L42.39,185a1.43,1.43,0,0,1-.55.54,1.6,1.6,0,0,1-.77.19,1.55,1.55,0,0,1-1.53-1.3l-2.91-16.17h3.18l2.07,11.4,4.93-7.87a1.33,1.33,0,0,1,.56-.54,1.54,1.54,0,0,1,1.52,0,1.44,1.44,0,0,1,.58.54l4.91,7.87,2.07-11.4h3.17Zm21.15-13H65.35v9.73a1.14,1.14,0,0,0,1,1.27,1.41,1.41,0,0,0,.29,0H77.89v3.13H66.6a5.27,5.27,0,0,1-1.42-.23,4.26,4.26,0,0,1-2.52-2.11,4.45,4.45,0,0,1-.44-2.06V169.86a1.58,1.58,0,0,1,.12-.61,1.54,1.54,0,0,1,.33-.51,1.58,1.58,0,0,1,.5-.34,1.68,1.68,0,0,1,.63-.12H77.89Zm-1.41,3.92v3.16H66.6v-3.16Zm20.27,10.21H82.48a1.67,1.67,0,0,1-.62-.12,1.43,1.43,0,0,1-.5-.34,1.41,1.41,0,0,1-.33-.5,1.67,1.67,0,0,1-.12-.62V168.28H84v14.13H96.75Zm19.52-7.22a7.59,7.59,0,0,1-.55,2.9,7,7,0,0,1-1.51,2.28,7.07,7.07,0,0,1-2.29,1.49,7.44,7.44,0,0,1-2.87.55H100.6a1.67,1.67,0,0,1-.62-.12,1.43,1.43,0,0,1-.5-.34,1.41,1.41,0,0,1-.33-.5A1.66,1.66,0,0,1,99,184V169.9a1.58,1.58,0,0,1,.12-.61,1.54,1.54,0,0,1,.33-.51,1.43,1.43,0,0,1,.5-.34,1.67,1.67,0,0,1,.62-.12H109a7.43,7.43,0,0,1,2.87.54,6.74,6.74,0,0,1,2.29,1.5,7,7,0,0,1,1.51,2.29,7.54,7.54,0,0,1,.55,2.89Zm6.22,7.22h-3.13v-17.3h3.13Zm20.89-1.34a1.68,1.68,0,0,1-.12.63,1.66,1.66,0,0,1-.34.49,1.53,1.53,0,0,1-1.11.46,1.71,1.71,0,0,1-.59-.11,1.23,1.23,0,0,1-.52-.35l-11.43-11.94v12.16h-3.13v-16a1.49,1.49,0,0,1,.27-.87,1.74,1.74,0,0,1,.7-.59,1.57,1.57,0,0,1,.91-.09,1.51,1.51,0,0,1,.81.44l11.43,11.92V168.28h3.12ZM164,184a1.67,1.67,0,0,1-.12.62,1.41,1.41,0,0,1-.33.5,1.58,1.58,0,0,1-.5.34,1.67,1.67,0,0,1-.62.12H151.18a4.22,4.22,0,0,1-.93-.11,3.89,3.89,0,0,1-1-.32,4.89,4.89,0,0,1-.93-.56,3.46,3.46,0,0,1-.79-.83,4.08,4.08,0,0,1-.55-1.13,5.08,5.08,0,0,1-.2-1.45v-8.47a4.2,4.2,0,0,1,.1-.93,5.06,5.06,0,0,1,.32-1,4.29,4.29,0,0,1,.57-.94,4.14,4.14,0,0,1,.83-.79,4.05,4.05,0,0,1,1.13-.54,4.41,4.41,0,0,1,1.44-.21H163.9v3.13H151.18a1.15,1.15,0,0,0-1.26,1.33v8.44a1.15,1.15,0,0,0,1,1.27h10v-3.92h-8.32v-3.16h9.88a1.47,1.47,0,0,1,.62.13,1.58,1.58,0,0,1,.5.34,1.67,1.67,0,0,1,.33.5,1.58,1.58,0,0,1,.12.61Z" transform="translate(0)"/>
    </g>
  </g>
</svg>
