<svg xmlns="http://www.w3.org/2000/svg" width="246.22" height="200" viewBox="0 0 246.22 200">
  <defs>
    <style>
      .a {
        fill: #fff;
      }
    </style>
  </defs>
  <title>1</title>
  <g>
    <path class="a" d="M219.16,12.75H212V4h4.78V0H203.19V4H208v8.77H29.19a8.47,8.47,0,0,0-8.47,8.48V82.36a8.48,8.48,0,0,0,8.47,8.48H47v25.49H49.4v10.36H6.4a6.41,6.41,0,0,0-6.4,6.4v57.8A9.11,9.11,0,0,0,9.11,200h210a8.8,8.8,0,0,0,8.79-8.79V21.48A8.73,8.73,0,0,0,219.16,12.75ZM205.59,32a5.19,5.19,0,0,1,6.23,6.24A5.18,5.18,0,1,1,205.59,32Zm0,21.52a5.19,5.19,0,0,1,6.23,6.23A5.12,5.12,0,0,1,208,63.61a5.19,5.19,0,0,1-6.23-6.23A5.12,5.12,0,0,1,205.59,53.52ZM191.24,32a5.2,5.2,0,0,1,6.24,6.24,5.14,5.14,0,0,1-3.86,3.86A5.19,5.19,0,0,1,191.24,32Zm0,21.52a5.19,5.19,0,0,1,6.23,6.23,5.12,5.12,0,0,1-3.86,3.86,5.19,5.19,0,0,1-6.24-6.23A5.14,5.14,0,0,1,191.25,53.52ZM176.9,32a5.2,5.2,0,0,1,6.24,6.24A5.19,5.19,0,1,1,176.9,32Zm-28.69,84.82a9.87,9.87,0,0,1-9.88,9.87H51V116.33h2.39v-8h8V106h-8V90.84H79.17a8.48,8.48,0,0,0,8.48-8.48V63h40.82a19.74,19.74,0,0,1,19.74,19.74ZM173,59.75a5.19,5.19,0,1,1,3.86,3.86A5.12,5.12,0,0,1,173,59.75Zm40.51,32.37a1.12,1.12,0,0,1-1.12,1.11H178a1.11,1.11,0,0,1-1.11-1.11V76.81A1.11,1.11,0,0,1,178,75.7h34.43a1.11,1.11,0,0,1,1.12,1.11Z" transform="translate(0 0)"/>
    <path class="a" d="M239.64,35.06h-7.77V75.7h7.77a6.58,6.58,0,0,0,6.58-6.57V41.63A6.58,6.58,0,0,0,239.64,35.06Z" transform="translate(0 0)"/>
  </g>
</svg>
