<svg xmlns="http://www.w3.org/2000/svg" width="226.43" height="200" viewBox="0 0 226.43 200">
  <defs>
    <style>
      .a {
        fill: #fff;
      }
    </style>
  </defs>
  <title>coldPressForming-cutting</title>
  <g>
    <g>
      <path class="a" d="M176.73,152.88a4.19,4.19,0,0,0-1.45-.93,4.9,4.9,0,0,0-1.86-.33H165.7v12.31h7.72a4.9,4.9,0,0,0,1.86-.33,4.11,4.11,0,0,0,2.39-2.37,5,5,0,0,0,.33-1.88V156.2a5,5,0,0,0-.33-1.88A4.18,4.18,0,0,0,176.73,152.88Z" transform="translate(0)"/>
      <path class="a" d="M133.69,152.61a4.15,4.15,0,0,0-1.44-.93,4.9,4.9,0,0,0-1.86-.33h-4.74a4.9,4.9,0,0,0-1.86.33,4.11,4.11,0,0,0-2.39,2.37,5,5,0,0,0-.33,1.88v3.69a5,5,0,0,0,.33,1.88,4.11,4.11,0,0,0,2.39,2.37,4.9,4.9,0,0,0,1.86.33h4.72a4.9,4.9,0,0,0,1.86-.33,4.11,4.11,0,0,0,2.39-2.37,5,5,0,0,0,.33-1.88v-3.69a5,5,0,0,0-.33-1.88A4.15,4.15,0,0,0,133.69,152.61Z" transform="translate(0)"/>
      <path class="a" d="M221.43,115.55H113.82l-.5.45-1.81,1.66h0l-1.39,1.28h.08l-5,4.89h0Q89,138.56,72.8,153.4l-4.25,3.86a5,5,0,0,1-6.73,0c-6.66-6.07-13.25-12.1-19.93-18.2l-4.68-4.47v-.09l-.09-.08L.77,192.34A5,5,0,0,0,5,200H174.67a5,5,0,0,0,4.24-2.34l46.76-74.45a5,5,0,0,0-4.24-7.66ZM115.15,151.62H102.51a1.41,1.41,0,0,0-1.05.36,1.48,1.48,0,0,0-.36,1.08v9.45a1.45,1.45,0,0,0,.37,1.05,1.41,1.41,0,0,0,1,.37h12.64v3.5h-12.6a5.33,5.33,0,0,1-2.11-.47,5,5,0,0,1-1-.63,3.89,3.89,0,0,1-.88-.93,4.62,4.62,0,0,1-.62-1.26,5.3,5.3,0,0,1-.22-1.63V153a4.79,4.79,0,0,1,.11-1,5.53,5.53,0,0,1,.36-1.11,5,5,0,0,1,.63-1,4.13,4.13,0,0,1,.94-.88,4.62,4.62,0,0,1,1.26-.62,5.14,5.14,0,0,1,1.61-.23h12.64Zm23.3,8a8.37,8.37,0,0,1-.61,3.24,7.56,7.56,0,0,1-4.23,4.24,8.44,8.44,0,0,1-3.22.6h-4.74a8.44,8.44,0,0,1-3.22-.6,7.54,7.54,0,0,1-2.56-1.68,7.72,7.72,0,0,1-1.69-2.56,8.55,8.55,0,0,1-.61-3.24v-3.69a8.55,8.55,0,0,1,.61-3.24,7.57,7.57,0,0,1,4.25-4.24,8.44,8.44,0,0,1,3.22-.6h4.74a8.44,8.44,0,0,1,3.22.6,7.91,7.91,0,0,1,2.55,1.68,7.54,7.54,0,0,1,1.68,2.56,8.37,8.37,0,0,1,.61,3.24Zm21.2,7.81h-16a1.68,1.68,0,0,1-.7-.13,1.76,1.76,0,0,1-.56-.37,1.61,1.61,0,0,1-.37-.56,1.86,1.86,0,0,1-.14-.7V148.11h3.5v15.82h14.24Zm21.85-8.08a8.19,8.19,0,0,1-.61,3.24,8,8,0,0,1-1.69,2.56,7.87,7.87,0,0,1-2.56,1.67,8.45,8.45,0,0,1-3.22.61H164a1.85,1.85,0,0,1-.7-.13,1.7,1.7,0,0,1-.93-.93,1.85,1.85,0,0,1-.13-.7V149.88a1.8,1.8,0,0,1,.13-.69,2,2,0,0,1,.37-.56,1.79,1.79,0,0,1,.56-.38,1.86,1.86,0,0,1,.7-.14h9.46a8.45,8.45,0,0,1,3.22.61,7.57,7.57,0,0,1,4.25,4.24,8.37,8.37,0,0,1,.61,3.24Z" transform="translate(0)"/>
    </g>
    <g>
      <path class="a" d="M116.25,78q21.9-7.34,43.78-14.69a2.1,2.1,0,0,1,2.11.33c3.5,2.48,7,4.9,10.75,7.48l-9.51,1.22-45.94,5.92h-.72C116.48,78.26,116.19,78.43,116.25,78Z" transform="translate(0)"/>
      <path class="a" d="M181,56.84c2.29-1.27,4.41-2.43,6.52-3.61.39-.23.54-.1.73.25.83,1.57,1.67,3.14,2.54,4.69a.61.61,0,0,1-.08.85c-1,1.07-2,2.16-3,3.29-.4-3-2.71-3.77-4.93-4.68Z" transform="translate(0)"/>
      <path class="a" d="M116.25,78l.47.29c-.46.3-.93.19-1.58,0Z" transform="translate(0)"/>
      <path class="a" d="M189.76,71.47q-2.19-4.95-4.33-9.91a1.76,1.76,0,0,0-1-1c-4.08-1.81-8.14-3.65-12.21-5.47L126.31,34.54c-1.28-.58-2.58-1.12-3.86-1.68l-.15.25,1,.66,38.33,27.12c7.68,5.44,15.37,10.85,23,16.33.93.66,1.36.53,2-.35.93-1.38,2-2.69,3-4A1.18,1.18,0,0,0,189.76,71.47Zm-12.09-5a2.68,2.68,0,0,1-2-3.11,2.58,2.58,0,0,1,2.68-2.49h.07a2.63,2.63,0,0,1,2.14,3,2.71,2.71,0,0,1-2.81,2.62h-.08Z" transform="translate(0)"/>
      <path class="a" d="M222.88,32.45c-3.39-6.75-10.49-8.81-17-5a24.45,24.45,0,0,0-6,5.15c-4.22,4.89-7,10.61-9.53,16.47a4,4,0,0,0,.26,4.37,7.28,7.28,0,0,1,1.07,2c.63,1.88,1.8,2.44,3.8,2.4,6.43-.13,12.74-.7,18.61-3.57,5.53-2.71,9.3-6.86,10.27-13.15A15.72,15.72,0,0,0,222.88,32.45Zm-11.3,17.19a12.07,12.07,0,0,1-6.3,1.54c-4.46-.16-7.13-3.52-6.25-7.91,1.17-5.92,7.77-11.47,13.78-11.61,4.71-.11,7.59,2.9,6.93,8.22C218.9,44,215.9,47.33,211.58,49.64Z" transform="translate(0)"/>
      <path class="a" d="M219.56,92.21c-.79-6-4.35-10.07-9.31-13.1s-10.17-4.4-15.69-5.34a9.24,9.24,0,0,1-1.57-.2,1.78,1.78,0,0,0-2.21.91c-1,1.4-2.05,2.72-3.12,4a1.73,1.73,0,0,0-.37,1.56,73.52,73.52,0,0,0,4.12,14.1c1.78,4.18,4,8.12,7.48,11.1s7.35,4.11,11.77,2.48C216.49,105.6,220.42,98.69,219.56,92.21Zm-4.4,4.52c-.47,4.07-3.91,6.46-8.08,5.63-6.1-1.21-11.43-7.49-11.61-13.66-.13-4.62,3.37-7.61,7.95-6.81,6.26,1.1,11.84,7.69,11.83,14Q215.22,96.31,215.16,96.73Z" transform="translate(0)"/>
    </g>
    <path class="a" d="M123.57,90.47H89.27A2.48,2.48,0,0,1,86.78,88h0V2.48A2.48,2.48,0,0,0,84.3,0H46a2.48,2.48,0,0,0-2.48,2.48V88A2.48,2.48,0,0,1,41,90.47H6.74a2.49,2.49,0,0,0-1.68,4.32l31.6,28.91h0c1,.93,2,1.87,3.06,2.8v.08L44,130.66l19.55,17.85a2.29,2.29,0,0,0,1,.55h0a2.73,2.73,0,0,0,.4.05h.45a2.73,2.73,0,0,0,.4-.05h0a2.29,2.29,0,0,0,1-.55l19.55-17.85,4.26-4.08v-.08c1-.93,2-1.87,3.06-2.8h0l31.6-28.91a2.49,2.49,0,0,0-1.68-4.32Z" transform="translate(0)"/>
  </g>
</svg>
