<svg xmlns="http://www.w3.org/2000/svg" width="248.18" height="200" viewBox="0 0 248.18 200">
  <defs>
    <style>
      .a {
        fill: #fff;
      }
    </style>
  </defs>
  <title>skiveTheEdge</title>
  <g>
    <path class="a" d="M246,115.06V200H0V92.73H4.38c24.09,0,48.17.27,72.25-.16,7.49-.13,13.67-4,17.28-11.16,2.35-4.66,4.23-9.46,3.41-14.69-1.41-9-5-17.5-15.7-20.57-1.56-.45-3-1.19-4.93-1.95a6.36,6.36,0,0,1,0-2.46c3-7.47,6.17-14.89,9.23-22.35,2-4.88,2.65-4.53,7.19-2.14,2.55,1.34,4.74,3.35,7.22,4.84,7.92,4.73,13.63,11.35,17.91,19.49,3,5.65,5.59,11.27,5.9,17.78.24,5,1.4,10,1,15s-2.16,9.76-3.52,14.58c-2.77,9.8-9.7,16.77-16.53,23.77a28,28,0,0,1-3.33,2.38ZM4.9,194.8H241V120.41H85.52c-1.18-3.32.16-5.09,2.71-6.26,3-1.39,6.2-2.57,9.09-4.21,6.63-3.76,11.1-9.62,15.27-15.84,3.83-5.71,5.35-12.3,6.46-18.73.89-5.12-.4-10.67-1-16a38.35,38.35,0,0,0-12-24.22c-3.61-3.4-7.44-6.59-11.32-9.68-1.83-1.46-3.54-.41-4.48,1.38-1.32,2.5-2.45,5.11-3.52,7.73-2.11,5.19-2,5,2.94,8.05,8.77,5.41,12.48,13.92,13.76,23.73.83,6.39-1,12.34-3.91,17.87C95,92.8,88.1,98,78,98H4.9Z" transform="translate(0 0)"/>
    <path class="a" d="M232.78,35.58c-2.61.09-3.74-1.18-3.78-3.71s.68-4.25,3.61-4.24c2.56,0,3.72,1.18,3.76,3.75S235.58,35.55,232.78,35.58Z" transform="translate(0 0)"/>
    <path class="a" d="M8.55,190.75V102h4.51c22.74,0,45.48.06,68.22,0,5.26,0,9.79-2.41,13.6-5.92,4.63-4.26,8.58-9.15,10.34-15.28s3.24-12.66.88-19.21c-.83-2.31-.94-4.89-1.88-7.14A34.83,34.83,0,0,0,91.43,38.92c-.7-.47-1-2.27-.71-3.29a56.15,56.15,0,0,1,2.38-6.42,49.08,49.08,0,0,1,15.49,15c6,9.1,7.9,19.06,6.89,29.5A40.82,40.82,0,0,1,109,92.85c-4.61,6.88-10,12.62-17.53,16.19A36.89,36.89,0,0,1,86,111.22c-3.63,1-5.27,3.86-4.43,8.86.51,3.08,2.5,4.54,5.89,4.53q72.6-.1,145.21-.06h4.75v66.2Z" transform="translate(0 0)"/>
    <g>
      <path class="a" d="M245.76.34,118.19,106.63a1.48,1.48,0,0,0,1.18,2.59L243.07,89.1a1.49,1.49,0,0,0,1.24-1.39l3.87-86.17A1.48,1.48,0,0,0,246.76,0,1.52,1.52,0,0,0,245.76.34Zm-13,39.17a7.94,7.94,0,1,1,7.93-7.95v0a7.93,7.93,0,0,1-7.93,7.93h0Z" transform="translate(0 0)"/>
      <circle class="a" cx="232.71" cy="31.58" r="4.12"/>
    </g>
  </g>
</svg>
