<svg xmlns="http://www.w3.org/2000/svg" width="162.15" height="200" viewBox="0 0 162.15 200">
  <defs>
    <style>
      .a {
        fill: #fff;
      }
    </style>
  </defs>
  <title>unidentified</title>
  <g>
    <path class="a" d="M83.05,92.17c-25.8.92-44.89-21.72-46-43.08C35.51,21.68,58-2.72,88.3.24a46,46,0,0,1,41.28,45.85C129.69,71.59,108.53,93.26,83.05,92.17Zm.41-79.1H80.69a21.26,21.26,0,0,0-20,15.24c-.84,2.63-.26,3.48,2.6,3.67a19.84,19.84,0,0,1,4.73.6c2,.62,3,0,3.71-2.07,2.6-7.25,9.25-10.4,16.63-8.11S97.69,32.74,92.08,38c-3.08,3-6.52,5.55-9.55,8.59-3.72,3.74-4.7,8.36-4.79,13.35a1.89,1.89,0,0,0,1.54,2.18,1.68,1.68,0,0,0,.59,0c1.84,0,3.7-.08,5.53,0,2,.13,3-.78,3.07-2.71,0-4.21,2.56-6.87,5.5-9.42a76,76,0,0,0,9.1-8.66,15.32,15.32,0,0,0,.21-19.89C98.18,15.17,91.3,13,83.46,13.07Zm6.12,60.69c-.1-6.55,1-5.87-5.83-5.91H83c-5.3,0-5.3,0-5.28,5.17,0,7-.67,6.39,6.29,6.36C90.52,79.35,89.47,80.14,89.58,73.76Z" transform="translate(0 0)"/>
    <path class="a" d="M162,146.39c-.34-2.39-1.08-4.73-1.52-7.11a57.86,57.86,0,0,0-5.89-16.74c-3.25-6.1-7.83-11.06-12.8-15.71A60.36,60.36,0,0,0,119,93.42a3.85,3.85,0,0,0-3.6.38,71,71,0,0,1-9.09,4.8,47.12,47.12,0,0,1-20.13,4.68,76.08,76.08,0,0,1-12.26-.6A51.26,51.26,0,0,1,52.53,94.6a8,8,0,0,0-6.92-1.27,71.48,71.48,0,0,0-12.3,4.31A56.73,56.73,0,0,0,11.69,116.3C5.57,125.17,2.3,135.16.37,145.62c-.52,2.81-.72,5.89,1,8.57a92.93,92.93,0,0,0,12.85,16.32,97.67,97.67,0,0,0,16.5,13.43A92.63,92.63,0,0,0,54.5,195.16a98.17,98.17,0,0,0,21,4.1h0s13.24,2.79,32-2.49h0a58.51,58.51,0,0,0,9.31-3.12c6.61-2.91,13.22-6,18.83-10.51a109.83,109.83,0,0,0,23.62-25.89C161.46,153.8,162.59,150.36,162,146.39Z" transform="translate(0 0)"/>
  </g>
</svg>
