<?xml version="1.0" standalone="no"?>
<!DOCTYPE svg PUBLIC "-//W3C//DTD SVG 20010904//EN"
 "http://www.w3.org/TR/2001/REC-SVG-20010904/DTD/svg10.dtd">
<svg version="1.0" xmlns="http://www.w3.org/2000/svg"
 width="512.000000pt" height="512.000000pt" viewBox="0 0 512.000000 512.000000"
 preserveAspectRatio="xMidYMid meet">

<g transform="translate(0.000000,512.000000) scale(0.100000,-0.100000)"
fill="#000000" stroke="none">
<path d="M1584 3510 c-193 -38 -330 -242 -296 -438 38 -217 246 -369 455 -332
127 23 223 97 278 215 105 224 -21 486 -266 550 -64 16 -106 17 -171 5z m194
-222 c27 -18 49 -45 67 -83 103 -211 -167 -379 -323 -201 -79 90 -61 225 37
288 41 26 53 29 112 26 51 -3 75 -10 107 -30z"/>
<path d="M3277 3258 c-65 -14 -308 -136 -602 -303 l-239 -135 -128 85 c-70 47
-132 85 -136 85 -5 0 -15 -19 -22 -42 -17 -61 -55 -122 -106 -172 l-43 -43 79
-44 80 -44 0 -96 0 -95 -81 -43 -81 -43 40 -42 c47 -49 86 -115 103 -176 7
-25 14 -47 15 -49 3 -3 33 14 181 107 l81 51 148 -94 147 -94 32 28 c18 15 72
52 121 82 73 44 98 54 145 57 50 4 58 7 63 27 3 13 17 37 31 53 l25 30 -130
88 c-72 48 -130 91 -130 94 0 4 187 121 415 261 228 140 414 258 415 263 1 22
-85 119 -133 151 -87 57 -184 75 -290 53z m-767 -593 c47 -24 73 -78 68 -137
-4 -41 -12 -57 -42 -86 -34 -34 -41 -37 -95 -37 -50 0 -64 4 -86 25 -56 52
-70 118 -37 178 35 66 124 92 192 57z"/>
<path d="M3641 2553 c-107 -65 -126 -88 -117 -138 8 -41 38 -65 81 -65 43 0
210 104 225 140 21 52 -21 120 -74 120 -12 0 -63 -26 -115 -57z"/>
<path d="M1600 2376 c-209 -47 -350 -255 -311 -457 33 -166 148 -279 314 -310
118 -22 248 21 337 110 202 202 136 543 -124 639 -70 26 -150 33 -216 18z
m188 -218 c110 -73 106 -243 -7 -323 -34 -24 -54 -30 -109 -33 -60 -3 -72 0
-113 26 -127 81 -111 266 30 343 53 28 145 22 199 -13z"/>
<path d="M3279 2330 c-126 -76 -147 -107 -114 -169 30 -59 78 -55 192 16 89
55 113 82 113 124 0 28 -53 79 -83 79 -13 0 -62 -23 -108 -50z"/>
<path d="M2909 2099 c-46 -28 -92 -58 -101 -66 -36 -32 -31 -98 11 -130 33
-25 75 -14 168 44 89 55 113 82 113 124 0 28 -53 79 -83 79 -13 0 -62 -23
-108 -51z"/>
<path d="M2525 1862 c-95 -60 -120 -92 -109 -137 8 -32 49 -65 82 -65 38 0
209 109 223 142 14 34 5 71 -23 98 -36 33 -74 25 -173 -38z"/>
</g>
</svg>
