<svg id="Layer_1" data-name="Layer 1" xmlns="http://www.w3.org/2000/svg" viewBox="0 0 29.62 31"><defs><style>.cls-1{fill:#fff;}</style></defs><title>default</title><path class="cls-1" d="M29.62,11a1,1,0,0,1-.57.92c-.62.35-1.23.73-1.86,1.06a.81.81,0,0,0-.49,1,9.18,9.18,0,0,1,0,3.05.78.78,0,0,0,.44.93c.65.34,1.28.74,1.92,1.1a1,1,0,0,1,.48,1.26,15.81,15.81,0,0,1-3.07,5.41,1,1,0,0,1-1.55.25c-.57-.38-1.19-.68-1.78-1a.78.78,0,0,0-1,.06,10.16,10.16,0,0,1-2.76,1.6.75.75,0,0,0-.53.81c0,.74,0,1.48,0,2.21a.9.9,0,0,1-.84,1,14.78,14.78,0,0,1-6.28,0,1,1,0,0,1-.9-1.14c0-.69,0-1.38,0-2.07a.79.79,0,0,0-.56-.87A9.94,9.94,0,0,1,7.5,25a.74.74,0,0,0-1-.06c-.65.39-1.32.74-2,1.14a.9.9,0,0,1-1.27-.19A14.83,14.83,0,0,1,.05,20.16a.85.85,0,0,1,.48-1.07c.66-.39,1.31-.78,2-1.14a.73.73,0,0,0,.41-.87,10.2,10.2,0,0,1,0-3.12A.76.76,0,0,0,2.48,13c-.65-.35-1.28-.74-1.91-1.1a1,1,0,0,1-.48-1.27A16.18,16.18,0,0,1,3.27,5.16.91.91,0,0,1,4.59,5c.63.39,1.29.72,1.91,1.12a.76.76,0,0,0,1-.07A9.51,9.51,0,0,1,10.27,4.4a.75.75,0,0,0,.54-.8c0-.74,0-1.48,0-2.21a.94.94,0,0,1,.85-1,14.46,14.46,0,0,1,6.28,0,1,1,0,0,1,.88,1.1c0,.71,0,1.42,0,2.14a.73.73,0,0,0,.52.81A9.94,9.94,0,0,1,22.1,6a.79.79,0,0,0,1,.07c.67-.41,1.36-.77,2-1.17a.77.77,0,0,1,1.08.16,15.57,15.57,0,0,1,3.33,5.76C29.6,10.89,29.6,11,29.62,11ZM9.84,15.43a5,5,0,0,0,4.95,5,5.08,5.08,0,0,0,5-4.94,5.07,5.07,0,0,0-5-5A5,5,0,0,0,9.84,15.43Z" transform="translate(0)"/></svg>