<?xml version="1.0" encoding="utf-8"?>
<!-- Generator: Adobe Illustrator 22.0.0, SVG Export Plug-In . SVG Version: 6.00 Build 0)  -->
<svg version="1.1" id="Layer_1" xmlns="http://www.w3.org/2000/svg" xmlns:xlink="http://www.w3.org/1999/xlink" x="0px" y="0px"
	 viewBox="0 0 18.1 34.8" style="enable-background:new 0 0 18.1 34.8;" xml:space="preserve">
<style type="text/css">
	.st0{clip-path:url(#SVGID_2_);fill:#8E9DBE;}
	.st1{clip-path:url(#SVGID_4_);fill:none;stroke:#8E9DBE;stroke-linecap:round;stroke-linejoin:round;stroke-miterlimit:10;}
</style>
<g>
	<g>
		<defs>
			<rect id="SVGID_1_" width="18.1" height="34.8"/>
		</defs>
		<clipPath id="SVGID_2_">
			<use xlink:href="#SVGID_1_"  style="overflow:visible;"/>
		</clipPath>
		<path class="st0" d="M9.4,0.7c0-0.1-0.1-0.1-0.2-0.2H9.1c0,0,0,0-0.1,0c0,0,0,0-0.1,0v0.1c-0.1,0-0.1,0.1-0.2,0.2L0.5,9.3v24.6
			c0,0.2,0.2,0.4,0.4,0.4h8c0,0,0,0,0.1,0c0,0,0,0,0.1,0h8c0.2,0,0.4-0.2,0.4-0.4V9.3L9.4,0.7z"/>
	</g>
	<g>
		<defs>
			<rect id="SVGID_3_" width="18.1" height="34.8"/>
		</defs>
		<clipPath id="SVGID_4_">
			<use xlink:href="#SVGID_3_"  style="overflow:visible;"/>
		</clipPath>
		<path class="st1" d="M9.4,0.7c0-0.1-0.1-0.1-0.2-0.2H9.1c0,0,0,0-0.1,0c0,0,0,0-0.1,0v0.1c-0.1,0-0.1,0.1-0.2,0.2L0.5,9.3v24.6
			c0,0.2,0.2,0.4,0.4,0.4h8c0,0,0,0,0.1,0c0,0,0,0,0.1,0h8c0.2,0,0.4-0.2,0.4-0.4V9.3L9.4,0.7z"/>
	</g>
</g>
</svg>
