<?xml version="1.0" encoding="utf-8"?>
<!-- Generator: Adobe Illustrator 22.0.0, SVG Export Plug-In . SVG Version: 6.00 Build 0)  -->
<svg version="1.1" id="Layer_1" xmlns="http://www.w3.org/2000/svg" xmlns:xlink="http://www.w3.org/1999/xlink" x="0px" y="0px"
	 viewBox="0 0 13 25" style="enable-background:new 0 0 13 25;" xml:space="preserve">
<style type="text/css">
	.st0{clip-path:url(#SVGID_2_);}
	.st1{fill:#AFBBCE;stroke:#AFBBCE;stroke-linecap:round;stroke-linejoin:round;stroke-miterlimit:10;}
</style>
<g id="surface1">
	<g>
		<g>
			<defs>
				<rect id="SVGID_1_" y="0.1" width="13" height="24.7"/>
			</defs>
			<clipPath id="SVGID_2_">
				<use xlink:href="#SVGID_1_"  style="overflow:visible;"/>
			</clipPath>
			<g class="st0">
				<path class="st1" d="M6.7,0.6c0-0.1-0.1-0.1-0.1-0.1H6.5c0,0,0,0-0.1,0c0,0,0,0-0.1,0v0.1c-0.1,0-0.1,0.1-0.1,0.1l-5.9,6v17.5
					c0,0.1,0.1,0.3,0.3,0.3h5.7c0,0,0,0,0.1,0c0,0,0,0,0.1,0h5.7c0.1,0,0.3-0.1,0.3-0.3V6.7L6.7,0.6z"/>
			</g>
		</g>
	</g>
</g>
</svg>
