<svg xmlns="http://www.w3.org/2000/svg" width="12.42" height="13" viewBox="0 0 12.42 13">
  <defs>
    <style>
      .a {
        fill: #fff;
      }
    </style>
  </defs>
  <title>setting-icon</title>
  <path class="a" d="M12.42,4.62a.43.43,0,0,1-.24.39c-.26.15-.51.31-.78.45a.33.33,0,0,0-.2.4,3.93,3.93,0,0,1,0,1.28.32.32,0,0,0,.18.39l.8.46a.4.4,0,0,1,.21.53,6.82,6.82,0,0,1-1.29,2.27.43.43,0,0,1-.65.11c-.24-.16-.5-.29-.74-.44a.33.33,0,0,0-.44,0,4.36,4.36,0,0,1-1.16.68.31.31,0,0,0-.22.34c0,.3,0,.61,0,.92a.37.37,0,0,1-.35.43,6.14,6.14,0,0,1-2.63,0,.42.42,0,0,1-.38-.48c0-.29,0-.58,0-.86a.34.34,0,0,0-.24-.37,4.13,4.13,0,0,1-1.15-.67.32.32,0,0,0-.41,0c-.27.16-.56.31-.83.48a.38.38,0,0,1-.53-.08A6.16,6.16,0,0,1,0,8.45.36.36,0,0,1,.22,8c.28-.17.55-.33.83-.48a.32.32,0,0,0,.18-.37,4.05,4.05,0,0,1,0-1.3A.32.32,0,0,0,1,5.47L.24,5A.4.4,0,0,1,0,4.48,6.72,6.72,0,0,1,1.37,2.16a.39.39,0,0,1,.56-.08c.26.16.54.3.79.47a.32.32,0,0,0,.43,0,3.74,3.74,0,0,1,1.16-.67.31.31,0,0,0,.22-.34c0-.31,0-.62,0-.93A.39.39,0,0,1,4.89.15a6,6,0,0,1,2.63,0A.41.41,0,0,1,7.89.6c0,.3,0,.6,0,.9a.31.31,0,0,0,.22.34,4.11,4.11,0,0,1,1.16.68.35.35,0,0,0,.43,0l.85-.5a.34.34,0,0,1,.46.07A6.52,6.52,0,0,1,12.4,4.54S12.41,4.59,12.42,4.62ZM4.13,6.47A2.11,2.11,0,0,0,6.2,8.59,2.14,2.14,0,0,0,8.3,6.51a2.09,2.09,0,0,0-4.17,0Z" transform="translate(0 0)"/>
</svg>
