<svg width="150" height="102" viewBox="0 0 150 102" fill="none" xmlns="http://www.w3.org/2000/svg">
<mask id="path-1-outside-1" maskUnits="userSpaceOnUse" x="0.761108" y="-0.186096" width="150" height="103" fill="black">
<rect fill="white" x="0.761108" y="-0.186096" width="150" height="103"/>
<path fill-rule="evenodd" clip-rule="evenodd" d="M124.198 42.7365C122.328 43.0814 120.399 42.6709 118.833 41.5951C117.272 40.5184 116.201 38.8673 115.856 37.0033C115.51 35.1397 115.919 33.215 116.991 31.6513L135.947 4.1171C136.465 3.30794 137.14 2.61113 137.932 2.06819C138.725 1.52525 139.619 1.14756 140.561 0.956523C141.503 0.765926 142.473 0.766366 143.415 0.957837C144.356 1.14974 145.25 1.52875 146.042 2.07256C146.834 2.61594 147.509 3.31319 148.025 4.12279C148.542 4.93238 148.89 5.83728 149.05 6.78414C149.21 7.731 149.177 8.70016 148.954 9.6339C148.731 10.5681 148.322 11.4476 147.752 12.2205L128.8 39.7547C127.722 41.3188 126.067 42.3911 124.198 42.7365ZM26.0546 15.2945C28.1112 15.4153 30.1863 15.3855 32.2554 15.3558C33.173 15.3426 34.0894 15.3295 35.0025 15.3295C36.0405 15.3295 37.0788 15.3465 38.1164 15.3635H38.1165H38.1165H38.1166H38.1167H38.1168H38.1169H38.1169C40.3985 15.4008 42.6762 15.4381 44.9376 15.2945C48.9663 15.0471 52.0154 13.3636 52.3258 8.7941C52.6087 4.58743 50.3482 1.69089 45.4678 1.37396C38.8477 0.960417 32.21 0.901403 25.5838 1.19604C21.0693 1.37396 17.9927 4.76535 18.3101 8.48416C18.7358 13.0672 21.7395 15.082 26.0546 15.2945ZM98.2933 51.6817C98.1883 47.2656 101.443 44.582 106.958 44.582C112.296 44.617 115.833 47.548 115.728 51.8212C115.585 55.8154 112.118 58.3946 106.885 58.3596C101.335 58.3246 98.4012 56.0278 98.2933 51.6817ZM24.7812 56.5227C32.065 56.2626 39.3492 56.274 46.6329 56.5577C50.5226 56.6971 52.6087 59.5237 52.6817 63.1971C52.7167 66.9788 50.5432 69.7394 46.7059 70.0878C44.1837 70.32 41.646 70.2427 39.1042 70.1653C37.8317 70.1266 36.5581 70.0878 35.285 70.0878C34.2489 70.0878 33.2081 70.1069 32.1651 70.1261H32.1648H32.1645H32.1643H32.164H32.1637H32.1634H32.1631H32.1628H32.1627H32.1626H32.1625H32.1623H32.1622H32.1621H32.162H32.1618C29.726 70.1708 27.2783 70.2157 24.8512 70.0183C20.857 69.6975 18.3101 67.1913 18.2406 63.2705C18.1532 59.2064 20.787 56.6622 24.7812 56.5227ZM1.76111 68.3138C1.76111 64.4206 4.7891 61.0991 8.6787 60.9702C9.63942 60.9378 10.5967 61.0991 11.4937 61.444C12.3907 61.7889 13.2095 62.3109 13.9002 62.9789C14.5913 63.6464 15.1408 64.4459 15.5159 65.3303C15.8914 66.2146 16.0846 67.165 16.0846 68.1254V93.8371C16.0846 94.7975 15.8914 95.7478 15.5159 96.6322C15.1408 97.5165 14.5913 98.3161 13.9002 98.9836C13.2095 99.6516 12.3907 100.174 11.4937 100.518C10.5967 100.863 9.63942 101.025 8.6787 100.992C4.7891 100.863 1.76111 97.5419 1.76111 93.6487V68.3138ZM89.0903 55.8848C85.1975 56.0138 82.1694 59.3353 82.1694 63.2285V93.6522C82.1694 97.5454 85.1975 100.867 89.0903 100.996C90.0516 101.029 91.0094 100.868 91.9068 100.523C92.8043 100.178 93.6231 99.6564 94.3147 98.9884C95.0058 98.3209 95.5557 97.5209 95.9312 96.6366C96.3067 95.7522 96.5 94.8014 96.5 93.8406V63.037C96.4995 62.0766 96.3059 61.1258 95.9299 60.2419C95.5544 59.358 95.0045 58.5584 94.3133 57.8909C93.6218 57.2238 92.803 56.7023 91.906 56.3574C91.0085 56.0129 90.0512 55.8521 89.0903 55.8848ZM125.162 61.2269C127.001 61.5058 128.66 62.4889 129.787 63.9674L147.686 89.5956C148.789 91.1413 149.234 93.0622 148.92 94.9353C148.606 96.8081 147.561 98.4802 146.013 99.5826C144.466 100.686 142.543 101.129 140.669 100.815C138.794 100.502 137.121 99.4576 136.017 97.9114L118.118 72.2662C117.088 70.7178 116.702 68.8302 117.04 67.0025C117.379 65.1748 118.415 63.5503 119.931 62.4723C121.446 61.3943 123.323 60.9475 125.162 61.2269ZM8.6787 9.85734C4.7891 9.9863 1.76111 13.3077 1.76111 17.201V50.2353C1.76111 54.125 4.7891 57.4465 8.6787 57.5789C9.6396 57.6108 10.5971 57.4491 11.4941 57.1038C12.3912 56.758 13.2095 56.236 13.9006 55.5681C14.5913 54.9001 15.1408 54.1001 15.5163 53.2158C15.8914 52.3314 16.0846 51.3806 16.0846 50.4202V17.013C16.0846 16.0526 15.8914 15.1018 15.5159 14.2174C15.1408 13.3335 14.5913 12.5336 13.9002 11.866C13.2095 11.1985 12.3907 10.6766 11.4937 10.3312C10.5967 9.9863 9.63942 9.82499 8.6787 9.85734ZM55.0366 17.1974C55.0366 13.3077 58.0643 9.98622 61.9575 9.85726C62.9184 9.82448 63.8762 9.98535 64.7736 10.3303C65.6711 10.6752 66.4903 11.1971 67.1814 11.8646C67.873 12.5322 68.4225 13.3321 68.798 14.2165C69.1735 15.1013 69.3672 16.0521 69.3672 17.0129V50.4201C69.3672 51.381 69.1735 52.3318 68.798 53.2166C68.4229 54.1014 67.873 54.9013 67.1819 55.5693C66.4903 56.2373 65.6715 56.7592 64.7741 57.1046C63.8766 57.4499 62.9188 57.6112 61.9575 57.5789C58.0643 57.4464 55.0366 54.125 55.0366 50.2352V17.1974ZM89.0903 1.01859C85.1975 1.14755 82.1694 4.469 82.1694 8.36223V41.3966C82.1694 45.2859 85.1975 48.6113 89.0903 48.7402C90.0507 48.7726 91.0076 48.6121 91.9042 48.2681C92.8013 47.9236 93.6196 47.403 94.3107 46.7363C95.0018 46.0697 95.5518 45.271 95.9282 44.388C96.3041 43.5045 96.4986 42.555 96.5 41.595V8.17382C96.5 7.21297 96.3067 6.26217 95.9312 5.37782C95.5557 4.49347 95.0058 3.6935 94.3147 3.02598C93.6231 2.35801 92.8043 1.83606 91.9068 1.49158C91.0094 1.14668 90.0516 0.985805 89.0903 1.01859Z"/>
</mask>
<path fill-rule="evenodd" clip-rule="evenodd" d="M124.198 42.7365C122.328 43.0814 120.399 42.6709 118.833 41.5951C117.272 40.5184 116.201 38.8673 115.856 37.0033C115.51 35.1397 115.919 33.215 116.991 31.6513L135.947 4.1171C136.465 3.30794 137.14 2.61113 137.932 2.06819C138.725 1.52525 139.619 1.14756 140.561 0.956523C141.503 0.765926 142.473 0.766366 143.415 0.957837C144.356 1.14974 145.25 1.52875 146.042 2.07256C146.834 2.61594 147.509 3.31319 148.025 4.12279C148.542 4.93238 148.89 5.83728 149.05 6.78414C149.21 7.731 149.177 8.70016 148.954 9.6339C148.731 10.5681 148.322 11.4476 147.752 12.2205L128.8 39.7547C127.722 41.3188 126.067 42.3911 124.198 42.7365ZM26.0546 15.2945C28.1112 15.4153 30.1863 15.3855 32.2554 15.3558C33.173 15.3426 34.0894 15.3295 35.0025 15.3295C36.0405 15.3295 37.0788 15.3465 38.1164 15.3635H38.1165H38.1165H38.1166H38.1167H38.1168H38.1169H38.1169C40.3985 15.4008 42.6762 15.4381 44.9376 15.2945C48.9663 15.0471 52.0154 13.3636 52.3258 8.7941C52.6087 4.58743 50.3482 1.69089 45.4678 1.37396C38.8477 0.960417 32.21 0.901403 25.5838 1.19604C21.0693 1.37396 17.9927 4.76535 18.3101 8.48416C18.7358 13.0672 21.7395 15.082 26.0546 15.2945ZM98.2933 51.6817C98.1883 47.2656 101.443 44.582 106.958 44.582C112.296 44.617 115.833 47.548 115.728 51.8212C115.585 55.8154 112.118 58.3946 106.885 58.3596C101.335 58.3246 98.4012 56.0278 98.2933 51.6817ZM24.7812 56.5227C32.065 56.2626 39.3492 56.274 46.6329 56.5577C50.5226 56.6971 52.6087 59.5237 52.6817 63.1971C52.7167 66.9788 50.5432 69.7394 46.7059 70.0878C44.1837 70.32 41.646 70.2427 39.1042 70.1653C37.8317 70.1266 36.5581 70.0878 35.285 70.0878C34.2489 70.0878 33.2081 70.1069 32.1651 70.1261H32.1648H32.1645H32.1643H32.164H32.1637H32.1634H32.1631H32.1628H32.1627H32.1626H32.1625H32.1623H32.1622H32.1621H32.162H32.1618C29.726 70.1708 27.2783 70.2157 24.8512 70.0183C20.857 69.6975 18.3101 67.1913 18.2406 63.2705C18.1532 59.2064 20.787 56.6622 24.7812 56.5227ZM1.76111 68.3138C1.76111 64.4206 4.7891 61.0991 8.6787 60.9702C9.63942 60.9378 10.5967 61.0991 11.4937 61.444C12.3907 61.7889 13.2095 62.3109 13.9002 62.9789C14.5913 63.6464 15.1408 64.4459 15.5159 65.3303C15.8914 66.2146 16.0846 67.165 16.0846 68.1254V93.8371C16.0846 94.7975 15.8914 95.7478 15.5159 96.6322C15.1408 97.5165 14.5913 98.3161 13.9002 98.9836C13.2095 99.6516 12.3907 100.174 11.4937 100.518C10.5967 100.863 9.63942 101.025 8.6787 100.992C4.7891 100.863 1.76111 97.5419 1.76111 93.6487V68.3138ZM89.0903 55.8848C85.1975 56.0138 82.1694 59.3353 82.1694 63.2285V93.6522C82.1694 97.5454 85.1975 100.867 89.0903 100.996C90.0516 101.029 91.0094 100.868 91.9068 100.523C92.8043 100.178 93.6231 99.6564 94.3147 98.9884C95.0058 98.3209 95.5557 97.5209 95.9312 96.6366C96.3067 95.7522 96.5 94.8014 96.5 93.8406V63.037C96.4995 62.0766 96.3059 61.1258 95.9299 60.2419C95.5544 59.358 95.0045 58.5584 94.3133 57.8909C93.6218 57.2238 92.803 56.7023 91.906 56.3574C91.0085 56.0129 90.0512 55.8521 89.0903 55.8848ZM125.162 61.2269C127.001 61.5058 128.66 62.4889 129.787 63.9674L147.686 89.5956C148.789 91.1413 149.234 93.0622 148.92 94.9353C148.606 96.8081 147.561 98.4802 146.013 99.5826C144.466 100.686 142.543 101.129 140.669 100.815C138.794 100.502 137.121 99.4576 136.017 97.9114L118.118 72.2662C117.088 70.7178 116.702 68.8302 117.04 67.0025C117.379 65.1748 118.415 63.5503 119.931 62.4723C121.446 61.3943 123.323 60.9475 125.162 61.2269ZM8.6787 9.85734C4.7891 9.9863 1.76111 13.3077 1.76111 17.201V50.2353C1.76111 54.125 4.7891 57.4465 8.6787 57.5789C9.6396 57.6108 10.5971 57.4491 11.4941 57.1038C12.3912 56.758 13.2095 56.236 13.9006 55.5681C14.5913 54.9001 15.1408 54.1001 15.5163 53.2158C15.8914 52.3314 16.0846 51.3806 16.0846 50.4202V17.013C16.0846 16.0526 15.8914 15.1018 15.5159 14.2174C15.1408 13.3335 14.5913 12.5336 13.9002 11.866C13.2095 11.1985 12.3907 10.6766 11.4937 10.3312C10.5967 9.9863 9.63942 9.82499 8.6787 9.85734ZM55.0366 17.1974C55.0366 13.3077 58.0643 9.98622 61.9575 9.85726C62.9184 9.82448 63.8762 9.98535 64.7736 10.3303C65.6711 10.6752 66.4903 11.1971 67.1814 11.8646C67.873 12.5322 68.4225 13.3321 68.798 14.2165C69.1735 15.1013 69.3672 16.0521 69.3672 17.0129V50.4201C69.3672 51.381 69.1735 52.3318 68.798 53.2166C68.4229 54.1014 67.873 54.9013 67.1819 55.5693C66.4903 56.2373 65.6715 56.7592 64.7741 57.1046C63.8766 57.4499 62.9188 57.6112 61.9575 57.5789C58.0643 57.4464 55.0366 54.125 55.0366 50.2352V17.1974ZM89.0903 1.01859C85.1975 1.14755 82.1694 4.469 82.1694 8.36223V41.3966C82.1694 45.2859 85.1975 48.6113 89.0903 48.7402C90.0507 48.7726 91.0076 48.6121 91.9042 48.2681C92.8013 47.9236 93.6196 47.403 94.3107 46.7363C95.0018 46.0697 95.5518 45.271 95.9282 44.388C96.3041 43.5045 96.4986 42.555 96.5 41.595V8.17382C96.5 7.21297 96.3067 6.26217 95.9312 5.37782C95.5557 4.49347 95.0058 3.6935 94.3147 3.02598C93.6231 2.35801 92.8043 1.83606 91.9068 1.49158C91.0094 1.14668 90.0516 0.985805 89.0903 1.01859Z" fill="url(#paint0_linear)"/>
<path d="M118.833 41.5951L118.265 42.4183L118.267 42.4193L118.833 41.5951ZM124.198 42.7365L124.379 43.7199L124.379 43.7198L124.198 42.7365ZM115.856 37.0033L116.839 36.8211L116.839 36.8211L115.856 37.0033ZM116.991 31.6513L116.167 31.0842L116.166 31.0857L116.991 31.6513ZM135.947 4.1171L136.771 4.68418L136.781 4.67022L136.79 4.65595L135.947 4.1171ZM137.932 2.06819L137.367 1.2432L137.367 1.24321L137.932 2.06819ZM140.561 0.956523L140.362 -0.0236182L140.362 -0.023512L140.561 0.956523ZM143.415 0.957837L143.614 -0.0220204L143.614 -0.0221086L143.415 0.957837ZM146.042 2.07256L145.476 2.89697L145.476 2.89719L146.042 2.07256ZM149.05 6.78414L148.064 6.95031L148.064 6.95031L149.05 6.78414ZM148.954 9.6339L147.981 9.40125L147.981 9.40177L148.954 9.6339ZM147.752 12.2205L146.947 11.6269L146.938 11.6401L146.928 11.6535L147.752 12.2205ZM128.8 39.7547L129.623 40.3222L129.623 40.3217L128.8 39.7547ZM32.2554 15.3558L32.241 14.3559L32.241 14.3559L32.2554 15.3558ZM26.0546 15.2945L26.1132 14.2962L26.1037 14.2957L26.0546 15.2945ZM38.1164 15.3635L38.1 16.3633L38.1082 16.3635H38.1164V15.3635ZM38.1169 15.3635L38.1333 14.3636L38.1251 14.3635H38.1169V15.3635ZM44.9376 15.2945L44.8763 14.2964L44.8742 14.2965L44.9376 15.2945ZM52.3258 8.7941L53.3235 8.86187L53.3236 8.86119L52.3258 8.7941ZM45.4678 1.37396L45.5327 0.376057L45.5302 0.375904L45.4678 1.37396ZM25.5838 1.19604L25.6231 2.19528L25.6282 2.19505L25.5838 1.19604ZM18.3101 8.48416L17.3137 8.5692L17.3144 8.57667L18.3101 8.48416ZM106.958 44.582L106.965 43.582H106.958V44.582ZM98.2933 51.6817L97.2935 51.7055L97.2936 51.7066L98.2933 51.6817ZM115.728 51.8212L116.728 51.8569L116.728 51.8456L115.728 51.8212ZM106.885 58.3596L106.892 57.3596L106.891 57.3596L106.885 58.3596ZM46.6329 56.5577L46.594 57.5569L46.5971 57.557L46.6329 56.5577ZM24.7812 56.5227L24.8161 57.5221L24.8169 57.5221L24.7812 56.5227ZM52.6817 63.1971L53.6817 63.1878L53.6815 63.1772L52.6817 63.1971ZM46.7059 70.0878L46.6155 69.0919L46.6142 69.092L46.7059 70.0878ZM39.1042 70.1653L39.1346 69.1658L39.1346 69.1658L39.1042 70.1653ZM32.1651 70.1261V71.1261H32.1743L32.1834 71.1259L32.1651 70.1261ZM32.1618 70.1261V69.1261H32.1527L32.1435 69.1263L32.1618 70.1261ZM24.8512 70.0183L24.9322 69.0216L24.9312 69.0215L24.8512 70.0183ZM18.2406 63.2705L19.2405 63.2528L19.2404 63.249L18.2406 63.2705ZM8.6787 60.9702L8.71184 61.9696L8.71236 61.9696L8.6787 60.9702ZM13.9002 62.9789L13.205 63.6977L13.2055 63.6981L13.9002 62.9789ZM15.5159 65.3303L14.5953 65.7207L14.5954 65.7211L15.5159 65.3303ZM15.5159 96.6322L14.5954 96.2414L14.5953 96.2417L15.5159 96.6322ZM13.9002 98.9836L13.2055 98.2643L13.205 98.2648L13.9002 98.9836ZM8.6787 100.992L8.71236 99.9929L8.71184 99.9928L8.6787 100.992ZM89.0903 55.8848L89.1234 56.8843L89.1244 56.8843L89.0903 55.8848ZM89.0903 100.996L89.1244 99.9964L89.1234 99.9964L89.0903 100.996ZM91.9068 100.523L91.5485 99.5892L91.5481 99.5894L91.9068 100.523ZM94.3147 98.9884L93.6199 98.2691L93.6199 98.2692L94.3147 98.9884ZM95.9312 96.6366L95.0108 96.2457L95.0108 96.2457L95.9312 96.6366ZM96.5 63.037L97.5 63.037L97.5 63.0366L96.5 63.037ZM95.9299 60.2419L95.0095 60.6329L95.0097 60.6333L95.9299 60.2419ZM94.3133 57.8909L95.0081 57.1716L95.0076 57.1712L94.3133 57.8909ZM91.906 56.3574L92.2649 55.424L92.2643 55.4238L91.906 56.3574ZM129.787 63.9674L130.606 63.3948L130.595 63.3777L130.582 63.3611L129.787 63.9674ZM125.162 61.2269L125.011 62.2155L125.012 62.2156L125.162 61.2269ZM147.686 89.5956L146.866 90.1682L146.872 90.1767L147.686 89.5956ZM148.92 94.9353L147.933 94.7701L147.933 94.7703L148.92 94.9353ZM146.013 99.5826L145.433 98.7682L145.433 98.7683L146.013 99.5826ZM140.669 100.815L140.504 101.802L140.504 101.802L140.669 100.815ZM136.017 97.9114L135.197 98.4838L135.203 98.4924L136.017 97.9114ZM118.118 72.2662L117.285 72.8198L117.291 72.8292L117.298 72.8385L118.118 72.2662ZM117.04 67.0025L116.057 66.8204L116.057 66.8204L117.04 67.0025ZM119.931 62.4723L119.351 61.6574L119.351 61.6574L119.931 62.4723ZM8.6787 9.85734L8.71184 10.8568L8.71236 10.8568L8.6787 9.85734ZM8.6787 57.5789L8.64467 58.5784L8.64551 58.5784L8.6787 57.5789ZM11.4941 57.1038L11.8534 58.037L11.8538 58.0368L11.4941 57.1038ZM13.9006 55.5681L14.5956 56.2871L14.5958 56.2869L13.9006 55.5681ZM15.5163 53.2158L16.4368 53.6066L16.437 53.6062L15.5163 53.2158ZM15.5159 14.2174L14.5954 14.6081L14.5954 14.6083L15.5159 14.2174ZM13.9002 11.866L13.2053 12.5851L13.2055 12.5853L13.9002 11.866ZM11.4937 10.3312L11.853 9.39798L11.8526 9.39783L11.4937 10.3312ZM61.9575 9.85726L61.9906 10.8567L61.9916 10.8567L61.9575 9.85726ZM67.1814 11.8646L66.4867 12.5839L66.487 12.5841L67.1814 11.8646ZM68.798 14.2165L69.7185 13.8258L69.7185 13.8256L68.798 14.2165ZM68.798 53.2166L67.8775 52.8259L67.8773 52.8263L68.798 53.2166ZM67.1819 55.5693L67.8766 56.2886L67.8768 56.2884L67.1819 55.5693ZM64.7741 57.1046L64.4149 56.1713L64.4149 56.1713L64.7741 57.1046ZM61.9575 57.5789L61.9235 58.5783L61.9239 58.5783L61.9575 57.5789ZM89.0903 1.01859L89.1234 2.01804L89.1244 2.01801L89.0903 1.01859ZM89.0903 48.7402L89.124 47.7408L89.1234 47.7408L89.0903 48.7402ZM91.9042 48.2681L92.2625 49.2017L92.2627 49.2016L91.9042 48.2681ZM95.9282 44.388L96.8481 44.7801L96.8483 44.7795L95.9282 44.388ZM96.5 41.595L97.5 41.5964V41.595H96.5ZM95.9312 5.37782L95.0108 5.76867L95.0108 5.76867L95.9312 5.37782ZM94.3147 3.02598L93.6199 3.74525L93.6199 3.74526L94.3147 3.02598ZM91.9068 1.49158L91.5481 2.42502L91.5485 2.42518L91.9068 1.49158ZM118.267 42.4193C120.051 43.6452 122.25 44.1128 124.379 43.7199L124.016 41.7531C122.407 42.0499 120.747 41.6966 119.399 40.7709L118.267 42.4193ZM114.872 37.1854C115.266 39.3099 116.486 41.1915 118.265 42.4183L119.401 40.7718C118.057 39.8453 117.136 38.4247 116.839 36.8211L114.872 37.1854ZM116.166 31.0857C114.944 32.8677 114.479 35.0614 114.872 37.1855L116.839 36.8211C116.542 35.218 116.893 33.5622 117.816 32.2168L116.166 31.0857ZM135.124 3.55003L116.167 31.0842L117.815 32.2183L136.771 4.68418L135.124 3.55003ZM137.367 1.24321C136.464 1.86201 135.695 2.65616 135.105 3.57826L136.79 4.65595C137.235 3.95972 137.816 3.36024 138.498 2.89317L137.367 1.24321ZM140.362 -0.023512C139.289 0.194062 138.271 0.624319 137.367 1.2432L138.498 2.89317C139.179 2.42618 139.949 2.10105 140.759 1.93656L140.362 -0.023512ZM143.614 -0.0221086C142.541 -0.240262 141.435 -0.24075 140.362 -0.023618L140.759 1.93666C141.57 1.7726 142.405 1.77299 143.215 1.93778L143.614 -0.0221086ZM146.608 1.24815C145.705 0.628435 144.687 0.196615 143.614 -0.0220203L143.215 1.93769C144.025 2.10287 144.794 2.42907 145.476 2.89697L146.608 1.24815ZM148.868 3.58479C148.279 2.66198 147.51 1.86726 146.608 1.24794L145.476 2.89719C146.158 3.36462 146.738 3.9644 147.182 4.66078L148.868 3.58479ZM150.036 6.61797C149.854 5.53877 149.457 4.50744 148.868 3.58479L147.182 4.66078C147.627 5.35733 147.927 6.13578 148.064 6.95031L150.036 6.61797ZM149.926 9.86656C150.181 8.80175 150.218 7.69695 150.036 6.61797L148.064 6.95031C148.201 7.76505 148.173 8.59856 147.981 9.40125L149.926 9.86656ZM148.557 12.8141C149.207 11.9333 149.672 10.9308 149.927 9.86604L147.981 9.40177C147.789 10.2053 147.438 10.962 146.947 11.6269L148.557 12.8141ZM129.623 40.3217L148.576 12.7875L146.928 11.6535L127.976 39.1877L129.623 40.3217ZM124.379 43.7198C126.509 43.3264 128.395 42.1046 129.623 40.3222L127.976 39.1872C127.049 40.533 125.624 41.4559 124.016 41.7531L124.379 43.7198ZM32.241 14.3559C30.1656 14.3857 28.1272 14.4145 26.1132 14.2962L25.9959 16.2928C28.0952 16.4161 30.2069 16.3853 32.2698 16.3557L32.241 14.3559ZM35.0025 14.3295C34.081 14.3295 33.1574 14.3427 32.241 14.3559L32.2698 16.3557C33.1886 16.3425 34.0978 16.3295 35.0025 16.3295V14.3295ZM38.1328 14.3636C37.0966 14.3466 36.05 14.3295 35.0025 14.3295V16.3295C36.0309 16.3295 37.0611 16.3463 38.1 16.3633L38.1328 14.3636ZM38.1165 14.3635H38.1164V16.3635H38.1165V14.3635ZM38.1165 14.3635H38.1165V16.3635H38.1165V14.3635ZM38.1166 14.3635H38.1165V16.3635H38.1166V14.3635ZM38.1167 14.3635H38.1166V16.3635H38.1167V14.3635ZM38.1168 14.3635H38.1167V16.3635H38.1168V14.3635ZM38.1169 14.3635H38.1168V16.3635H38.1169V14.3635ZM38.1169 14.3635H38.1169V16.3635H38.1169V14.3635ZM44.8742 14.2965C42.6593 14.4372 40.4217 14.4011 38.1333 14.3636L38.1006 16.3633C40.3752 16.4006 42.693 16.4391 45.001 16.2925L44.8742 14.2965ZM51.3281 8.72633C51.1888 10.7779 50.4543 12.0586 49.4091 12.8781C48.3273 13.7263 46.7873 14.179 44.8763 14.2964L44.9989 16.2926C47.1167 16.1625 49.1155 15.6498 50.6431 14.452C52.2072 13.2256 53.1525 11.3799 53.3235 8.86187L51.3281 8.72633ZM45.403 2.37186C47.6595 2.51839 49.1655 3.24869 50.0837 4.28763C51.002 5.32653 51.4567 6.81444 51.3281 8.72702L53.3236 8.86119C53.4778 6.56709 52.9437 4.50339 51.5823 2.96312C50.2209 1.42289 48.1565 0.546459 45.5327 0.37606L45.403 2.37186ZM25.6282 2.19505C32.2189 1.902 38.8209 1.9607 45.4055 2.37201L45.5302 0.375904C38.8744 -0.0398621 32.2011 -0.0991899 25.5393 0.197027L25.6282 2.19505ZM19.3064 8.39913C19.045 5.33611 21.5866 2.35435 25.6231 2.19526L25.5444 0.196816C20.552 0.39357 16.9404 4.19459 17.3137 8.5692L19.3064 8.39913ZM26.1037 14.2957C24.0776 14.1959 22.4817 13.6778 21.3584 12.7554C20.2571 11.8512 19.4986 10.4673 19.3058 8.39166L17.3144 8.57667C17.5473 11.0841 18.5035 12.9991 20.0892 14.3012C21.653 15.5851 23.7164 16.1806 26.0054 16.2933L26.1037 14.2957ZM106.958 43.582C104.053 43.582 101.608 44.2877 99.8839 45.7028C98.1308 47.1417 97.2346 49.2239 97.2935 51.7055L99.293 51.658C99.247 49.7235 99.9258 48.2558 101.153 47.2488C102.409 46.2181 104.349 45.582 106.958 45.582V43.582ZM116.728 51.8456C116.788 49.4013 115.795 47.3075 114.021 45.8414C112.266 44.3908 109.807 43.6006 106.965 43.582L106.952 45.582C109.447 45.5983 111.426 46.2912 112.747 47.3831C114.05 48.4596 114.773 49.9679 114.729 51.7967L116.728 51.8456ZM106.878 59.3596C109.65 59.3781 112.054 58.7057 113.81 57.405C115.589 56.0878 116.645 54.1643 116.728 51.8569L114.729 51.7854C114.669 53.4722 113.92 54.8354 112.62 55.7977C111.299 56.7763 109.352 57.3761 106.892 57.3596L106.878 59.3596ZM97.2936 51.7066C97.3535 54.1187 98.2129 56.0862 99.9339 57.4263C101.616 58.7364 103.988 59.3414 106.879 59.3596L106.891 57.3596C104.232 57.3429 102.362 56.7819 101.163 55.8483C100.002 54.9448 99.341 53.5908 99.2929 51.6569L97.2936 51.7066ZM46.6718 55.5584C39.3632 55.2738 32.0541 55.2624 24.7455 55.5233L24.8169 57.5221C32.0758 57.2629 39.3351 57.2742 46.594 57.5569L46.6718 55.5584ZM53.6815 63.1772C53.6415 61.1633 53.0477 59.2975 51.847 57.9004C50.6322 56.4868 48.8667 55.6371 46.6687 55.5583L46.5971 57.557C48.2889 57.6177 49.5113 58.251 50.3302 59.2039C51.1632 60.1733 51.6489 61.5575 51.6819 63.2169L53.6815 63.1772ZM46.7963 71.0837C48.9455 70.8886 50.7023 70.0053 51.91 68.5751C53.1108 67.1529 53.7009 65.2711 53.6817 63.1878L51.6818 63.2063C51.6975 64.9048 51.2183 66.2942 50.3819 67.2848C49.5522 68.2674 48.3036 68.9387 46.6155 69.0919L46.7963 71.0837ZM39.0737 71.1649C41.6051 71.242 44.2043 71.3223 46.7976 71.0836L46.6142 69.092C44.1632 69.3177 41.6869 69.2435 39.1346 69.1658L39.0737 71.1649ZM35.285 71.0878C36.5404 71.0878 37.7987 71.1261 39.0737 71.1649L39.1346 69.1658C37.8646 69.1271 36.5759 69.0878 35.285 69.0878V71.0878ZM32.1834 71.1259C33.228 71.1067 34.2596 71.0878 35.285 71.0878V69.0878C34.2382 69.0878 33.1882 69.1071 32.1467 69.1263L32.1834 71.1259ZM32.1648 71.1261H32.1651V69.1261H32.1648V71.1261ZM32.1645 71.1261H32.1648V69.1261H32.1645V71.1261ZM32.1643 71.1261H32.1645V69.1261H32.1643V71.1261ZM32.164 71.1261H32.1643V69.1261H32.164V71.1261ZM32.1637 71.1261H32.164V69.1261H32.1637V71.1261ZM32.1634 71.1261H32.1637V69.1261H32.1634V71.1261ZM32.1631 71.1261H32.1634V69.1261H32.1631V71.1261ZM32.1628 71.1261H32.1631V69.1261H32.1628V71.1261ZM32.1627 71.1261H32.1628V69.1261H32.1627V71.1261ZM32.1626 71.1261H32.1627V69.1261H32.1626V71.1261ZM32.1625 71.1261H32.1626V69.1261H32.1625V71.1261ZM32.1623 71.1261H32.1625V69.1261H32.1623V71.1261ZM32.1622 71.1261H32.1623V69.1261H32.1622V71.1261ZM32.1621 71.1261H32.1622V69.1261H32.1621V71.1261ZM32.162 71.1261H32.1621V69.1261H32.162V71.1261ZM32.1618 71.1261H32.162V69.1261H32.1618V71.1261ZM24.7701 71.015C27.2552 71.2171 29.7528 71.1705 32.1802 71.1259L32.1435 69.1263C29.6991 69.1711 27.3014 69.2143 24.9322 69.0216L24.7701 71.015ZM17.2408 63.2882C17.2795 65.4695 18.0137 67.3339 19.3633 68.6978C20.7077 70.0563 22.584 70.8394 24.7711 71.0151L24.9312 69.0215C23.1242 68.8764 21.7299 68.2459 20.7849 67.291C19.8453 66.3414 19.2713 64.9923 19.2405 63.2528L17.2408 63.2882ZM24.7463 55.5233C22.5452 55.6002 20.6279 56.3457 19.2687 57.7223C17.9042 59.1043 17.1922 61.0317 17.2409 63.292L19.2404 63.249C19.2016 61.4452 19.7628 60.0684 20.6919 59.1274C21.6263 58.181 23.0231 57.5847 24.8161 57.5221L24.7463 55.5233ZM8.64557 59.9707C4.18322 60.1187 0.761108 63.9155 0.761108 68.3138H2.76111C2.76111 64.9256 5.39497 62.0796 8.71184 61.9696L8.64557 59.9707ZM11.8526 60.5106C10.8306 60.1177 9.73986 59.9339 8.64505 59.9707L8.71236 61.9696C9.53898 61.9418 10.3628 62.0805 11.1348 62.3774L11.8526 60.5106ZM14.5954 62.26C13.808 61.4985 12.8748 60.9037 11.8526 60.5106L11.1348 62.3774C11.9067 62.6742 12.6111 63.1233 13.205 63.6977L14.5954 62.26ZM16.4365 64.9398C16.0089 63.9317 15.3826 63.0203 14.5949 62.2596L13.2055 63.6981C13.8001 64.2724 14.2727 64.9602 14.5953 65.7207L16.4365 64.9398ZM17.0846 68.1254C17.0846 67.0308 16.8644 65.9475 16.4364 64.9394L14.5954 65.7211C14.9184 66.4817 15.0846 67.2992 15.0846 68.1254H17.0846ZM17.0846 93.8371V68.1254H15.0846V93.8371H17.0846ZM16.4364 97.023C16.8644 96.015 17.0846 94.9317 17.0846 93.8371H15.0846C15.0846 94.6633 14.9184 95.4807 14.5954 96.2414L16.4364 97.023ZM14.5949 99.7029C15.3826 98.9421 16.0089 98.0308 16.4365 97.0227L14.5953 96.2417C14.2727 97.0023 13.8001 97.69 13.2055 98.2643L14.5949 99.7029ZM11.8526 101.452C12.8748 101.059 13.808 100.464 14.5954 99.7024L13.205 98.2648C12.6111 98.8392 11.9067 99.2883 11.1348 99.5851L11.8526 101.452ZM8.64504 101.992C9.73986 102.029 10.8306 101.845 11.8526 101.452L11.1348 99.5851C10.3628 99.8819 9.53899 100.021 8.71236 99.9929L8.64504 101.992ZM0.761108 93.6487C0.761108 98.047 4.18322 101.844 8.64557 101.992L8.71184 99.9928C5.39497 99.8829 2.76111 97.0368 2.76111 93.6487H0.761108ZM0.761108 68.3138V93.6487H2.76111V68.3138H0.761108ZM83.1694 63.2285C83.1694 59.8406 85.8031 56.9943 89.1234 56.8843L89.0572 54.8854C84.5919 55.0333 81.1694 58.8299 81.1694 63.2285H83.1694ZM83.1694 93.6522V63.2285H81.1694V93.6522H83.1694ZM89.1234 99.9964C85.8031 99.8864 83.1694 97.04 83.1694 93.6522H81.1694C81.1694 98.0508 84.5919 101.847 89.0572 101.995L89.1234 99.9964ZM91.5481 99.5894C90.7759 99.8862 89.9517 100.025 89.1244 99.9964L89.0562 101.995C90.1515 102.033 91.2429 101.849 92.2656 101.456L91.5481 99.5894ZM93.6199 98.2692C93.0248 98.844 92.3204 99.2929 91.5485 99.5892L92.2652 101.456C93.2882 101.064 94.2213 100.469 95.0094 99.7077L93.6199 98.2692ZM95.0108 96.2457C94.6877 97.0065 94.2146 97.6948 93.6199 98.2691L95.0094 99.7077C95.797 98.947 96.4237 98.0353 96.8517 97.0274L95.0108 96.2457ZM95.5 93.8406C95.5 94.6673 95.3337 95.4852 95.0108 96.2457L96.8517 97.0274C97.2798 96.0193 97.5 94.9356 97.5 93.8406H95.5ZM95.5 63.037V93.8406H97.5V63.037H95.5ZM95.0097 60.6333C95.333 61.3933 95.4996 62.2112 95.5 63.0375L97.5 63.0366C97.4995 61.9421 97.2788 60.8583 96.8501 59.8505L95.0097 60.6333ZM93.6186 58.6102C94.2134 59.1847 94.6865 59.8726 95.0095 60.6329L96.8503 59.8509C96.4223 58.8433 95.7955 57.9322 95.0081 57.1716L93.6186 58.6102ZM91.5471 57.2908C92.3192 57.5877 93.0239 58.0366 93.6191 58.6107L95.0076 57.1712C94.2196 56.4111 93.2868 55.817 92.2649 55.424L91.5471 57.2908ZM89.1244 56.8843C89.9512 56.8561 90.7751 56.9945 91.5476 57.291L92.2643 55.4238C91.242 55.0314 90.1512 54.8481 89.0562 54.8854L89.1244 56.8843ZM130.582 63.3611C129.298 61.6763 127.408 60.556 125.311 60.2382L125.012 62.2156C126.595 62.4556 128.022 63.3016 128.991 64.5736L130.582 63.3611ZM148.505 89.023L130.606 63.3948L128.967 64.5399L146.866 90.1682L148.505 89.023ZM149.906 95.1006C150.264 92.9654 149.757 90.7761 148.499 89.0144L146.872 90.1767C147.821 91.5065 148.203 93.1589 147.933 94.7701L149.906 95.1006ZM146.593 100.397C148.357 99.1407 149.549 97.2351 149.906 95.1004L147.933 94.7703C147.664 96.3811 146.764 97.8196 145.433 98.7682L146.593 100.397ZM140.504 101.802C142.64 102.159 144.83 101.654 146.593 100.397L145.433 98.7683C144.101 99.7173 142.447 100.099 140.833 99.8291L140.504 101.802ZM135.203 98.4924C136.461 100.255 138.368 101.445 140.504 101.802L140.833 99.8291C139.22 99.5593 137.78 98.6606 136.831 97.3304L135.203 98.4924ZM117.298 72.8385L135.197 98.4838L136.837 97.3391L118.938 71.6938L117.298 72.8385ZM116.057 66.8204C115.671 68.9037 116.112 71.0552 117.285 72.8198L118.951 71.7125C118.065 70.3804 117.733 68.7566 118.024 67.1845L116.057 66.8204ZM119.351 61.6574C117.624 62.8858 116.443 64.7372 116.057 66.8204L118.024 67.1845C118.315 65.6123 119.206 64.2148 120.51 63.2872L119.351 61.6574ZM125.312 60.2382C123.216 59.9199 121.078 60.429 119.351 61.6574L120.51 63.2872C121.814 62.3596 123.429 61.9752 125.011 62.2155L125.312 60.2382ZM2.76111 17.201C2.76111 13.8128 5.39497 10.9668 8.71184 10.8568L8.64557 8.85789C4.18322 9.00584 0.761108 12.8027 0.761108 17.201H2.76111ZM2.76111 50.2353V17.201H0.761108V50.2353H2.76111ZM8.71274 56.5795C5.39467 56.4665 2.76111 53.6195 2.76111 50.2353H0.761108C0.761108 54.6306 4.18352 58.4264 8.64467 58.5784L8.71274 56.5795ZM11.1349 56.1705C10.3628 56.4678 9.53874 56.6069 8.71189 56.5795L8.64551 58.5784C9.74045 58.6147 10.8314 58.4305 11.8534 58.037L11.1349 56.1705ZM13.2057 54.849C12.6111 55.4237 11.9068 55.873 11.1345 56.1707L11.8538 58.0368C12.8756 57.643 13.808 57.0483 14.5956 56.2871L13.2057 54.849ZM14.5959 52.8249C14.2727 53.5859 13.7999 54.2744 13.2055 54.8492L14.5958 56.2869C15.3828 55.5258 16.0089 54.6143 16.4368 53.6066L14.5959 52.8249ZM15.0846 50.4202C15.0846 51.2465 14.9184 52.0645 14.5957 52.8253L16.437 53.6062C16.8644 52.5983 17.0846 51.5147 17.0846 50.4202H15.0846ZM15.0846 17.013V50.4202H17.0846V17.013H15.0846ZM14.5954 14.6083C14.9184 15.3689 15.0846 16.1867 15.0846 17.013H17.0846C17.0846 15.9185 16.8644 14.8347 16.4364 13.8266L14.5954 14.6083ZM13.2055 12.5853C13.8 13.1595 14.2727 13.8477 14.5954 14.6081L16.4365 13.8268C16.009 12.8194 15.3827 11.9076 14.5949 11.1467L13.2055 12.5853ZM11.1344 11.2644C11.9066 11.5617 12.6112 12.011 13.2053 12.5851L14.5952 11.147C13.8078 10.3861 12.8748 9.79138 11.853 9.39798L11.1344 11.2644ZM8.71236 10.8568C9.53898 10.8289 10.3628 10.9677 11.1348 11.2646L11.8526 9.39783C10.8306 9.00487 9.73986 8.82104 8.64505 8.85791L8.71236 10.8568ZM61.9244 8.85781C57.459 9.00572 54.0366 12.802 54.0366 17.1974H56.0366C56.0366 13.8133 58.6696 10.9667 61.9906 10.8567L61.9244 8.85781ZM65.1324 9.39681C64.1097 9.00379 63.0183 8.82048 61.9234 8.85784L61.9916 10.8567C62.8184 10.8285 63.6426 10.9669 64.4149 11.2637L65.1324 9.39681ZM67.8762 11.1454C67.0884 10.3845 66.1549 9.78979 65.1324 9.39681L64.4149 11.2637C65.1873 11.5605 65.8922 12.0097 66.4867 12.5839L67.8762 11.1454ZM69.7185 13.8256C69.2906 12.8179 68.6643 11.9061 67.8759 11.1451L66.487 12.5841C67.0817 13.1582 67.5544 13.8463 67.8776 14.6073L69.7185 13.8256ZM70.3672 17.0129C70.3672 15.9176 70.1464 14.834 69.7185 13.8258L67.8775 14.6072C68.2006 15.3686 68.3672 16.1865 68.3672 17.0129H70.3672ZM70.3672 50.4201V17.0129H68.3672V50.4201H70.3672ZM69.7185 53.6073C70.1464 52.5991 70.3672 51.5154 70.3672 50.4201H68.3672C68.3672 51.2466 68.2006 52.0645 67.8775 52.8259L69.7185 53.6073ZM67.8768 56.2884C68.6642 55.5274 69.2911 54.6156 69.7187 53.6069L67.8773 52.8263C67.5548 53.5871 67.0818 54.2753 66.4869 54.8502L67.8768 56.2884ZM65.1332 58.0378C66.1556 57.6444 67.0886 57.0497 67.8766 56.2886L66.4872 54.85C65.8921 55.4248 65.1874 55.874 64.4149 56.1713L65.1332 58.0378ZM61.9239 58.5783C63.0192 58.6152 64.1106 58.4314 65.1332 58.0378L64.4149 56.1713C63.6427 56.4685 62.8184 56.6073 61.9912 56.5794L61.9239 58.5783ZM54.0366 50.2352C54.0366 54.6308 57.459 58.4264 61.9235 58.5783L61.9915 56.5794C58.6696 56.4664 56.0366 53.6191 56.0366 50.2352H54.0366ZM54.0366 17.1974V50.2352H56.0366V17.1974H54.0366ZM83.1694 8.36223C83.1694 4.97438 85.8031 2.12804 89.1234 2.01804L89.0572 0.0191391C84.5919 0.167062 81.1694 3.96362 81.1694 8.36223H83.1694ZM83.1694 41.3966V8.36223H81.1694V41.3966H83.1694ZM89.1234 47.7408C85.8034 47.6308 83.1694 44.7808 83.1694 41.3966H81.1694C81.1694 45.7909 84.5916 49.5917 89.0572 49.7397L89.1234 47.7408ZM91.546 47.3345C90.7745 47.6305 89.9509 47.7686 89.124 47.7408L89.0567 49.7396C90.1506 49.7765 91.2408 49.5938 92.2625 49.2017L91.546 47.3345ZM93.6165 46.0166C93.022 46.59 92.3179 47.038 91.5457 47.3346L92.2627 49.2016C93.2846 48.8092 94.2172 48.216 95.005 47.4561L93.6165 46.0166ZM95.0082 43.9959C94.6843 44.7558 94.2111 45.443 93.6165 46.0166L95.005 47.4561C95.7926 46.6964 96.4192 45.7863 96.8481 44.7801L95.0082 43.9959ZM95.5 41.5937C95.4988 42.4194 95.3315 43.2362 95.008 43.9964L96.8483 44.7795C97.2767 43.7728 97.4985 42.6907 97.5 41.5964L95.5 41.5937ZM95.5 8.17382V41.595H97.5V8.17382H95.5ZM95.0108 5.76867C95.3337 6.52922 95.5 7.34708 95.5 8.17382H97.5C97.5 7.07887 97.2798 5.99513 96.8517 4.98698L95.0108 5.76867ZM93.6199 3.74526C94.2146 4.3196 94.6877 5.00789 95.0108 5.76867L96.8517 4.98698C96.4237 3.97906 95.797 3.0674 95.0094 2.30669L93.6199 3.74526ZM91.5485 2.42518C92.3204 2.72145 93.0248 3.17046 93.6199 3.74525L95.0094 2.3067C94.2214 1.54557 93.2882 0.95066 92.2652 0.557992L91.5485 2.42518ZM89.1244 2.01801C89.9517 1.98979 90.7759 2.12824 91.5481 2.42502L92.2656 0.558146C91.2429 0.165113 90.1515 -0.0181848 89.0562 0.0191719L89.1244 2.01801Z" fill="white" mask="url(#path-1-outside-1)"/>
<defs>
<linearGradient id="paint0_linear" x1="155.067" y1="-7.22921" x2="33.2094" y2="140.031" gradientUnits="userSpaceOnUse">
<stop stop-color="#02A8D9"/>
<stop offset="0.396168" stop-color="#5682E8"/>
<stop offset="0.918893" stop-color="#E23FFD"/>
</linearGradient>
</defs>
</svg>
