<svg width="150" height="105" viewBox="0 0 150 105" fill="none" xmlns="http://www.w3.org/2000/svg">
<g filter="url(#filter0_d)">
<path fill-rule="evenodd" clip-rule="evenodd" d="M121.581 43.9815C119.752 44.3191 117.864 43.9173 116.331 42.8645C114.803 41.8108 113.755 40.195 113.418 38.3708C113.08 36.5471 113.479 34.6635 114.529 33.1332L133.08 6.18742C133.586 5.39555 134.247 4.71362 135.023 4.18229C135.798 3.65095 136.673 3.28133 137.595 3.09437C138.516 2.90785 139.466 2.90828 140.388 3.09566C141.309 3.28347 142.184 3.65438 142.959 4.18657C143.734 4.71833 144.394 5.40068 144.9 6.19298C145.405 6.98528 145.746 7.87083 145.903 8.79746C146.059 9.72409 146.027 10.6725 145.808 11.5863C145.59 12.5005 145.19 13.3613 144.632 14.1177L126.085 41.0635C125.03 42.5941 123.41 43.6435 121.581 43.9815ZM31.6037 17.186H31.6038H31.6038H31.6039H31.6039H31.604H31.604H31.6041H31.6041C32.502 17.1731 33.3987 17.1602 34.2922 17.1602C35.3081 17.1602 36.3244 17.1768 37.3399 17.1934L37.34 17.1934C39.5728 17.23 41.8019 17.2665 44.0149 17.1259C47.9576 16.8838 50.9415 15.2363 51.2453 10.7645C51.5221 6.64769 49.3099 3.81304 44.5339 3.50288C38.0552 3.09818 31.5594 3.04043 25.0747 3.32877C20.6567 3.50288 17.6458 6.8218 17.9564 10.4612C18.3731 14.9463 21.3126 16.918 25.5354 17.1259C27.5481 17.2442 29.5788 17.215 31.6037 17.186ZM96.2304 52.7356C96.1277 48.4139 99.3132 45.7876 104.71 45.7876C109.933 45.8218 113.395 48.6903 113.293 52.8721C113.153 56.781 109.759 59.305 104.639 59.2708C99.2071 59.2366 96.3361 56.9889 96.2304 52.7356ZM24.2893 57.4731C31.4174 57.2186 38.5459 57.2297 45.674 57.5074C49.4807 57.6438 51.5221 60.41 51.5936 64.0049C51.6278 67.7058 49.5008 70.4074 45.7455 70.7484C43.2772 70.9756 40.7937 70.9 38.3062 70.8242C37.0609 70.7863 35.8146 70.7484 34.5686 70.7484C33.5547 70.7484 32.5362 70.7671 31.5156 70.7858H31.5155H31.5153H31.5152H31.515H31.5149H31.5147H31.5146L31.5132 70.7858C29.129 70.8296 26.7333 70.8735 24.3578 70.6804C20.4489 70.3664 17.9565 67.9137 17.8885 64.0768C17.8029 60.0994 20.3804 57.6096 24.2893 57.4731ZM1.76111 69.0123C1.76111 65.2022 4.72439 61.9518 8.53088 61.8256C9.47107 61.7939 10.4079 61.9518 11.2857 62.2893C12.1636 62.6268 12.9649 63.1376 13.6408 63.7913C14.3172 64.4446 14.8549 65.2271 15.222 66.0925C15.5895 66.958 15.7786 67.888 15.7786 68.8279V93.9902C15.7786 94.93 15.5895 95.8601 15.222 96.7255C14.8549 97.591 14.3172 98.3734 13.6408 99.0267C12.9649 99.6804 12.1636 100.191 11.2857 100.529C10.4079 100.866 9.47107 101.024 8.53088 100.992C4.72439 100.866 1.76111 97.6158 1.76111 93.8058V69.0123ZM87.2242 56.8489C83.4146 56.9751 80.4512 60.2256 80.4512 64.0356V93.8092C80.4512 97.6192 83.4146 100.87 87.2242 100.996C88.1649 101.028 89.1023 100.871 89.9805 100.533C90.8588 100.196 91.6601 99.6851 92.3369 99.0314C93.0133 98.3782 93.5514 97.5953 93.9189 96.7298C94.2864 95.8644 94.4755 94.9339 94.4755 93.9936V63.8483C94.4751 62.9084 94.2856 61.9779 93.9176 61.1129C93.5502 60.2478 93.012 59.4654 92.3356 58.8121C91.6588 58.1593 90.8576 57.6489 89.9797 57.3114C89.1014 56.9743 88.1645 56.8168 87.2242 56.8489ZM122.525 62.0768C124.325 62.3498 125.948 63.3119 127.051 64.7587L144.567 89.8393C145.648 91.352 146.082 93.2318 145.775 95.0649C145.468 96.8977 144.445 98.534 142.931 99.6129C141.416 100.692 139.535 101.126 137.7 100.819C135.866 100.513 134.228 99.4906 133.148 97.9774L115.631 72.8802C114.624 71.3649 114.246 69.5176 114.577 67.729C114.908 65.9403 115.922 64.3506 117.406 63.2956C118.889 62.2407 120.725 61.8034 122.525 62.0768ZM8.53088 11.805C4.72439 11.9312 1.76111 15.1816 1.76111 18.9917V51.3201C1.76111 55.1267 4.72439 58.3772 8.53088 58.5068C9.47124 58.538 10.4083 58.3798 11.2862 58.0418C12.164 57.7034 12.9649 57.1926 13.6412 56.5389C14.3172 55.8852 14.8549 55.1023 15.2224 54.2369C15.5895 53.3714 15.7786 52.441 15.7786 51.5011V18.8077C15.7786 17.8678 15.5895 16.9374 15.222 16.0719C14.8549 15.2069 14.3172 14.424 13.6408 13.7707C12.9649 13.1175 12.1636 12.6067 11.2857 12.2687C10.4079 11.9312 9.47107 11.7733 8.53088 11.805ZM53.8982 18.9882C53.8982 15.1816 56.8611 11.9311 60.6712 11.8049C61.6115 11.7728 62.5488 11.9303 63.4271 12.2678C64.3054 12.6053 65.1071 13.1161 65.7835 13.7694C66.4603 14.4226 66.998 15.2055 67.3655 16.071C67.733 16.9369 67.9225 17.8673 67.9225 18.8077V51.501C67.9225 52.4413 67.733 53.3718 67.3655 54.2377C66.9985 55.1036 66.4603 55.8864 65.7839 56.5401C65.1071 57.1938 64.3058 57.7046 63.4276 58.0426C62.5493 58.3805 61.6119 58.5384 60.6712 58.5067C56.8611 58.3771 53.8982 55.1267 53.8982 51.32V18.9882ZM87.2242 3.15513C83.4146 3.28133 80.4512 6.53181 80.4512 10.3418V42.6703C80.4512 46.4765 83.4146 49.7308 87.2242 49.857C88.1641 49.8886 89.1006 49.7316 89.978 49.395C90.8558 49.0578 91.6567 48.5483 92.333 47.8959C93.0094 47.2435 93.5476 46.4619 93.9159 45.5977C94.2838 44.7332 94.4742 43.804 94.4755 42.8645V10.1575C94.4755 9.21714 94.2864 8.28666 93.9189 7.42121C93.5514 6.55576 93.0133 5.77288 92.3369 5.11962C91.6601 4.46593 90.8588 3.95513 89.9805 3.61802C89.1023 3.28048 88.1649 3.12304 87.2242 3.15513Z" fill="url(#paint0_linear)"/>
</g>
<defs>
<filter id="filter0_d" x="-0.238892" y="-0.0451965" width="152.239" height="106.045" filterUnits="userSpaceOnUse" color-interpolation-filters="sRGB">
<feFlood flood-opacity="0" result="BackgroundImageFix"/>
<feColorMatrix in="SourceAlpha" type="matrix" values="0 0 0 0 0 0 0 0 0 0 0 0 0 0 0 0 0 0 127 0"/>
<feOffset dx="2" dy="1"/>
<feGaussianBlur stdDeviation="2"/>
<feColorMatrix type="matrix" values="0 0 0 0 1 0 0 0 0 1 0 0 0 0 1 0 0 0 0.71 0"/>
<feBlend mode="normal" in2="BackgroundImageFix" result="effect1_dropShadow"/>
<feBlend mode="normal" in="SourceGraphic" in2="effect1_dropShadow" result="shape"/>
</filter>
<linearGradient id="paint0_linear" x1="151.791" y1="-4.91644" x2="32.5373" y2="139.197" gradientUnits="userSpaceOnUse">
<stop stop-color="#02A8D9"/>
<stop offset="0.396168" stop-color="#5682E8"/>
<stop offset="0.918893" stop-color="#E23FFD"/>
</linearGradient>
</defs>
</svg>
