<svg width="150" height="103" viewBox="0 0 150 103" fill="none" xmlns="http://www.w3.org/2000/svg">
<path fill-rule="evenodd" clip-rule="evenodd" d="M124.198 42.7365C122.328 43.0814 120.399 42.6709 118.833 41.5951C117.272 40.5184 116.201 38.8673 115.856 37.0033C115.51 35.1397 115.919 33.215 116.991 31.6513L135.947 4.1171C136.465 3.30794 137.14 2.61113 137.932 2.06819C138.725 1.52525 139.619 1.14756 140.561 0.956523C141.503 0.765926 142.473 0.766366 143.415 0.957837C144.356 1.14974 145.25 1.52875 146.042 2.07256C146.834 2.61594 147.509 3.31319 148.025 4.12279C148.542 4.93238 148.89 5.83728 149.05 6.78414C149.21 7.731 149.177 8.70016 148.954 9.6339C148.731 10.5681 148.322 11.4476 147.752 12.2205L128.8 39.7547C127.722 41.3188 126.067 42.3911 124.198 42.7365ZM26.0546 15.2945C28.1112 15.4153 30.1863 15.3855 32.2554 15.3558C33.173 15.3426 34.0894 15.3295 35.0025 15.3295C36.0405 15.3295 37.0788 15.3465 38.1164 15.3635H38.1165H38.1165H38.1166H38.1167H38.1168H38.1169H38.1169C40.3985 15.4008 42.6762 15.4381 44.9376 15.2945C48.9663 15.0471 52.0154 13.3636 52.3258 8.7941C52.6087 4.58743 50.3482 1.69089 45.4678 1.37396C38.8477 0.960417 32.21 0.901403 25.5838 1.19604C21.0693 1.37396 17.9927 4.76535 18.3101 8.48416C18.7358 13.0672 21.7395 15.082 26.0546 15.2945ZM98.2933 51.6817C98.1883 47.2656 101.443 44.582 106.958 44.582C112.296 44.617 115.833 47.548 115.728 51.8212C115.585 55.8154 112.118 58.3946 106.885 58.3596C101.335 58.3246 98.4012 56.0278 98.2933 51.6817ZM24.7812 56.5227C32.065 56.2626 39.3492 56.274 46.6329 56.5577C50.5226 56.6971 52.6087 59.5237 52.6817 63.1971C52.7167 66.9788 50.5432 69.7394 46.7059 70.0878C44.1837 70.32 41.646 70.2427 39.1042 70.1653C37.8317 70.1266 36.5581 70.0878 35.285 70.0878C34.2489 70.0878 33.2081 70.1069 32.1651 70.1261H32.1648H32.1645H32.1643H32.164H32.1637H32.1634H32.1631H32.1628H32.1627H32.1626H32.1625H32.1623H32.1622H32.1621H32.162H32.1618C29.726 70.1708 27.2783 70.2157 24.8512 70.0183C20.857 69.6975 18.3101 67.1913 18.2406 63.2705C18.1532 59.2064 20.787 56.6622 24.7812 56.5227ZM1.76111 68.3138C1.76111 64.4206 4.7891 61.0991 8.6787 60.9702C9.63942 60.9378 10.5967 61.0991 11.4937 61.444C12.3907 61.7889 13.2095 62.3109 13.9002 62.9789C14.5913 63.6464 15.1408 64.4459 15.5159 65.3303C15.8914 66.2146 16.0846 67.165 16.0846 68.1254V93.8371C16.0846 94.7975 15.8914 95.7478 15.5159 96.6322C15.1408 97.5165 14.5913 98.3161 13.9002 98.9836C13.2095 99.6516 12.3907 100.174 11.4937 100.518C10.5967 100.863 9.63942 101.025 8.6787 100.992C4.7891 100.863 1.76111 97.5419 1.76111 93.6487V68.3138ZM89.0903 55.8848C85.1975 56.0138 82.1694 59.3353 82.1694 63.2285V93.6522C82.1694 97.5454 85.1975 100.867 89.0903 100.996C90.0516 101.029 91.0094 100.868 91.9068 100.523C92.8043 100.178 93.6231 99.6564 94.3147 98.9884C95.0058 98.3209 95.5557 97.5209 95.9312 96.6366C96.3067 95.7522 96.5 94.8014 96.5 93.8406V63.037C96.4995 62.0766 96.3059 61.1258 95.9299 60.2419C95.5544 59.358 95.0045 58.5584 94.3133 57.8909C93.6218 57.2238 92.803 56.7023 91.906 56.3574C91.0085 56.0129 90.0512 55.8521 89.0903 55.8848ZM125.162 61.2269C127.001 61.5058 128.66 62.4889 129.787 63.9674L147.686 89.5956C148.789 91.1413 149.234 93.0622 148.92 94.9353C148.606 96.8081 147.561 98.4802 146.013 99.5826C144.466 100.686 142.543 101.129 140.669 100.815C138.794 100.502 137.121 99.4576 136.017 97.9114L118.118 72.2662C117.088 70.7178 116.702 68.8302 117.04 67.0025C117.379 65.1748 118.415 63.5503 119.931 62.4723C121.446 61.3943 123.323 60.9475 125.162 61.2269ZM8.6787 9.85734C4.7891 9.9863 1.76111 13.3077 1.76111 17.201V50.2353C1.76111 54.125 4.7891 57.4465 8.6787 57.5789C9.6396 57.6108 10.5971 57.4491 11.4941 57.1038C12.3912 56.758 13.2095 56.236 13.9006 55.5681C14.5913 54.9001 15.1408 54.1001 15.5163 53.2158C15.8914 52.3314 16.0846 51.3806 16.0846 50.4202V17.013C16.0846 16.0526 15.8914 15.1018 15.5159 14.2174C15.1408 13.3335 14.5913 12.5336 13.9002 11.866C13.2095 11.1985 12.3907 10.6766 11.4937 10.3312C10.5967 9.9863 9.63942 9.82499 8.6787 9.85734ZM55.0366 17.1974C55.0366 13.3077 58.0643 9.98622 61.9575 9.85726C62.9184 9.82448 63.8762 9.98535 64.7736 10.3303C65.6711 10.6752 66.4903 11.1971 67.1814 11.8646C67.873 12.5322 68.4225 13.3321 68.798 14.2165C69.1735 15.1013 69.3672 16.0521 69.3672 17.0129V50.4201C69.3672 51.381 69.1735 52.3318 68.798 53.2166C68.4229 54.1014 67.873 54.9013 67.1819 55.5693C66.4903 56.2373 65.6715 56.7592 64.7741 57.1046C63.8766 57.4499 62.9188 57.6112 61.9575 57.5789C58.0643 57.4464 55.0366 54.125 55.0366 50.2352V17.1974ZM89.0903 1.01859C85.1975 1.14755 82.1694 4.469 82.1694 8.36223V41.3966C82.1694 45.2859 85.1975 48.6113 89.0903 48.7402C90.0507 48.7726 91.0076 48.6121 91.9042 48.2681C92.8013 47.9236 93.6196 47.403 94.3107 46.7363C95.0018 46.0697 95.5518 45.271 95.9282 44.388C96.3041 43.5045 96.4986 42.555 96.5 41.595V8.17382C96.5 7.21297 96.3067 6.26217 95.9312 5.37782C95.5557 4.49347 95.0058 3.6935 94.3147 3.02598C93.6231 2.35801 92.8043 1.83606 91.9068 1.49158C91.0094 1.14668 90.0516 0.985805 89.0903 1.01859Z" fill="url(#paint0_linear)"/>
<path d="M118.833 41.5951L117.982 42.83L117.984 42.8314L118.833 41.5951ZM124.198 42.7365L124.47 44.2116L124.47 44.2115L124.198 42.7365ZM115.856 37.0033L117.331 36.73L117.331 36.73L115.856 37.0033ZM116.991 31.6513L115.755 30.8007L115.754 30.8029L116.991 31.6513ZM135.947 4.1171L137.183 4.96771L137.197 4.94678L137.211 4.92537L135.947 4.1171ZM137.932 2.06819L137.085 0.830709L137.085 0.830717L137.932 2.06819ZM140.561 0.956523L140.263 -0.513689L140.262 -0.513529L140.561 0.956523ZM143.415 0.957837L143.714 -0.511949L143.714 -0.512081L143.415 0.957837ZM146.042 2.07256L145.193 3.30918L145.193 3.3095L146.042 2.07256ZM149.05 6.78414L147.571 7.0334L147.571 7.0334L149.05 6.78414ZM148.954 9.6339L147.495 9.28492L147.495 9.2857L148.954 9.6339ZM147.752 12.2205L146.545 11.3301L146.53 11.3498L146.517 11.37L147.752 12.2205ZM128.8 39.7547L130.035 40.6059L130.035 40.6052L128.8 39.7547ZM32.2554 15.3558L32.2339 13.856L32.2339 13.856L32.2554 15.3558ZM26.0546 15.2945L26.1425 13.7971L26.1354 13.7967L26.1283 13.7963L26.0546 15.2945ZM38.1164 15.3635L38.0918 16.8633L38.1041 16.8635H38.1164V15.3635ZM38.1169 15.3635L38.1415 13.8637L38.1292 13.8635H38.1169V15.3635ZM44.9376 15.2945L44.8456 13.7973L44.8425 13.7975L44.9376 15.2945ZM52.3258 8.7941L53.8224 8.89575L53.8224 8.89473L52.3258 8.7941ZM45.4678 1.37396L45.5651 -0.122893L45.5614 -0.123124L45.4678 1.37396ZM25.5838 1.19604L25.6428 2.6949L25.6504 2.69456L25.5838 1.19604ZM18.3101 8.48416L16.8155 8.61172L16.8165 8.62292L18.3101 8.48416ZM106.958 44.582L106.968 43.082H106.958V44.582ZM98.2933 51.6817L96.7937 51.7173L96.7937 51.719L98.2933 51.6817ZM115.728 51.8212L117.227 51.8748L117.228 51.8663L117.228 51.8578L115.728 51.8212ZM106.885 58.3596L106.895 56.8596L106.894 56.8596L106.885 58.3596ZM46.6329 56.5577L46.5745 58.0565L46.5792 58.0567L46.6329 56.5577ZM24.7812 56.5227L24.8336 58.0218L24.8348 58.0218L24.7812 56.5227ZM52.6817 63.1971L54.1817 63.1832L54.1816 63.1752L54.1814 63.1673L52.6817 63.1971ZM46.7059 70.0878L46.5703 68.594L46.5684 68.5941L46.7059 70.0878ZM39.1042 70.1653L39.1498 68.666L39.1498 68.666L39.1042 70.1653ZM32.1651 70.1261V71.6261H32.1789L32.1926 71.6258L32.1651 70.1261ZM32.1618 70.1261V68.6261H32.1481L32.1343 68.6263L32.1618 70.1261ZM24.8512 70.0183L24.9728 68.5233L24.9713 68.5231L24.8512 70.0183ZM18.2406 63.2705L19.7404 63.2439L19.7403 63.2383L18.2406 63.2705ZM8.6787 60.9702L8.72841 62.4693L8.72918 62.4693L8.6787 60.9702ZM13.9002 62.9789L12.8574 64.0571L12.8581 64.0578L13.9002 62.9789ZM15.5159 65.3303L14.135 65.916L14.1352 65.9165L15.5159 65.3303ZM15.5159 96.6322L14.1352 96.0459L14.135 96.0465L15.5159 96.6322ZM13.9002 98.9836L12.8581 97.9047L12.8574 97.9053L13.9002 98.9836ZM8.6787 100.992L8.72919 99.4931L8.7284 99.4931L8.6787 100.992ZM89.0903 55.8848L89.14 57.384L89.1415 57.384L89.0903 55.8848ZM89.0903 100.996L89.1414 99.4967L89.14 99.4966L89.0903 100.996ZM91.9068 100.523L91.3693 99.1224L91.3687 99.1227L91.9068 100.523ZM94.3147 98.9884L93.2726 97.9095L93.2726 97.9095L94.3147 98.9884ZM95.9312 96.6366L94.5505 96.0503L94.5505 96.0503L95.9312 96.6366ZM96.5 63.037L98 63.037L98 63.0363L96.5 63.037ZM95.9299 60.2419L94.5493 60.8284L94.5496 60.829L95.9299 60.2419ZM94.3133 57.8909L95.3554 56.812L95.3547 56.8113L94.3133 57.8909ZM91.906 56.3574L92.4443 54.9573L92.4435 54.957L91.906 56.3574ZM129.787 63.9674L131.016 63.1085L130.998 63.0829L130.98 63.058L129.787 63.9674ZM125.162 61.2269L124.936 62.7099L124.937 62.7099L125.162 61.2269ZM147.686 89.5956L146.456 90.4545L146.46 90.4609L146.465 90.4673L147.686 89.5956ZM148.92 94.9353L147.44 94.6874L147.44 94.6877L148.92 94.9353ZM146.013 99.5826L145.143 98.361L145.142 98.3611L146.013 99.5826ZM140.669 100.815L140.421 102.295L140.421 102.295L140.669 100.815ZM136.017 97.9114L134.787 98.7699L134.791 98.7765L134.796 98.7829L136.017 97.9114ZM118.118 72.2662L116.869 73.0967L116.878 73.1108L116.888 73.1247L118.118 72.2662ZM117.04 67.0025L115.565 66.7294L115.565 66.7294L117.04 67.0025ZM119.931 62.4723L119.061 61.25L119.061 61.25L119.931 62.4723ZM8.6787 9.85734L8.72841 11.3565L8.72918 11.3565L8.6787 9.85734ZM8.6787 57.5789L8.62765 59.0781L8.62892 59.0781L8.6787 57.5789ZM11.4941 57.1038L12.0331 58.5036L12.0337 58.5034L11.4941 57.1038ZM13.9006 55.5681L14.9431 56.6467L14.9434 56.6463L13.9006 55.5681ZM15.5163 53.2158L16.897 53.802L16.8973 53.8015L15.5163 53.2158ZM15.5159 14.2174L14.1351 14.8034L14.1352 14.8037L15.5159 14.2174ZM13.9002 11.866L12.8578 12.9446L12.8581 12.945L13.9002 11.866ZM11.4937 10.3312L12.0326 8.93137L12.032 8.93114L11.4937 10.3312ZM61.9575 9.85726L62.0072 11.3564L62.0087 11.3564L61.9575 9.85726ZM67.1814 11.8646L66.1394 12.9436L66.1397 12.9439L67.1814 11.8646ZM68.798 14.2165L70.1788 13.6305L70.1787 13.6302L68.798 14.2165ZM68.798 53.2166L67.4172 52.6306L67.417 52.6311L68.798 53.2166ZM67.1819 55.5693L68.224 56.6482L68.2243 56.6479L67.1819 55.5693ZM64.7741 57.1046L64.2354 55.7046L64.2354 55.7046L64.7741 57.1046ZM61.9575 57.5789L61.9065 59.078L61.9071 59.078L61.9575 57.5789ZM89.0903 1.01859L89.14 2.51777L89.1414 2.51772L89.0903 1.01859ZM89.0903 48.7402L89.1408 47.2411L89.14 47.241L89.0903 48.7402ZM91.9042 48.2681L92.4416 49.6685L92.442 49.6684L91.9042 48.2681ZM95.9282 44.388L97.308 44.9761L97.3084 44.9753L95.9282 44.388ZM96.5 41.595L98 41.5971V41.595H96.5ZM95.9312 5.37782L94.5505 5.96409L94.5505 5.96409L95.9312 5.37782ZM94.3147 3.02598L93.2726 4.10489L93.2726 4.1049L94.3147 3.02598ZM91.9068 1.49158L91.3687 2.89174L91.3693 2.89197L91.9068 1.49158ZM117.984 42.8314C119.877 44.1324 122.21 44.6285 124.47 44.2116L123.926 41.2614C122.447 41.5342 120.921 41.2094 119.682 40.3587L117.984 42.8314ZM114.381 37.2765C114.798 39.5311 116.093 41.528 117.982 42.83L119.685 40.3602C118.45 39.5088 117.604 38.2034 117.331 36.73L114.381 37.2765ZM115.754 30.8029C114.457 32.6941 113.963 35.0222 114.381 37.2766L117.331 36.73C117.058 35.2572 117.38 33.7358 118.228 32.4996L115.754 30.8029ZM134.712 3.2665L115.755 30.8007L118.226 32.5019L137.183 4.96771L134.712 3.2665ZM137.085 0.830717C136.126 1.48745 135.31 2.33027 134.684 3.30884L137.211 4.92537C137.62 4.28561 138.154 3.7348 138.78 3.30566L137.085 0.830717ZM140.262 -0.513529C139.125 -0.282685 138.044 0.173853 137.085 0.830709L138.78 3.30567C139.406 2.87665 140.113 2.5778 140.859 2.42657L140.262 -0.513529ZM143.714 -0.512081C142.575 -0.743576 141.402 -0.744088 140.263 -0.513688L140.858 2.42673C141.603 2.27594 142.371 2.27631 143.116 2.42775L143.714 -0.512081ZM146.891 0.83595C145.933 0.178277 144.853 -0.279949 143.714 -0.511949L143.115 2.42762C143.86 2.57944 144.567 2.87923 145.193 3.30918L146.891 0.83595ZM149.29 3.3158C148.665 2.33638 147.849 1.49291 146.89 0.835624L145.193 3.3095C145.82 3.73896 146.353 4.29 146.761 4.92978L149.29 3.3158ZM150.529 6.53488C150.336 5.38952 149.915 4.29496 149.29 3.3158L146.761 4.92978C147.169 5.56981 147.445 6.28503 147.571 7.0334L150.529 6.53488ZM150.413 9.98289C150.683 8.85255 150.722 7.67992 150.529 6.53488L147.571 7.0334C147.697 7.78208 147.671 8.54776 147.495 9.28492L150.413 9.98289ZM148.959 13.1109C149.649 12.1761 150.143 11.1122 150.413 9.9821L147.495 9.2857C147.319 10.024 146.996 10.7191 146.545 11.3301L148.959 13.1109ZM130.035 40.6052L148.988 13.071L146.517 11.37L127.564 38.9042L130.035 40.6052ZM124.47 44.2115C126.73 43.794 128.731 42.4975 130.035 40.6059L127.565 38.9034C126.712 40.1401 125.403 40.9883 123.925 41.2614L124.47 44.2115ZM32.2339 13.856C30.1553 13.8858 28.1352 13.9142 26.1425 13.7971L25.9666 16.7919C28.0871 16.9165 30.2172 16.8852 32.2769 16.8556L32.2339 13.856ZM35.0025 13.8295C34.0768 13.8295 33.1496 13.8428 32.2339 13.856L32.2769 16.8556C33.1964 16.8424 34.102 16.8295 35.0025 16.8295V13.8295ZM38.1409 13.8637C37.1054 13.8467 36.0548 13.8295 35.0025 13.8295V16.8295C36.0262 16.8295 37.0522 16.8462 38.0918 16.8633L38.1409 13.8637ZM38.1165 13.8635H38.1164V16.8635H38.1165V13.8635ZM38.1165 13.8635H38.1165V16.8635H38.1165V13.8635ZM38.1166 13.8635H38.1165V16.8635H38.1166V13.8635ZM38.1167 13.8635H38.1166V16.8635H38.1167V13.8635ZM38.1168 13.8635H38.1167V16.8635H38.1168V13.8635ZM38.1169 13.8635H38.1168V16.8635H38.1169V13.8635ZM38.1169 13.8635H38.1169V16.8635H38.1169V13.8635ZM44.8425 13.7975C42.6509 13.9367 40.4333 13.9012 38.1415 13.8637L38.0924 16.8633C40.3636 16.9005 42.7015 16.9395 45.0327 16.7915L44.8425 13.7975ZM50.8293 8.69245C50.6978 10.6274 50.016 11.7668 49.1005 12.4847C48.1303 13.2454 46.7049 13.6831 44.8456 13.7973L45.0295 16.7917C47.199 16.6584 49.3126 16.1307 50.9516 14.8455C52.6455 13.5174 53.6434 11.5304 53.8224 8.89575L50.8293 8.69245ZM45.3706 2.87081C47.5352 3.01137 48.9016 3.70514 49.7091 4.61876C50.5165 5.53232 50.9514 6.87628 50.8292 8.69348L53.8224 8.89473C53.9831 6.50525 53.4291 4.29761 51.9569 2.632C50.4848 0.966441 48.2808 0.053476 45.5651 -0.122889L45.3706 2.87081ZM25.6504 2.69456C32.2234 2.40229 38.8076 2.46083 45.3743 2.87104L45.5614 -0.123124C38.8878 -0.540001 32.1967 -0.599486 25.5171 -0.302479L25.6504 2.69456ZM19.8046 8.35662C19.5712 5.62148 21.8453 2.84454 25.6428 2.69488L25.5247 -0.302796C20.2934 -0.096624 16.4142 3.90921 16.8155 8.61171L19.8046 8.35662ZM26.1283 13.7963C24.1679 13.6998 22.6889 13.201 21.6757 12.369C20.6955 11.5642 19.9864 10.3131 19.8036 8.34541L16.8165 8.62292C17.0595 11.2383 18.0651 13.2861 19.772 14.6876C21.4458 16.0619 23.6261 16.6767 25.9808 16.7927L26.1283 13.7963ZM106.958 43.082C103.979 43.082 101.408 43.8051 99.5667 45.3164C97.6821 46.8631 96.7315 49.099 96.7937 51.7173L99.7928 51.6461C99.7501 49.8484 100.375 48.5344 101.47 47.6353C102.609 46.7008 104.423 46.082 106.958 46.082V43.082ZM117.228 51.8578C117.291 49.2597 116.232 47.0194 114.34 45.456C112.476 43.9157 109.897 43.1012 106.968 43.082L106.949 46.082C109.357 46.0977 111.216 46.7663 112.428 47.7686C113.613 48.7477 114.27 50.1095 114.229 51.7845L117.228 51.8578ZM106.875 59.8596C109.724 59.8786 112.243 59.1881 114.108 57.8068C116.006 56.4009 117.139 54.3373 117.227 51.8748L114.229 51.7675C114.175 53.2992 113.502 54.5223 112.323 55.3959C111.11 56.294 109.278 56.8756 106.895 56.8596L106.875 59.8596ZM96.7937 51.719C96.8566 54.2507 97.7655 56.3715 99.6267 57.8208C101.43 59.225 103.927 59.841 106.875 59.8596L106.894 56.8596C104.292 56.8432 102.548 56.2933 101.47 55.4538C100.45 54.6595 99.8379 53.4589 99.7928 51.6445L96.7937 51.719ZM46.6913 55.0588C39.3702 54.7736 32.0487 54.7622 24.7277 55.0237L24.8348 58.0218C32.0813 57.763 39.3281 57.7743 46.5745 58.0565L46.6913 55.0588ZM54.1814 63.1673C54.1396 61.0648 53.5188 59.0786 52.2262 57.5745C50.9124 56.0457 49.0112 55.142 46.6866 55.0586L46.5792 58.0567C48.1444 58.1128 49.231 58.6921 49.951 59.5298C50.6921 60.3922 51.1508 61.656 51.182 63.2269L54.1814 63.1673ZM46.8415 71.5817C49.106 71.3761 50.9899 70.4398 52.292 68.8977C53.584 67.3676 54.2018 65.3627 54.1817 63.1832L51.1818 63.2109C51.1966 64.8132 50.7452 66.0795 49.9998 66.9622C49.2646 67.8329 48.1431 68.4512 46.5703 68.594L46.8415 71.5817ZM39.0585 71.6646C41.5847 71.7416 44.2145 71.8235 46.8434 71.5815L46.5684 68.5941C44.1529 68.8165 41.7073 68.7439 39.1498 68.666L39.0585 71.6646ZM35.285 71.5878C36.5315 71.5878 37.7822 71.6258 39.0585 71.6646L39.1498 68.666C37.8811 68.6274 36.5848 68.5878 35.285 68.5878V71.5878ZM32.1926 71.6258C33.238 71.6066 34.265 71.5878 35.285 71.5878V68.5878C34.2328 68.5878 33.1782 68.6072 32.1376 68.6263L32.1926 71.6258ZM32.1648 71.6261H32.1651V68.6261H32.1648V71.6261ZM32.1645 71.6261H32.1648V68.6261H32.1645V71.6261ZM32.1643 71.6261H32.1645V68.6261H32.1643V71.6261ZM32.164 71.6261H32.1643V68.6261H32.164V71.6261ZM32.1637 71.6261H32.164V68.6261H32.1637V71.6261ZM32.1634 71.6261H32.1637V68.6261H32.1634V71.6261ZM32.1631 71.6261H32.1634V68.6261H32.1631V71.6261ZM32.1628 71.6261H32.1631V68.6261H32.1628V71.6261ZM32.1627 71.6261H32.1628V68.6261H32.1627V71.6261ZM32.1626 71.6261H32.1627V68.6261H32.1626V71.6261ZM32.1625 71.6261H32.1626V68.6261H32.1625V71.6261ZM32.1623 71.6261H32.1625V68.6261H32.1623V71.6261ZM32.1622 71.6261H32.1623V68.6261H32.1622V71.6261ZM32.1621 71.6261H32.1622V68.6261H32.1621V71.6261ZM32.162 71.6261H32.1621V68.6261H32.162V71.6261ZM32.1618 71.6261H32.162V68.6261H32.1618V71.6261ZM24.7296 71.5134C27.2436 71.7178 29.7662 71.6703 32.1894 71.6258L32.1343 68.6263C29.6857 68.6713 27.313 68.7136 24.9728 68.5233L24.7296 71.5134ZM16.7409 63.2971C16.7815 65.5889 17.5558 67.582 19.0079 69.0495C20.4522 70.5089 22.4489 71.3302 24.7311 71.5135L24.9713 68.5231C23.2592 68.3856 21.9854 67.7933 21.1404 66.9393C20.3032 66.0933 19.7693 64.8729 19.7404 63.2439L16.7409 63.2971ZM24.7289 55.0236C22.4257 55.104 20.3783 55.8868 18.9129 57.371C17.4395 58.8632 16.6899 60.9283 16.741 63.3028L19.7403 63.2383C19.7039 61.5486 20.2275 60.3095 21.0477 59.4787C21.876 58.6399 23.1426 58.0808 24.8336 58.0218L24.7289 55.0236ZM8.629 59.471C3.88029 59.6284 0.261108 63.6629 0.261108 68.3138H3.26111C3.26111 65.1782 5.69791 62.5698 8.72841 62.4693L8.629 59.471ZM12.032 60.044C10.9476 59.627 9.79008 59.4319 8.62822 59.471L8.72918 62.4693C9.48876 62.4437 10.2458 62.5713 10.9554 62.8441L12.032 60.044ZM14.943 61.9006C14.1072 61.0923 13.1168 60.461 12.032 60.044L10.9554 62.8441C11.6647 63.1168 12.3118 63.5295 12.8574 64.0571L14.943 61.9006ZM16.8968 64.7446C16.443 63.6745 15.7782 62.7073 14.9423 61.8999L12.8581 64.0578C13.4045 64.5855 13.8387 65.2173 14.135 65.916L16.8968 64.7446ZM17.5846 68.1254C17.5846 66.9637 17.3509 65.8139 16.8966 64.744L14.1352 65.9165C14.4319 66.6153 14.5846 67.3663 14.5846 68.1254H17.5846ZM17.5846 93.8371V68.1254H14.5846V93.8371H17.5846ZM16.8966 97.2185C17.3509 96.1485 17.5846 94.9988 17.5846 93.8371H14.5846C14.5846 94.5962 14.4319 95.3472 14.1352 96.0459L16.8966 97.2185ZM14.9423 100.063C15.7782 99.2552 16.443 98.2879 16.8968 97.2179L14.135 96.0465C13.8387 96.7452 13.4045 97.377 12.8581 97.9047L14.9423 100.063ZM12.032 101.919C13.1168 101.501 14.1072 100.87 14.943 100.062L12.8574 97.9053C12.3118 98.433 11.6647 98.8456 10.9554 99.1184L12.032 101.919ZM8.62821 102.491C9.79008 102.531 10.9476 102.335 12.032 101.919L10.9554 99.1184C10.2458 99.3912 9.48877 99.5187 8.72919 99.4931L8.62821 102.491ZM0.261108 93.6487C0.261108 98.2995 3.88028 102.334 8.629 102.491L8.7284 99.4931C5.69791 99.3926 3.26111 96.7843 3.26111 93.6487H0.261108ZM0.261108 68.3138V93.6487H3.26111V68.3138H0.261108ZM83.6694 63.2285C83.6694 60.0933 86.1059 57.4845 89.14 57.384L89.0407 54.3857C84.2892 54.5431 80.6694 58.5772 80.6694 63.2285H83.6694ZM83.6694 93.6522V63.2285H80.6694V93.6522H83.6694ZM89.14 99.4966C86.1059 99.3961 83.6694 96.7873 83.6694 93.6522H80.6694C80.6694 98.3035 84.2892 102.338 89.0407 102.495L89.14 99.4966ZM91.3687 99.1227C90.6591 99.3954 89.9017 99.5226 89.1414 99.4967L89.0392 102.495C90.2015 102.535 91.3597 102.34 92.4449 101.923L91.3687 99.1227ZM93.2726 97.9095C92.7257 98.4377 92.0785 98.8502 91.3693 99.1224L92.4443 101.923C93.5302 101.506 94.5205 100.875 95.3567 100.067L93.2726 97.9095ZM94.5505 96.0503C94.2537 96.7493 93.819 97.3818 93.2726 97.9095L95.3567 100.067C96.1926 99.2601 96.8577 98.2926 97.3119 97.2228L94.5505 96.0503ZM95 93.8406C95 94.6003 94.8472 95.3517 94.5505 96.0503L97.3119 97.2228C97.7663 96.1528 98 95.0026 98 93.8406H95ZM95 63.037V93.8406H98V63.037H95ZM94.5496 60.829C94.8465 61.5271 94.9996 62.2784 95 63.0377L98 63.0363C97.9994 61.8748 97.7652 60.7245 97.3103 59.6548L94.5496 60.829ZM93.2713 58.9698C93.8179 59.4978 94.2526 60.13 94.5493 60.8284L97.3105 59.6554C96.8562 58.586 96.191 57.6191 95.3554 56.812L93.2713 58.9698ZM91.3677 57.7575C92.0773 58.0304 92.725 58.4429 93.272 58.9705L95.3547 56.8113C94.5185 56.0047 93.5287 55.3743 92.4443 54.9573L91.3677 57.7575ZM89.1415 57.384C89.9012 57.3581 90.6584 57.4852 91.3685 57.7578L92.4435 54.957C91.3587 54.5406 90.2012 54.3461 89.0392 54.3857L89.1415 57.384ZM130.98 63.058C129.617 61.2699 127.611 60.0811 125.386 59.7438L124.937 62.7099C126.391 62.9305 127.703 63.7079 128.594 64.8767L130.98 63.058ZM148.915 88.7367L131.016 63.1085L128.557 64.8262L146.456 90.4545L148.915 88.7367ZM150.399 95.1832C150.779 92.9171 150.241 90.5935 148.906 88.7239L146.465 90.4673C147.337 91.6891 147.688 93.2072 147.44 94.6874L150.399 95.1832ZM146.883 100.804C148.755 99.471 150.02 97.4485 150.399 95.1829L147.44 94.6877C147.193 96.1676 146.366 97.4894 145.143 98.361L146.883 100.804ZM140.421 102.295C142.688 102.674 145.012 102.138 146.884 100.804L145.142 98.3611C143.919 99.2332 142.399 99.5839 140.916 99.3359L140.421 102.295ZM134.796 98.7829C136.131 100.653 138.155 101.916 140.421 102.295L140.916 99.3359C139.433 99.088 138.11 98.2621 137.238 97.0399L134.796 98.7829ZM116.888 73.1247L134.787 98.7699L137.247 97.0529L119.348 71.4077L116.888 73.1247ZM115.565 66.7294C115.156 68.9405 115.624 71.2239 116.869 73.0967L119.367 71.4357C118.553 70.2117 118.248 68.7199 118.515 67.2755L115.565 66.7294ZM119.061 61.25C117.228 62.5536 115.975 64.5184 115.565 66.7294L118.515 67.2755C118.783 65.8311 119.602 64.547 120.8 63.6946L119.061 61.25ZM125.387 59.7439C123.163 59.4061 120.894 59.9463 119.061 61.25L120.8 63.6946C121.998 62.8423 123.482 62.489 124.936 62.7099L125.387 59.7439ZM3.26111 17.201C3.26111 14.0654 5.69791 11.457 8.72841 11.3565L8.629 8.35817C3.88028 8.51561 0.261108 12.5501 0.261108 17.201H3.26111ZM3.26111 50.2353V17.201H0.261108V50.2353H3.26111ZM8.72975 56.0798C5.69746 55.9765 3.26111 53.3667 3.26111 50.2353H0.261108C0.261108 54.8834 3.88073 58.9164 8.62765 59.0781L8.72975 56.0798ZM10.9552 55.7039C10.2456 55.9771 9.48831 56.105 8.72849 56.0798L8.62892 59.0781C9.79088 59.1167 10.9486 58.9211 12.0331 58.5036L10.9552 55.7039ZM12.8582 54.4895C12.3118 55.0176 11.6646 55.4305 10.9546 55.7042L12.0337 58.5034C13.1178 58.0855 14.1072 57.4545 14.9431 56.6467L12.8582 54.4895ZM14.1357 52.6295C13.8387 53.3288 13.4041 53.9615 12.8579 54.4898L14.9434 56.6463C15.7785 55.8387 16.443 54.8714 16.897 53.802L14.1357 52.6295ZM14.5846 50.4202C14.5846 51.1795 14.4319 51.9311 14.1354 52.6301L16.8973 53.8015C17.3509 52.7318 17.5846 51.5818 17.5846 50.4202H14.5846ZM14.5846 17.013V50.4202H17.5846V17.013H14.5846ZM14.1352 14.8037C14.4319 15.5024 14.5846 16.2538 14.5846 17.013H17.5846C17.5846 15.8514 17.3509 14.7012 16.8966 13.6312L14.1352 14.8037ZM12.8581 12.945C13.4043 13.4725 13.8386 14.1048 14.1351 14.8034L16.8967 13.6315C16.443 12.5623 15.7784 11.5946 14.9423 10.7871L12.8581 12.945ZM10.9548 11.7311C11.6646 12.0043 12.312 12.4172 12.8578 12.9446L14.9426 10.7874C14.107 9.97983 13.1169 9.34879 12.0326 8.93137L10.9548 11.7311ZM8.72918 11.3565C9.48876 11.3309 10.2458 11.4584 10.9554 11.7313L12.032 8.93114C10.9476 8.51416 9.79009 8.31907 8.62822 8.35819L8.72918 11.3565ZM61.9079 8.35808C57.1563 8.51547 53.5366 12.5492 53.5366 17.1974H56.5366C56.5366 14.0661 58.9723 11.457 62.0072 11.3564L61.9079 8.35808ZM65.3117 8.9301C64.2265 8.51302 63.0683 8.31849 61.9064 8.35813L62.0087 11.3564C62.7685 11.3305 63.5258 11.4577 64.2355 11.7304L65.3117 8.9301ZM68.2235 10.7857C67.3875 9.97821 66.3968 9.3471 65.3117 8.9301L64.2355 11.7304C64.9454 12.0032 65.5932 12.416 66.1394 12.9436L68.2235 10.7857ZM70.1787 13.6302C69.7246 12.5608 69.06 11.5931 68.2232 10.7854L66.1397 12.9439C66.686 13.4712 67.1204 14.1034 67.4173 14.8028L70.1787 13.6302ZM70.8672 17.0129C70.8672 15.8504 70.6329 14.7004 70.1788 13.6305L67.4172 14.8025C67.7142 15.5022 67.8672 16.2537 67.8672 17.0129H70.8672ZM70.8672 50.4201V17.0129H67.8672V50.4201H70.8672ZM70.1788 53.8026C70.6329 52.7327 70.8672 51.5826 70.8672 50.4201H67.8672C67.8672 51.1793 67.7142 51.9309 67.4172 52.6306L70.1788 53.8026ZM68.2243 56.6479C69.0599 55.8404 69.7251 54.8728 70.1791 53.802L67.417 52.6311C67.1207 53.3299 66.6862 53.9623 66.1395 54.4907L68.2243 56.6479ZM65.3128 58.5045C66.3977 58.087 67.3877 57.456 68.224 56.6482L66.1398 54.4904C65.5929 55.0186 64.9454 55.4314 64.2354 55.7046L65.3128 58.5045ZM61.9071 59.078C63.0694 59.1171 64.2275 58.9221 65.3128 58.5045L64.2354 55.7046C63.5257 55.9777 62.7682 56.1053 62.008 56.0797L61.9071 59.078ZM53.5366 50.2352C53.5366 54.8838 57.1563 58.9164 61.9065 59.078L62.0085 56.0797C58.9723 55.9764 56.5366 53.3662 56.5366 50.2352H53.5366ZM53.5366 17.1974V50.2352H56.5366V17.1974H53.5366ZM83.6694 8.36223C83.6694 5.22707 86.1059 2.61828 89.14 2.51777L89.0407 -0.480587C84.2892 -0.323182 80.6694 3.71093 80.6694 8.36223H83.6694ZM83.6694 41.3966V8.36223H80.6694V41.3966H83.6694ZM89.14 47.241C86.1064 47.1405 83.6694 44.5283 83.6694 41.3966H80.6694C80.6694 46.0434 84.2887 50.082 89.0407 50.2394L89.14 47.241ZM91.3669 46.8677C90.658 47.1397 89.901 47.2667 89.1408 47.2411L89.0398 50.2394C90.2005 50.2785 91.3573 50.0846 92.4416 49.6685L91.3669 46.8677ZM93.2693 45.6567C92.7232 46.1835 92.0763 46.5952 91.3665 46.8678L92.442 49.6684C93.5262 49.252 94.5159 48.6225 95.3521 47.8159L93.2693 45.6567ZM94.5483 43.7998C94.2506 44.4981 93.8158 45.1297 93.2693 45.6567L95.3521 47.8159C96.1879 47.0097 96.8529 46.0439 97.308 44.9761L94.5483 43.7998ZM95 41.593C94.9989 42.3515 94.8452 43.102 94.5479 43.8006L97.3084 44.9753C97.763 43.907 97.9984 42.7585 98 41.5971L95 41.593ZM95 8.17382V41.595H98V8.17382H95ZM94.5505 5.96409C94.8472 6.66274 95 7.41413 95 8.17382H98C98 7.01182 97.7663 5.86161 97.3119 4.79156L94.5505 5.96409ZM93.2726 4.1049C93.819 4.63265 94.2537 5.2651 94.5505 5.96409L97.3119 4.79156C96.8577 3.72185 96.1926 2.75435 95.3567 1.94705L93.2726 4.1049ZM91.3693 2.89197C92.0785 3.16415 92.7257 3.57668 93.2726 4.10489L95.3567 1.94706C94.5205 1.13935 93.5302 0.507962 92.4444 0.0911962L91.3693 2.89197ZM89.1414 2.51772C89.9017 2.49179 90.6591 2.61902 91.3687 2.89174L92.4449 0.0914261C91.3597 -0.325669 90.2015 -0.52018 89.0392 -0.480537L89.1414 2.51772Z" fill="white"/>
<defs>
<linearGradient id="paint0_linear" x1="155.067" y1="-7.22921" x2="33.2094" y2="140.031" gradientUnits="userSpaceOnUse">
<stop stop-color="#02A8D9"/>
<stop offset="0.396168" stop-color="#5682E8"/>
<stop offset="0.918893" stop-color="#E23FFD"/>
</linearGradient>
</defs>
</svg>
