<svg width="150" height="105" viewBox="0 0 150 105" fill="none" xmlns="http://www.w3.org/2000/svg">
<g clip-path="url(#clip0)">
<rect width="150" height="105" fill="white"/>
<path fill-rule="evenodd" clip-rule="evenodd" d="M124.198 42.7365C122.328 43.0814 120.399 42.6709 118.833 41.5951C117.272 40.5184 116.201 38.8673 115.856 37.0033C115.51 35.1397 115.919 33.215 116.991 31.6513L135.947 4.1171C136.465 3.30794 137.14 2.61113 137.932 2.06819C138.725 1.52525 139.619 1.14756 140.561 0.956523C141.503 0.765926 142.473 0.766366 143.415 0.957837C144.356 1.14974 145.25 1.52875 146.042 2.07256C146.834 2.61594 147.509 3.31319 148.025 4.12279C148.542 4.93238 148.89 5.83728 149.05 6.78414C149.21 7.731 149.177 8.70016 148.954 9.6339C148.731 10.5681 148.322 11.4476 147.752 12.2205L128.8 39.7547C127.722 41.3188 126.067 42.3911 124.198 42.7365ZM26.0546 15.2945C28.1112 15.4153 30.1863 15.3855 32.2554 15.3558C33.173 15.3426 34.0894 15.3295 35.0025 15.3295C36.0405 15.3295 37.0788 15.3465 38.1164 15.3635H38.1165H38.1165H38.1166H38.1167H38.1168H38.1169H38.1169C40.3985 15.4008 42.6762 15.4381 44.9376 15.2945C48.9663 15.0471 52.0154 13.3636 52.3258 8.7941C52.6087 4.58743 50.3482 1.69089 45.4678 1.37396C38.8477 0.960417 32.21 0.901403 25.5838 1.19604C21.0693 1.37396 17.9927 4.76535 18.3101 8.48416C18.7358 13.0672 21.7395 15.082 26.0546 15.2945ZM98.2933 51.6817C98.1883 47.2656 101.443 44.582 106.958 44.582C112.296 44.617 115.833 47.548 115.728 51.8212C115.585 55.8154 112.118 58.3946 106.885 58.3596C101.335 58.3246 98.4012 56.0278 98.2933 51.6817ZM24.7812 56.5227C32.065 56.2626 39.3492 56.274 46.6329 56.5577C50.5226 56.6971 52.6087 59.5237 52.6817 63.1971C52.7167 66.9788 50.5432 69.7394 46.7059 70.0878C44.1837 70.32 41.646 70.2427 39.1042 70.1653C37.8317 70.1266 36.5581 70.0878 35.285 70.0878C34.2489 70.0878 33.2081 70.1069 32.1651 70.1261H32.1648H32.1645H32.1643H32.164H32.1637H32.1634H32.1631H32.1628H32.1627H32.1626H32.1625H32.1623H32.1622H32.1621H32.162H32.1618C29.726 70.1708 27.2783 70.2157 24.8512 70.0183C20.857 69.6975 18.3101 67.1913 18.2406 63.2705C18.1532 59.2064 20.787 56.6622 24.7812 56.5227ZM1.76111 68.3138C1.76111 64.4206 4.7891 61.0991 8.6787 60.9702C9.63942 60.9378 10.5967 61.0991 11.4937 61.444C12.3907 61.7889 13.2095 62.3109 13.9002 62.9789C14.5913 63.6464 15.1408 64.4459 15.5159 65.3303C15.8914 66.2146 16.0846 67.165 16.0846 68.1254V93.8371C16.0846 94.7975 15.8914 95.7478 15.5159 96.6322C15.1408 97.5165 14.5913 98.3161 13.9002 98.9836C13.2095 99.6516 12.3907 100.174 11.4937 100.518C10.5967 100.863 9.63942 101.025 8.6787 100.992C4.7891 100.863 1.76111 97.5419 1.76111 93.6487V68.3138ZM89.0903 55.8848C85.1975 56.0138 82.1694 59.3353 82.1694 63.2285V93.6522C82.1694 97.5454 85.1975 100.867 89.0903 100.996C90.0516 101.029 91.0094 100.868 91.9068 100.523C92.8043 100.178 93.6231 99.6564 94.3147 98.9884C95.0058 98.3209 95.5557 97.5209 95.9312 96.6366C96.3067 95.7522 96.5 94.8014 96.5 93.8406V63.037C96.4995 62.0766 96.3059 61.1258 95.9299 60.2419C95.5544 59.358 95.0045 58.5584 94.3133 57.8909C93.6218 57.2238 92.803 56.7023 91.906 56.3574C91.0085 56.0129 90.0512 55.8521 89.0903 55.8848ZM125.162 61.2269C127.001 61.5058 128.66 62.4889 129.787 63.9674L147.686 89.5956C148.789 91.1413 149.234 93.0622 148.92 94.9353C148.606 96.8081 147.561 98.4802 146.013 99.5826C144.466 100.686 142.543 101.129 140.669 100.815C138.794 100.502 137.121 99.4576 136.017 97.9114L118.118 72.2662C117.088 70.7178 116.702 68.8302 117.04 67.0025C117.379 65.1748 118.415 63.5503 119.931 62.4723C121.446 61.3943 123.323 60.9475 125.162 61.2269ZM8.6787 9.85734C4.7891 9.9863 1.76111 13.3077 1.76111 17.201V50.2353C1.76111 54.125 4.7891 57.4465 8.6787 57.5789C9.6396 57.6108 10.5971 57.4491 11.4941 57.1038C12.3912 56.758 13.2095 56.236 13.9006 55.5681C14.5913 54.9001 15.1408 54.1001 15.5163 53.2158C15.8914 52.3314 16.0846 51.3806 16.0846 50.4202V17.013C16.0846 16.0526 15.8914 15.1018 15.5159 14.2174C15.1408 13.3335 14.5913 12.5336 13.9002 11.866C13.2095 11.1985 12.3907 10.6766 11.4937 10.3312C10.5967 9.9863 9.63942 9.82499 8.6787 9.85734ZM55.0366 17.1974C55.0366 13.3077 58.0643 9.98622 61.9575 9.85726C62.9184 9.82448 63.8762 9.98535 64.7736 10.3303C65.6711 10.6752 66.4903 11.1971 67.1814 11.8646C67.873 12.5322 68.4225 13.3321 68.798 14.2165C69.1735 15.1013 69.3672 16.0521 69.3672 17.0129V50.4201C69.3672 51.381 69.1735 52.3318 68.798 53.2166C68.4229 54.1014 67.873 54.9013 67.1819 55.5693C66.4903 56.2373 65.6715 56.7592 64.7741 57.1046C63.8766 57.4499 62.9188 57.6112 61.9575 57.5789C58.0643 57.4464 55.0366 54.125 55.0366 50.2352V17.1974ZM89.0903 1.01859C85.1975 1.14755 82.1694 4.469 82.1694 8.36223V41.3966C82.1694 45.2859 85.1975 48.6113 89.0903 48.7402C90.0507 48.7726 91.0076 48.6121 91.9042 48.2681C92.8013 47.9236 93.6196 47.403 94.3107 46.7363C95.0018 46.0697 95.5518 45.271 95.9282 44.388C96.3041 43.5045 96.4986 42.555 96.5 41.595V8.17382C96.5 7.21297 96.3067 6.26217 95.9312 5.37782C95.5557 4.49347 95.0058 3.6935 94.3147 3.02598C93.6231 2.35801 92.8043 1.83606 91.9068 1.49158C91.0094 1.14668 90.0516 0.985805 89.0903 1.01859Z" fill="url(#paint0_linear)"/>
</g>
<defs>
<linearGradient id="paint0_linear" x1="155.067" y1="-7.22921" x2="33.2094" y2="140.031" gradientUnits="userSpaceOnUse">
<stop stop-color="#02A8D9"/>
<stop offset="0.396168" stop-color="#5682E8"/>
<stop offset="0.918893" stop-color="#E23FFD"/>
</linearGradient>
<clipPath id="clip0">
<rect width="150" height="105" fill="white"/>
</clipPath>
</defs>
</svg>
