<?xml version="1.0" encoding="utf-8"?>
<!-- Generator: Adobe Illustrator 19.0.0, SVG Export Plug-In . SVG Version: 6.00 Build 0)  -->
<svg version="1.1" xmlns="http://www.w3.org/2000/svg" xmlns:xlink="http://www.w3.org/1999/xlink" x="0px" y="0px"
	 viewBox="0 0 18.1 34.8" style="enable-background:new 0 0 18.1 34.8;" xml:space="preserve">
<style type="text/css">
	.st0{clip-path:url(#SVGID_2_);fill:#DC143C;}
	.st1{clip-path:url(#SVGID_2_);fill:none;stroke:#DC143C;stroke-linecap:round;stroke-linejoin:round;stroke-miterlimit:10;}
</style>
<g>
	<defs>
		<rect id="SVGID_1_" y="0" width="18.1" height="34.8"/>
	</defs>
	<clipPath id="SVGID_2_">
		<use xlink:href="#SVGID_1_"  style="overflow:visible;"/>
	</clipPath>
	<path class="st0" d="M9.4,0.7c0-0.1-0.1-0.1-0.2-0.2L9.1,0.5c0,0,0,0-0.1,0c0,0,0,0-0.1,0L8.9,0.6c-0.1,0-0.1,0.1-0.2,0.2L0.5,9.3
		v24.6c0,0.2,0.2,0.4,0.4,0.4h8c0,0,0,0,0.1,0c0,0,0,0,0.1,0h8c0.2,0,0.4-0.2,0.4-0.4V9.3L9.4,0.7z"/>
	<path class="st1" d="M9.4,0.7c0-0.1-0.1-0.1-0.2-0.2L9.1,0.5c0,0,0,0-0.1,0c0,0,0,0-0.1,0L8.9,0.6c-0.1,0-0.1,0.1-0.2,0.2L0.5,9.3
		v24.6c0,0.2,0.2,0.4,0.4,0.4h8c0,0,0,0,0.1,0c0,0,0,0,0.1,0h8c0.2,0,0.4-0.2,0.4-0.4V9.3L9.4,0.7z"/>
</g>
</svg>
