<?xml version="1.0" encoding="UTF-8"?>
<svg xmlns="http://www.w3.org/2000/svg" xmlns:xlink="http://www.w3.org/1999/xlink" width="13pt" height="25pt" viewBox="0 0 13 25" version="1.1">
  <defs>
    <clipPath id="clip1">
      <path d="M 0 0.140625 L 13 0.140625 L 13 24.859375 L 0 24.859375 Z M 0 0.140625 "/>
    </clipPath>
  </defs>
  <g id="surface1">
    <g clip-path="url(#clip1)" clip-rule="nonzero">
      <path style="fill-rule:nonzero;fill:rgb(100%,55.294118%,63.137255%);fill-opacity:1;stroke-width:1;stroke-linecap:round;stroke-linejoin:round;stroke:rgb(100%,55.294118%,63.137255%);stroke-opacity:1;stroke-miterlimit:10;" d="M 9.398077 0.699136 C 9.398077 0.600152 9.30018 0.600152 9.202284 0.501168 L 9.098948 0.501168 C 9.098948 0.501168 9.098948 0.501168 9.001052 0.501168 C 9.001052 0.501168 9.001052 0.501168 8.897716 0.501168 L 8.897716 0.600152 C 8.79982 0.600152 8.79982 0.699136 8.701923 0.798121 L 0.500361 9.299779 L 0.500361 33.897396 C 0.500361 34.100864 0.701593 34.298832 0.897386 34.298832 L 8.897716 34.298832 C 8.897716 34.298832 8.897716 34.298832 9.001052 34.298832 C 9.001052 34.298832 9.001052 34.298832 9.098948 34.298832 L 17.099279 34.298832 C 17.300511 34.298832 17.501743 34.100864 17.501743 33.897396 L 17.501743 9.299779 Z M 9.398077 0.699136 " transform="matrix(0.718232,0,0,0.710339,0,0.140095)"/>
    </g>
  </g>
</svg>
