<svg xmlns="http://www.w3.org/2000/svg" width="256.44" height="200.03" viewBox="0 0 256.44 200.03">
  <defs>
    <style>
      .a {
        fill: #fff;
      }
    </style>
  </defs>
  <title>cutting-splitting</title>
  <g>
    <path class="a" d="M110.25,105.24a5,5,0,0,0-5.12-.2Q55,128.83,4.72,152.46L0,154.62l7.64-1.89,108-27.07L138,120.07C128.41,115,119.29,110.17,110.25,105.24Z" transform="translate(0 -0.01)"/>
    <path class="a" d="M153.34,83.73c5.12-3.66,9.86-7,14.55-10.45.89-.65,1.28-.39,1.81.39q3.65,5.3,7.39,10.49a1.48,1.48,0,0,1,.06,2c-2.05,2.83-4,5.7-6.14,8.68-1.79-7-7.55-8.24-13.1-9.78C156.52,84.73,155.15,84.28,153.34,83.73Z" transform="translate(0 -0.01)"/>
    <path class="a" d="M178.41,116.2q-6.63-11.2-13.13-22.45a4.26,4.26,0,0,0-2.65-2.06c-10.23-3.17-20.45-6.4-30.68-9.61L16.49,45.89C13.27,44.88,10,44,6.8,43l-2.91-.86L9,44.91l99.18,54c19.86,10.81,39.75,21.57,59.56,32.49,2.39,1.32,3.39.88,4.56-1.38,1.83-3.55,3.92-7,6.06-10.34A2.87,2.87,0,0,0,178.41,116.2Zm-30.27-8.49c-3.21-.07-5.78-3.12-5.77-6.85s2.54-6.72,5.86-6.7,6,2.92,6,6.63S151.43,107.78,148.14,107.71Z" transform="translate(0 -0.01)"/>
    <path class="a" d="M246.49,13.71c-10-15.16-27.52-18.1-41.91-7a58.66,58.66,0,0,0-12.81,14c-8.68,12.86-13.64,27.3-18.1,42-1.22,4-1.09,7.26,1.84,10.38a17.7,17.7,0,0,1,3.14,4.57c2,4.3,5,5.3,9.75,4.65,15.31-2.11,30.23-5.26,43.43-13.76,12.45-8,20.26-19,20.82-34.31A37.84,37.84,0,0,0,246.49,13.71ZM224.36,57.94a29.31,29.31,0,0,1-14.61,5.45c-10.71.87-18-6.4-17.16-17.14,1.14-14.46,15.32-29.57,29.64-31.6,11.22-1.58,18.94,4.78,18.87,17.68C240.23,42.29,234,51.19,224.36,57.94Z" transform="translate(0 -0.01)"/>
    <path class="a" d="M255.41,157.33c-3.59-14.11-13.23-22.83-25.92-28.66-12.35-5.67-25.53-7.64-39-8.32a21.92,21.92,0,0,1-3.8,0c-2.48-.41-3.87.58-5,2.78-1.9,3.62-4.12,7.08-6.31,10.54a4.09,4.09,0,0,0-.44,3.83c3.7,11.22,7.94,22.2,13.81,32.5,5.41,9.49,11.7,18.28,21,24.41,9.08,6,18.71,7.74,28.79,2.59C251.86,190.16,259.29,172.57,255.41,157.33Zm-9.24,12c0,9.84-7.52,16.52-17.7,15.72-14.91-1.18-29.41-14.67-31.57-29.37-1.61-11,5.9-19.1,17.07-18.48,15.25.85,30.42,15,32.19,30.08a18.22,18.22,0,0,1,0,2.09Z" transform="translate(0 -0.01)"/>
  </g>
</svg>
