<svg xmlns="http://www.w3.org/2000/svg" width="246.2" height="199.99" viewBox="0 0 246.2 199.99">
  <defs>
    <style>
      .a {
        fill: #fff;
      }
    </style>
  </defs>
  <title>drying-batching-moving</title>
  <g>
    <g>
      <path class="a" d="M34.35,6.34A125.93,125.93,0,0,1,69.25.14a161.27,161.27,0,0,1,60.34,9.11,184.93,184.93,0,0,0,50.47,10.32c-5.75,7.16-9.17,14.75-9.12,23.62s3.33,16.27,9.46,23.74c-25.08.19-46.74,10.91-69.74,16-25.14,5.57-50.17,3.54-75.07-2-3.08-.69-2.5-1.8-1.32-3.89,8.89-15.78,12.94-32.45,8.87-50.51C41.53,19.37,38.38,12.84,34.35,6.34Z" transform="translate(0.03 -0.01)"/>
      <path class="a" d="M40.85,40.76c-.14,12.78-4,24.49-10.32,35.48-.85,1.49-1.59,2.92-3.85,2.09-8.72-3.21-17.11-7-24-13.39A7.71,7.71,0,0,1,0,58.67Q.2,43.75,0,28.82a6.77,6.77,0,0,1,2.79-6.09A106.06,106.06,0,0,1,27.93,8.52c2.17-.9,3.13-.38,4.31,1.49A58.16,58.16,0,0,1,40.85,40.76Z" transform="translate(0.03 -0.01)"/>
      <path class="a" d="M209.79,43.57c0,9.34-.06,18.67,0,28,0,3.55-1.56,4.73-4.94,4.33-18.62-2.18-32.2-19.36-29.7-37.66,1.91-14,15.89-26.89,30.16-28,3.39-.27,4.5,1.32,4.49,4.45-.06,9.63,0,19.27,0,28.9Z" transform="translate(0.03 -0.01)"/>
      <path class="a" d="M219.37,35.91c5,3.18,9.61-.33,14.49-1.74a13.41,13.41,0,0,1,10.57,1.35c1,.55,2.17,1.1,1.57,2.52a1.82,1.82,0,0,1-2.35,1.05,1.64,1.64,0,0,1-.48-.27c-4.56-2.74-8.76-1.42-13.17.61a13.64,13.64,0,0,1-11.45,0c-.86-.37-1.77-1-1.44-2.23C217.36,36.26,218.09,35.92,219.37,35.91Z" transform="translate(0.03 -0.01)"/>
      <path class="a" d="M219.68,47.85c4.59,2.66,8.87,0,13.32-1.59,4.06-1.47,8-.8,11.75,1.21.86.46,1.74,1.14,1.29,2.32a1.8,1.8,0,0,1-2.79.87c-4.72-2.89-9-1.31-13.55.69a13.28,13.28,0,0,1-11,0c-.94-.41-1.79-1-1.6-2.18S218.29,47.73,219.68,47.85Z" transform="translate(0.03 -0.01)"/>
      <path class="a" d="M246.14,25.91a1.85,1.85,0,0,1-2.93,1.14c-4.53-2.77-8.7-1.51-13.08.51a13.49,13.49,0,0,1-11.37.16c-1-.45-2.16-1-1.58-2.46s1.63-1.41,2.78-.86c3.8,1.8,7.32.74,10.81-.94a14.73,14.73,0,0,1,12.92-.16C244.77,23.78,246.1,24.25,246.14,25.91Z" transform="translate(0.03 -0.01)"/>
      <path class="a" d="M246.17,61.15c-.43,1.82-1.79,2-3.14,1.23-4.27-2.49-8.25-1.53-12.39.42a14.22,14.22,0,0,1-11.85.37c-1.07-.45-2.12-1.12-1.61-2.5s1.75-1.35,2.82-.85c3.84,1.82,7.35.68,10.87-1a14.38,14.38,0,0,1,13,0C244.83,59.29,245.94,59.72,246.17,61.15Z" transform="translate(0.03 -0.01)"/>
      <path class="a" d="M67.79,195.33c1,3.66-.75,5.12-5,4.55-1.83-.24-2.94-.39-2.65-2.54a20.85,20.85,0,0,0,0-2.5c.07-2.71-1.11-6.08,4-5.42C67.73,189.89,67.78,189.53,67.79,195.33Z" transform="translate(0.03 -0.01)"/>
      <path class="a" d="M80.32,123.64c-.71-11.67,1.75-22.79,6.2-34.22-10.29.16-20,0-29.53-1.51-3.5-.54-3.92.63-3.82,3.65.33,9.66.58,19.42-1.46,28.89-4.53,21-2.46,41.77,1.73,62.5.37,1.81.85,3.08,3.11,3.12a120.29,120.29,0,0,0,15.54-.25,7,7,0,0,0,5.56-3.3c6.92-11,11.16-22.54,6.93-35.81A94.75,94.75,0,0,1,80.32,123.64ZM70.9,150.87a77.36,77.36,0,0,0-9.63,0c-2.46.11-3.49-.73-3.61-3.29-.35-7.05-.45-7.05,8.61-7.05H69.2c6,0,5.82,0,5.93,6C75.19,149.64,74.34,151.14,70.9,150.87ZM75,130.58a2.33,2.33,0,0,1-2.53,1.71H66.6a36.43,36.43,0,0,0-4.18,0c-3.59.43-5-.88-4.78-4.66.26-5.66,0-5.67,5.81-5.68H68.9C74.74,122,76.87,125,75,130.58Z" transform="translate(0.03 -0.01)"/>
      <path class="a" d="M66.66,125.36c.83,0,1.67.06,2.49,0,1.4-.12,2,.38,2,1.87S70.24,129,69,129H64c-1.39,0-2.41-.09-2.4-1.94,0-2.06,1.38-1.65,2.57-1.68C65,125.34,65.82,125.36,66.66,125.36Z" transform="translate(0.03 -0.01)"/>
      <path class="a" d="M66.16,147.48H63.25c-1.27,0-1.61-.68-1.64-1.84s.37-1.81,1.63-1.78h5c1.26,0,2.91-.63,2.92,1.73s-1.62,1.73-2.9,1.82A14.79,14.79,0,0,1,66.16,147.48Z" transform="translate(0.03 -0.01)"/>
    </g>
    <g>
      <g>
        <path class="a" d="M199.91,190.6v0Z" transform="translate(0.03 -0.01)"/>
        <path class="a" d="M112.64,193.38Z" transform="translate(0.03 -0.01)"/>
        <path class="a" d="M242.52,175.63a9.12,9.12,0,0,0-7.12-3.38H111.52a9.28,9.28,0,0,0-7.2,3.2c-4.32,4.72-5.11,12.68-1.76,18.85,2,3.73,5.07,5.9,9.53,5.67,1.38-.07,2.78,0,4.17,0h119a9.07,9.07,0,0,0,7.16-3.26C247.37,191.1,247.43,181.25,242.52,175.63Zm-1.16,14c-1.23,3.41-3.33,4.78-7.23,4.78H112.06c-3.74,0-5.89-1.71-6.84-5.38-.91-3.51-.58-6.74,2.13-9.42,1.42-1.8,2.58-1.8,4.27-1.8H234.48c3.65,0,5.57,1.32,6.86,4.73a10,10,0,0,1,0,7.13Z" transform="translate(0.03 -0.01)"/>
      </g>
      <path class="a" d="M142.12,179.17c-3.08,0-5.59,3.12-5.59,7s2.51,7,5.59,7,5.6-3.11,5.6-7S145.21,179.17,142.12,179.17Zm0,8.29a1.37,1.37,0,1,1,1-1.63,1.43,1.43,0,0,1,0,.29,1.24,1.24,0,0,1-1.08,1.34Z" transform="translate(0.03 -0.01)"/>
      <path class="a" d="M111.46,179.17c-3.09,0-5.59,3.12-5.59,7s2.5,7,5.59,7,5.59-3.11,5.59-7S114.55,179.17,111.46,179.17Zm0,8.29a1.37,1.37,0,1,1,1-1.64,1.53,1.53,0,0,1,0,.3,1.23,1.23,0,0,1-1.07,1.34Z" transform="translate(0.03 -0.01)"/>
      <path class="a" d="M173.13,179.17c-3.09,0-5.59,3.12-5.59,7s2.5,7,5.59,7,5.59-3.11,5.59-7S176.22,179.17,173.13,179.17Zm0,8.29a1.37,1.37,0,1,1,1-1.64,1.53,1.53,0,0,1,0,.3,1.23,1.23,0,0,1-1.07,1.34Z" transform="translate(0.03 -0.01)"/>
      <path class="a" d="M204.35,179.17c-3.09,0-5.59,3.12-5.59,7s2.5,7,5.59,7,5.59-3.11,5.59-7S207.44,179.17,204.35,179.17Zm0,8.29a1.37,1.37,0,1,1,1-1.64,1.53,1.53,0,0,1,0,.3,1.23,1.23,0,0,1-1.07,1.34Z" transform="translate(0.03 -0.01)"/>
      <path class="a" d="M235.29,179.17c-3.09,0-5.59,3.12-5.59,7s2.5,7,5.59,7,5.59-3.11,5.59-7S238.38,179.17,235.29,179.17Zm0,8.29a1.37,1.37,0,1,1,1-1.64,1.53,1.53,0,0,1,0,.3,1.23,1.23,0,0,1-1.07,1.34Z" transform="translate(0.03 -0.01)"/>
    </g>
  </g>
</svg>
