<svg xmlns="http://www.w3.org/2000/svg" width="168.27" height="200.01" viewBox="0 0 168.27 200.01">
  <defs>
    <style>
      .a {
        fill: #fff;
      }
    </style>
  </defs>
  <title>dyeing-washing-inkPrinting</title>
  <g>
    <path class="a" d="M145.74,147.84a6,6,0,0,0-2-2.59c-11-11-21.94-22.06-33-33-1.54-1.53-1.52-2.43.08-3.7s2.94-4.28,4.85-4.17c1.62.09,3.14,2.6,4.64,4.1q23.28,23.3,46.53,46.63c.53.54,1.34.9,1.43,1.85-.72.56-1.54.27-2.29.27H70A4.46,4.46,0,0,1,66.4,156Q33.58,123,.68,90.09c-.24-.25-.46-.53-.68-.79.37-1,1.21-.62,1.83-.62q22.28,0,44.54-.06c1.86,0,2.39.52,2.38,2.38,0,7,0,7-7,7H22.93c-.35,1.13.43,1.48.9,1.92,15.74,14.92,30.71,30.61,46.1,45.88a6.3,6.3,0,0,0,4.88,2q33.87-.11,67.74,0Z"/>
    <path class="a" d="M90.6.06c10.67,0,21.34.06,32,0,2.13,0,2.87.44,2.85,2.73-.09,19.21,0,38.42-.06,57.62,0,11.2-9.79,21.44-20.86,22-1.47.08-2.47-.15-2.22-2a14.43,14.43,0,0,0,0-1.86c0-1.69-.42-3.62.26-5s2.86-.79,4.34-1.27A13.77,13.77,0,0,0,116,60c.07-16.18,0-32.36,0-48.54,0-1.46-.35-2-1.92-2q-23.47.07-46.95,0c-2.09,0-2,1-2,2.48V58.62C65.13,71,57.5,80.1,45.34,82.31c-3,.54-3.26.3-3.27-2.62v-.8c0-1.77-.45-3.81.27-5.24s3-.93,4.57-1.48a12.66,12.66,0,0,0,8.45-11.75q0-28.5,0-57.08C55.31.73,56,0,58.59,0,69.26.14,79.93.06,90.6.06Z"/>
    <path class="a" d="M112.7,179.19H70a5,5,0,0,1-4-1.62Q37.67,149,9.15,120.6c-1.43-1.43-1.52-2.26,0-3.53,1.71-1.41,3.12-4.06,4.87-4.25s3.25,2.64,4.8,4.18c8.33,8.27,16.45,16.75,24.93,24.86,9.06,8.65,17.79,17.63,26.67,26.47a5.14,5.14,0,0,0,4,1.51q40.14,0,80.27-.09c2.6,0,3.27.7,3.2,3.25-.18,6.19,0,6.19-6.32,6.19Z"/>
    <path class="a" d="M112.34,200H70.2a5.33,5.33,0,0,1-4.2-1.69Q37.7,169.84,9.28,141.5c-1.46-1.45-1.73-2.39,0-3.72s2.93-4.25,4.85-4.22,3.26,2.73,4.82,4.29q20.66,20.64,41.28,41.32c3.46,3.45,7.08,6.73,10.5,10.21,1.17,1.19,2.44,1.22,3.88,1.22q40,0,80-.08c2.72,0,3.44.66,3.34,3.36-.22,6.08-.07,6.09-6.14,6.09Z"/>
    <path class="a" d="M81.2,74.45c-4.35,4.25-8.73,6.9-14.1,7.74-3.74.59-3.92.55-3.91-3.22v-.53c0-1.6-.43-3.42.19-4.73s2.82-.84,4.28-1.32a13,13,0,0,0,9.24-12.6c0-11.47.06-22.93-.05-34.4,0-2.15.61-2.67,2.68-2.64,6.75.08,6.75,0,6.74,6.81V60A21.42,21.42,0,0,1,83,71.56c-.22.36-.56.7-.35,1.18A12.73,12.73,0,0,0,94.9,60.16c0-11.47.09-22.94-.07-34.4,0-2.56.78-3.08,3.14-3,6.27.16,6.28,0,6.28,6.46v32c0,10.62-10.17,20.93-20.77,21.22-1.67,0-2.48-.31-2.31-2.17C81.32,78.59,81.2,76.91,81.2,74.45Z"/>
    <path class="a" d="M133.51,31.82c12.31-.68,23.07,9.58,22.8,22.74a22.23,22.23,0,0,1-22,21.54c-5.78,0-5.81,0-5.77-5.56,0-4.46-.64-3.82,4-3.84,7.93,0,12.56-3.61,14-10.94,1.46-6.76-4.15-14.06-11-14.52h-.8c-2-.21-5.11.93-5.75-.51-1-2.24-.38-5.19-.42-7.85,0-1,.72-1,1.48-1Z"/>
    <path class="a" d="M49,31.77c-7.11.13-14.22.05-21.33.05A22.07,22.07,0,0,0,6.08,53.14C5.92,64.9,14.16,74.67,25.88,76A21.92,21.92,0,0,0,50.2,56.78c.08-.66.12-1.32.14-2a23.69,23.69,0,0,0-3.58-13.34c4.69-.45,4.69-.45,4.68-4.74a16,16,0,0,1,0-2.4C51.73,32.36,51,31.73,49,31.77ZM28.23,66.69a12.73,12.73,0,0,1,.1-25.46c7.35,0,12.58,5.38,12.56,12.87A12.53,12.53,0,0,1,28.4,66.69Z"/>
    <path class="a" d="M103,102.85c-2.75-4.12-5.74-8.07-8.55-12.16-.85-1.23-1.3-1.38-2.2,0-2.83,4.28-5.9,8.42-8.66,12.74-2.39,3.76-2.82,7.81-.62,11.85s5.78,5.79,10.24,6c4.5-.11,8.19-1.76,10.37-5.79A11.54,11.54,0,0,0,103,102.85Zm-8,8.38a2,2,0,0,1-3.26.17c-1.59-2.11.32-3.68,1.54-5.72C94.47,107.6,96.49,109,95,111.23Z"/>
    <path class="a" d="M75.28,102.85c-2.75-4.12-5.74-8.07-8.55-12.16-.85-1.23-1.3-1.38-2.2,0-2.83,4.28-5.9,8.42-8.66,12.74-2.39,3.76-2.82,7.81-.62,11.85s5.78,5.79,10.24,6c4.5-.11,8.19-1.76,10.37-5.79A11.54,11.54,0,0,0,75.28,102.85Zm-8,8.38a2,2,0,0,1-3.26.17c-1.59-2.11.31-3.68,1.54-5.72C66.77,107.6,68.79,109,67.28,111.23Z"/>
  </g>
</svg>
