<svg xmlns="http://www.w3.org/2000/svg" width="235.56" height="200" viewBox="0 0 235.56 200">
  <defs>
    <style>
      .a {
        fill: #fff;
      }
    </style>
  </defs>
  <title>heatPressForming-bonding</title>
  <g>
    <path class="a" d="M123.57,90.47H89.27A2.48,2.48,0,0,1,86.78,88h0V2.48A2.48,2.48,0,0,0,84.3,0H46a2.48,2.48,0,0,0-2.48,2.48V88A2.48,2.48,0,0,1,41,90.47H6.74a2.49,2.49,0,0,0-1.68,4.32l31.6,28.91h0c1,.93,2,1.87,3.06,2.8v.08L44,130.66l19.55,17.85a2.29,2.29,0,0,0,1,.55h0a2.73,2.73,0,0,0,.4.05h.45a2.73,2.73,0,0,0,.4-.05h0a2.29,2.29,0,0,0,1-.55l19.55-17.85,4.26-4.08v-.08c1-.93,2-1.87,3.06-2.8h0l31.6-28.91a2.49,2.49,0,0,0-1.68-4.32Z" transform="translate(0)"/>
    <g>
      <path class="a" d="M231.31,81.55,204.69,105,156.55,59.44,179.61,39.1ZM172.77,68.46A10.32,10.32,0,0,0,175,67.35q6.9-6,13.71-12.06a2.51,2.51,0,0,0,.59-3.5,2.36,2.36,0,0,0-.59-.59c-1.71-1.55-3.45-3.08-5.2-4.59a3.33,3.33,0,0,0-4.62,0q-6.82,6-13.61,12c-1.48,1.32-1.47,2.83,0,4.17,1.72,1.55,3.43,3.1,5.22,4.56A11.14,11.14,0,0,0,172.77,68.46ZM192.71,55.7c-.21.16-.54.33-.52.41a1.62,1.62,0,0,0,.41.85q9.66,8.15,19.4,16.24c.26.22.78.11,1.18.16-.15-.34-.21-.8-.47-1q-9.57-8.08-19.18-16.11C193.27,56.05,193,55.9,192.71,55.7Zm36.4,25.66v-.47c-.87-.06-1.75-.18-2.61-.17-9.22.18-20,8.53-22.33,17.44a22.21,22.21,0,0,0-.4,4.23,2.08,2.08,0,0,0,.29.8h.29c-.36-6.8,3.19-11.65,7.93-15.78s10.23-6.67,16.83-6ZM220.45,79c-.12-.29-.13-.44-.2-.5-1.42-1.11-2.84-2.22-4.29-3.3-.11-.08-.51.09-.66.25a.63.63,0,0,0,.09.59c1.35,1.09,2.7,2.16,4.1,3.17C219.66,79.29,220.1,79,220.45,79Z" transform="translate(0)"/>
      <path class="a" d="M178.31,38.42,155.69,58.36v-6.7c0-1.61,0-3.23.08-4.85a2.2,2.2,0,0,1,.62-1.36c2.43-2.21,4.89-4.36,7.36-6.51a2,2,0,0,1,1.11-.5C169.24,38.41,173.63,38.42,178.31,38.42Zm-7.07,3.48.6-.5c-.18-.2-.33-.54-.56-.59-1.75-.41-3.52-.8-5.3-1.13-.23,0-.53.28-.8.43.18.2.34.55.56.6,1.76.41,3.53.77,5.5,1.19Z" transform="translate(0)"/>
      <path class="a" d="M228.05,85.77l1.67-1.48a21.44,21.44,0,0,0,1.86,1.57c.27.18.73.1,1.1.13a2.7,2.7,0,0,0-.36-.94,22.21,22.21,0,0,0-1.69-1.53l1.28-1.17,3.65,3.21L209,109l-3.62-3.18,1.24-1.12c.66.57,1.23,1.14,1.88,1.6.25.18.67.1,1,.14-.08-.32-.07-.73-.26-.94a23.33,23.33,0,0,0-1.73-1.57l1.65-1.51c.68.59,1.26,1.16,1.91,1.62.24.17.67.08,1,.11-.09-.32-.08-.72-.28-.94a23.33,23.33,0,0,0-1.73-1.57l1.66-1.49a13.91,13.91,0,0,0,1.67,1.4,3.94,3.94,0,0,0,1.27.31,4.28,4.28,0,0,0-.49-1.09,17,17,0,0,0-1.55-1.4l1.66-1.48c.6.55,1.22,1.07,1.87,1.56.27.18.73.1,1.1.13a2.89,2.89,0,0,0-.35-.94,21.73,21.73,0,0,0-1.69-1.54l1.65-1.48a21.82,21.82,0,0,0,1.88,1.58c.27.18.73.08,1.1.11a2.7,2.7,0,0,0-.38-1,22.21,22.21,0,0,0-1.69-1.53l1.69-1.49A13.34,13.34,0,0,0,221,94.66a5.92,5.92,0,0,0,1.36.47,7.15,7.15,0,0,0-.57-1.26,12.94,12.94,0,0,0-1.4-1.27L222,91.09c.67.58,1.24,1.16,1.89,1.62.24.17.66.1,1,.14a2.68,2.68,0,0,0-.26-1,23.19,23.19,0,0,0-1.73-1.56l1.64-1.5a22.65,22.65,0,0,0,1.85,1.55,2.74,2.74,0,0,0,1.1.18,3.06,3.06,0,0,0-.39-1,18.84,18.84,0,0,0-1.62-1.47l1.67-1.5a13.2,13.2,0,0,0,1.56,1.33,5.3,5.3,0,0,0,1.36.39,5.14,5.14,0,0,0-.57-1.18A15.14,15.14,0,0,0,228.05,85.77Z" transform="translate(0)"/>
      <path class="a" d="M146.11,32.36l10.61,10.91-1.29,1.17-9.74-11.68Z" transform="translate(0)"/>
      <path class="a" d="M147,31.54l11.5,10.18-1.28,1.14L146.58,32Z" transform="translate(0)"/>
      <path class="a" d="M147.87,30.74l12.4,9.41L159,41.28,147.51,31.19Z" transform="translate(0)"/>
      <path class="a" d="M162,38.65l-1.22,1.08-12.5-9.44C149.27,30.18,159.23,36.38,162,38.65Z" transform="translate(0)"/>
      <path class="a" d="M163.57,37.11c-.57,1-1.13,1-2.06.43-3.6-2.42-7.26-4.75-10.9-7.11-.28-.18-.54-.39-.89-.64C150.74,29.71,160.55,34.94,163.57,37.11Z" transform="translate(0)"/>
      <path class="a" d="M155,44.84l-1.06.92-8.53-11.83.3-.23Z" transform="translate(0)"/>
      <path class="a" d="M170.76,61.72l1.88-1.7c.88.81,1.79,1.52,2.55,2.36a1.83,1.83,0,0,1-.52,2.54,1.71,1.71,0,0,1-.33.17,3.53,3.53,0,0,1-2,.28,6,6,0,0,1-4.12-3.1,2.22,2.22,0,0,1,.56-3.09,2.36,2.36,0,0,1,.95-.37c1-.15,1.58.15,1.45,1.27-1.9.66-2.08,1.55-.52,2.87a4.09,4.09,0,0,0,1.71.87,1.54,1.54,0,0,0,1.18-.63c.15-.2-.15-.73-.3-1.25L172,62.8Z" transform="translate(0)"/>
      <path class="a" d="M184.36,56.12l-5.91-5.24,2.93-2.59,1.45,1.21L181,51.14l.7.81,1.82-1.57,1.36,1.13L183.28,53c.62,1,.62,1,1.48.21,1.36-1.18,1.36-1.18,2.52.24Z" transform="translate(0)"/>
      <path class="a" d="M174.15,54.67l1.06-.94c.71.61,1.4,1.2,2.08,1.8.46.41.89.86,1.38,1.22s1.26,1.11,1.9.33-.17-1.26-.65-1.71c-.8-.78-1.66-1.49-2.5-2.22l-.72-.68,1.1-1c1.43,1.35,2.86,2.62,4.19,4a1.89,1.89,0,0,1,.31,2.62,2.14,2.14,0,0,1-2.77.74,13.45,13.45,0,0,1-2.41-1.53C176.13,56.52,175.22,55.63,174.15,54.67Z" transform="translate(0)"/>
      <path class="a" d="M179.82,60.06l-2.89,2.58L171,57.48l1-1,4.52,3.93,1.79-1.56Z" transform="translate(0)"/>
    </g>
    <g>
      <path class="a" d="M221.43,115.55H113.82l-.5.45-1.81,1.66h0l-1.39,1.28h.08l-5,4.89h0Q89,138.56,72.8,153.4l-4.25,3.86a5,5,0,0,1-6.73,0c-6.66-6.07-13.25-12.1-19.93-18.2l-4.68-4.47v-.09l-.09-.08L.77,192.34A5,5,0,0,0,5,200H174.67a5,5,0,0,0,4.24-2.34l46.76-74.45a5,5,0,0,0-4.24-7.66Zm-90.69,51.88h-3.51v-7.89H114.94v7.89h-3.51V148.11h3.51V156h12.29v-7.9h3.51Zm24.36-7.81a8.55,8.55,0,0,1-.6,3.24,7.61,7.61,0,0,1-4.24,4.24,8.39,8.39,0,0,1-3.21.6h-4.74a8.44,8.44,0,0,1-3.22-.6,7.57,7.57,0,0,1-4.25-4.24,8.38,8.38,0,0,1-.62-3.24v-3.69a8.38,8.38,0,0,1,.62-3.24,7.59,7.59,0,0,1,4.25-4.24,8.44,8.44,0,0,1,3.22-.6h4.74a8.39,8.39,0,0,1,3.21.6,7.91,7.91,0,0,1,2.55,1.68,7.72,7.72,0,0,1,1.69,2.56,8.55,8.55,0,0,1,.6,3.24Zm20.65-8H168v15.81h-3.5V151.62h-7.7v-3.51h18.95Z" transform="translate(0)"/>
      <path class="a" d="M150.34,152.61a4.15,4.15,0,0,0-1.44-.93,4.88,4.88,0,0,0-1.85-.33h-4.74a5,5,0,0,0-1.87.33,4.44,4.44,0,0,0-1.45.93,4.15,4.15,0,0,0-.93,1.44,5,5,0,0,0-.33,1.88v3.69a5,5,0,0,0,.33,1.88,4.15,4.15,0,0,0,.93,1.44,4.44,4.44,0,0,0,1.45.93,5,5,0,0,0,1.87.33H147a5,5,0,0,0,1.87-.33,4.13,4.13,0,0,0,2.38-2.37,5,5,0,0,0,.33-1.88v-3.69a5,5,0,0,0-.33-1.88A4.1,4.1,0,0,0,150.34,152.61Z" transform="translate(0)"/>
    </g>
  </g>
</svg>
