<?xml version="1.0" encoding="utf-8"?>
<!-- Generator: Adobe Illustrator 22.0.0, SVG Export Plug-In . SVG Version: 6.00 Build 0)  -->
<svg version="1.1" id="Layer_1" xmlns="http://www.w3.org/2000/svg" xmlns:xlink="http://www.w3.org/1999/xlink" x="0px" y="0px"
	 viewBox="0 0 143.2 200" style="enable-background:new 0 0 143.2 200;" xml:space="preserve">
<style type="text/css">
	.st0{fill:#FFFFFF;}
</style>
<title>25</title>
<g>
	<path class="st0" d="M68.5,106.8c17.5,0,35,0,52.5,0c2.3,0,3,0.6,2.9,2.9c-0.1,26.1,0,52.2-0.1,78.2c0,2.5-0.1,5-0.4,7.5
		c-0.3,2.2-1.4,4.1-3.9,4.2c-4.4,0.2-8.8,0.3-13.3,0.3c-28.9,0-57.7,0-86.6,0c-4.1,0-6.4-1.5-6.4-5.9c-0.1-10.4-0.3-20.8-0.3-31.2
		c-0.1-17.7,0-35.5-0.1-53.2c0-2.3,0.7-2.9,2.9-2.9C33.3,106.8,50.9,106.8,68.5,106.8z"/>
	<path class="st0" d="M30.6,78.8c-5,0-9.9-0.1-14.9,0.1C13.4,79,13.2,77.6,13,76c-0.3-1.9,0.9-2.1,2.3-2.3c1.9-0.3,3.8-0.7,5.6-1
		c2.5-0.5,1.7-2.3,1.4-3.7s-0.4-3.3-2.8-3c-1.9,0.3-3.7,0.7-5.6,1s-2.8-0.1-3.2-2.3c-0.6-4-0.8-4,3.2-4.8c3.6-0.7,7.1-1.4,10.7-2.1
		c1.6-0.3,2.6-0.9,1.9-2.8c-0.2-0.6-0.3-1.3-0.3-2c-0.1-2-1-2.3-2.9-1.9c-4,0.9-8.2,1.5-12.3,2.3c-1.6,0.3-2.8,0.1-2.9-1.9
		s-1.5-4.1,1.6-4.9c1.8-0.5,3.7-0.9,5.6-1.2c2.1-0.3,2.1-1.7,1.7-3c-0.4-1.5,0.2-4.1-2.8-3.7c-2,0.3-3.9,0.6-5.9,1
		c-1.8,0.4-2.7-0.2-2.8-2s-1.8-4,1.3-4.7c4.1-1,8.1-1.9,12.2-2.5c2.8-0.4,2.4-2,2-3.9s-0.5-3.6-3.3-2.9c-3.8,1-7.6,1.5-11.5,2.4
		c-2,0.4-3.2,0.1-3.3-2.2c-0.1-0.8-0.3-1.5-0.5-2.3c-0.3-1.4,0.2-2.1,1.7-2.3c2-0.3,4.1-0.8,6.1-1.1c1.4-0.2,1.8-0.9,1.6-2.4
		c-0.6-4.6-0.6-4.6-5.1-3.9c-1,0.2-2,0.4-3.1,0.4c-1,0-2.7-0.1-2.9-0.5C0.3,10.2,0,8.4,0,6.6c0-0.2,1.1-0.7,1.8-0.8
		C11.5,3.9,21.2,2,30.9,0.1c1.9-0.4,2.8,0.1,3.2,2.2c3.5,18.5,7.1,36.9,10.7,55.4c1.2,6,2.2,12.1,3.5,18.1c0.6,2.5-0.3,3.1-2.6,3.1
		C40.7,78.8,35.6,78.8,30.6,78.8L30.6,78.8z"/>
	<path class="st0" d="M68.2,99.3c-15.7,0-31.3,0.5-47,0.4c-4.3,0-8.7-0.2-13-0.4c-3.5-0.1-5.4-2-5.4-5.6c0-1.8,0.1-4,1.1-5.4
		c1.1-1.2,2.7-2,4.4-2c14.6-0.3,29.2-0.4,43.8-0.4c15.1-0.1,30.1-0.1,45.1,0c10.1,0,20.2,0.2,30.2,0.4c2.5,0.1,5.1,0.3,6.1,3.4
		c1,3.3,0.5,6.9-1.7,8.4c-1.1,0.8-2.4,1.2-3.8,1.3C108.1,99.4,88.1,99.4,68.2,99.3L68.2,99.3z"/>
	<path class="st0" d="M89.2,55v23.8H70.4c-1.1,0-2.1,0.1-2.1-1.5c0-7.4,0-14.7,0-22.3L89.2,55z"/>
	<path class="st0" d="M82.4,33.7c0-3-0.1-5.5,0-8.1c0.1-1.8-0.5-2.5-2.4-2.4c-1.4,0.1-2.8,0-4.6,0v10.5c-2.5,0-4.5,0.1-6.6-0.1
		c-0.7-0.3-1.3-0.9-1.5-1.6c-0.8-3.4-1.4-6.8-1.9-10.2c0-0.8,0.2-1.7,0.8-2.3c3.6-4.4,7.4-8.7,11-13.2c1-1.2,1.8-1.6,2.9-0.3
		c3.9,4.7,7.9,9.4,11.8,14.2c0.3,0.6,0.4,1.3,0.3,1.9c-0.6,3.2-1.3,6.5-1.9,9.7c-0.2,1.4-0.8,2-2.2,1.9
		C86.3,33.7,84.6,33.7,82.4,33.7z"/>
	<path class="st0" d="M105.8,78.8c1.8-6,3.4-11.5,5-17C114.9,48.6,119,35.3,123,22c0.6-2,1.5-2.7,3.3-2c1.8,0.7,4.6,0.3,3.5,3.8
		c-3.3,10.6-6.5,21.2-9.7,31.9c-2.1,7-4.3,14.1-6.4,21.2c-0.4,1.4-1,2.1-2.5,2S107.9,78.8,105.8,78.8z"/>
	<path class="st0" d="M120.3,78.8c1.9-6.2,3.6-11.9,5.4-17.6l10.6-34.6c0.5-1.5,0.4-3.5,3-2.7c4,1.2,4.5,1.7,3.5,4.8
		c-2.6,8.6-5.2,17.3-7.8,25.9c-2.1,7-4.4,14.1-6.4,21.2c-0.7,2.3-1.7,3.4-4.2,3C123.1,78.7,121.7,78.7,120.3,78.8z"/>
	<path class="st0" d="M78.8,40.8c2.9,0,5.7,0,8.6,0c1.4,0,1.9,0.5,2,2c0.2,5,0.2,5-4.7,5c-4.5,0-9-0.1-13.5,0
		c-2.2,0.1-3-0.8-2.7-2.9c0.1-0.5,0.1-1,0-1.5c-0.3-2.1,0.6-2.8,2.6-2.7C73.6,40.9,76.2,40.8,78.8,40.8z"/>
	<path class="st0" d="M130.6,13.1l7.6-5.2l3.7,8.7l-0.7,0.8l-10.6-3.2L130.6,13.1z"/>
</g>
</svg>
