<svg xmlns="http://www.w3.org/2000/svg" width="133.87" height="200" viewBox="0 0 133.87 200">
  <defs>
    <style>
      .a {
        fill: #fff;
      }
    </style>
  </defs>
  <title>machine-tools</title>
  <g>
    <path class="a" d="M21,0c.12,1.29.29,2.23.29,3.17,0,10.25.08,20.5,0,30.75,0,2.23.65,2.92,2.84,2.9,10.74-.1,21.48-.06,32.22-.09,3.12,0,3.46-.37,3.47-3.49V3.77c0-1,.21-2,.37-3.45,4.44,2.74,8.35,5.34,11.12,9.17A57.31,57.31,0,0,1,77,19.13a38.57,38.57,0,0,1,.17,32.51A38.2,38.2,0,0,1,53.93,73.27a2.59,2.59,0,0,0-2,2.78c.06,6.47-.23,12.94,0,19.4.74,19.1,1.77,38.19,2.47,57.29.43,11.54.6,23.1.62,34.64,0,4.86-3.45,7.94-7.16,10.29-8.8,5.58-19.16.58-22.44-9.16a7,7,0,0,1-.2-2.24c0-4-.09-7.9,0-11.84q.3-12.28.73-24.58c.24-7.18.55-14.36.82-21.54s.51-14.54.78-21.81S28,92.14,28.36,85c.14-3,.63-6,.69-8.94a2.92,2.92,0,0,0-1.56-2.24A39.29,39.29,0,0,1,4.54,54,38.68,38.68,0,0,1,.67,28.75,39.71,39.71,0,0,1,7.35,12.21,41.73,41.73,0,0,1,21,0ZM51.17,184.22c.85-6.11-5.33-11.34-10.34-11.08-6.27.32-11.32,4.94-11.71,10.68-.4,6,6.15,11.72,10.93,11.53A11.45,11.45,0,0,0,51.17,184.22Z" transform="translate(-0.01)"/>
    <path class="a" d="M105.07,139.37c1.47-3.84,2.83-7.51,4.32-11.13a2.31,2.31,0,0,1,1.66-1c3.23-.4,3.7-.87,3.73-4.1v-1.77c0-3.44-.58-4-4.08-4.2a4.2,4.2,0,0,1-.62-.08c-1.66-3.72-3.28-7.2-4.71-10.75a2.68,2.68,0,0,1,.56-2.28c1.7-1.79,1.58-3.37-.12-5-.72-.7-1.42-1.43-2.13-2.14-1.48-1.49-3.06-1.76-4.6-.16-1.11,1.16-2,1.12-3.45.36-3-1.58-6.25-2.77-9.8-4.29.19.36.06.22,0,.06a5.58,5.58,0,0,0-8.49-4.49A3.45,3.45,0,0,0,75.82,91c.06,2-.8,2.43-2.49,3a54.11,54.11,0,0,0-7.82,3.38c-1.15.58-1.91.67-2.84-.32a3.28,3.28,0,0,0-2.09-1.19c-2.16.18-2.26-1.08-2.35-2.65-.17-2.66-.63-5.31-.63-8,0-1,.66-2.64,1.45-3,4-1.68,8.11-3,12.12-4.55a4,4,0,0,0,2-2.13,9.16,9.16,0,0,0,.1-3c0-2.26,1.27-3.38,3.47-3.41h8.07c2.23.05,3.35,1.3,3.42,3.5a9.75,9.75,0,0,0,.14,3c.33.83,1.2,1.94,2,2,5.71.79,10.59,3.53,15.42,6.36,1.22.72,1.91.73,2.78-.25.56-.62,1.16-1.21,1.77-1.79a3.59,3.59,0,0,1,5.08-.27,3.44,3.44,0,0,1,.27.27c1.77,1.68,3.48,3.41,5.17,5.17a3.66,3.66,0,0,1,.43,5.16,4.4,4.4,0,0,1-.37.38c-.58.61-1.4,1.09-1.73,1.81A3.32,3.32,0,0,0,119,97c2.83,4.87,5.3,9.88,6.23,15.48a2.36,2.36,0,0,0,2.4,2.31l.3,0c.93,0,1.86-.09,2.77,0a3.19,3.19,0,0,1,3.21,3.19,2.62,2.62,0,0,1,0,.28v7.06c0,3-1.54,4.57-4.55,4.44-2.61-.12-3.6.62-4.38,3.39-1.28,4.52-3.54,8.78-5.57,13.06-.75,1.59-.84,2.61.52,4,3.08,3,3,5.29-.06,8.31-1.07,1.07-2.12,2.16-3.21,3.21-2.65,2.55-4.59,2.69-7.11,0-1.67-1.81-3.06-1.81-5-.61a48.28,48.28,0,0,1-14.85,6,2.54,2.54,0,0,0-1.4,2.05c.88,5.54-1.61,6.85-7,6.48a20.56,20.56,0,0,1-6.23-1c-2.08-.84-2-3.11-1.81-5.07.12-1.58-.32-2.27-2.09-2.67a42.21,42.21,0,0,1-8.47-2.92,4.43,4.43,0,0,1-2-3c-.47-3.37-.63-6.78-.77-10.19,0-.65.47-1.8.93-1.92,1.6-.4,2-3.31,4.62-1.76a51.84,51.84,0,0,0,8.27,3.51c1.19.45,2.13.77,2,2.35-.22,2.47,1.18,3.5,3.51,3.51,1.18,0,2.36.06,3.53,0,1.83-.14,3.12-1.08,2.94-3s.92-2.42,2.54-2.94a48.59,48.59,0,0,0,7.58-3.22c1.23-.63,1.93-.82,3,.23,2.07,2,3,1.89,5.06-.16.61-.58,1.17-1.21,1.75-1.82,2-2.09,2-3.11,0-5.32Z" transform="translate(-0.01)"/>
    <path class="a" d="M81.9,140.13a18,18,0,1,1,17.94-18.06v.06A18,18,0,0,1,81.9,140.13Zm-.09-31.82a14.45,14.45,0,1,0,13.88,16.23,14.19,14.19,0,0,0,0-2.35A14,14,0,0,0,81.81,108.31Z" transform="translate(-0.01)"/>
  </g>
</svg>
