<svg xmlns="http://www.w3.org/2000/svg" width="207.96" height="200.01" viewBox="0 0 207.96 200.01">
  <defs>
    <style>
      .a {
        fill: #fff;
      }
    </style>
  </defs>
  <title>packaging-boxing</title>
  <g>
    <path class="a" d="M99.27,34.79V6.51a9.69,9.69,0,0,1,.38-3.43A4.28,4.28,0,0,1,103.83,0a4.19,4.19,0,0,1,4.39,3.16,11.34,11.34,0,0,1,.34,3.43V63.12a1.57,1.57,0,0,0,0,.53c.22.79-.55,2,.59,2.34.89.3,1.31-.77,1.84-1.28,5.76-5.65,11.44-11.36,17.22-17,3.08-3,7-2.1,8.17,1.75.68,2.24-.6,3.76-2,5.15-7.93,7.87-16,15.57-23.79,23.6-6.65,6.89-8.25,5.09-13.49-.15C89.3,70.24,81.4,62.5,73.52,54.72c-3.12-3.08-2.9-6.45.51-8.28,2.33-1.26,4.1-.23,5.71,1.35,5.67,5.58,11.32,11.2,17,16.78.6.58,1.08,1.77,2,1.44s.5-1.57.5-2.39C99.29,54,99.27,44.4,99.27,34.79Z" transform="translate(0 0.01)"/>
    <path class="a" d="M108.57,161.65v-36c0-.73-.46-1.83.43-2.15s1.14.91,1.53,1.5q6,9.38,12,18.8c2.18,3.44,3.43,4,7.24,2.68,11.67-4.16,23.31-8.41,34.95-12.64,6.89-2.51,13.75-5.06,20.63-7.59,1.52-.56,2.28-.28,2.27,1.59q-.09,21.06,0,42.11a2,2,0,0,1-1.67,2.23c-10,3.57-19.89,7.27-29.83,10.91l-43.77,16a11.12,11.12,0,0,0-1.52.46c-2,1.07-2.21.11-2.2-1.63V161.65Z" transform="translate(0 0.01)"/>
    <path class="a" d="M99.28,161.76V196.7c0,3.74,0,3.72-3.58,2.41L59.88,186.06c-12.57-4.59-25.1-9.25-37.69-13.78a2.36,2.36,0,0,1-1.9-2.63c0-13.86.07-27.73,0-41.59,0-2.18.76-2.39,2.53-1.74q27,9.93,54,19.83c4.88,1.8,6,1.48,8.93-3q5.9-9.19,11.75-18.43c.32-.51.44-1.35,1.2-1.22,1.06.19.55,1.16.55,1.76Q99.31,143.5,99.28,161.76Z" transform="translate(0 0.01)"/>
    <path class="a" d="M96.65,108.75c-.27.38-.55.72-.78,1.09-5.28,8.38-10.61,16.72-15.79,25.16-1,1.67-2.09,1.79-3.68,1.2Q58,129.45,39.6,122.75C27,118.14,14.42,113.48,1.79,109c-2.06-.73-2.24-1.35-1.06-3.17Q8.65,93.56,16.3,81.14c.91-1.47,1.59-1.84,3.36-1.18C35.1,85.65,50.59,91.17,66.05,96.8c9.73,3.54,19.41,7.17,29.11,10.77C95.76,107.79,96.65,107.7,96.65,108.75Z" transform="translate(0 0.01)"/>
    <path class="a" d="M129.91,136.64c-1.13.3-1.42-.68-1.8-1.28-5.45-8.58-10.83-17.2-16.31-25.76-.77-1.2-.62-1.5.69-2q16.61-6,33.15-12.06c14.2-5.18,28.43-10.3,42.59-15.6,1.84-.69,2.49-.19,3.37,1.21,5.19,8.3,10.45,16.57,15.71,24.84.8,1.25,1.14,2.13-.68,2.79q-24.18,8.7-48.33,17.48c-8.72,3.17-17.41,6.4-26.12,9.6C131.43,136.17,130.66,136.39,129.91,136.64Z" transform="translate(0 0.01)"/>
  </g>
</svg>
