<svg xmlns="http://www.w3.org/2000/svg" width="185.28" height="200.03" viewBox="0 0 185.28 200.03">
  <defs>
    <style>
      .a {
        fill: #fff;
      }
    </style>
  </defs>
  <title>punching-drilling-riveting</title>
  <g>
    <path class="a" d="M87.16,185.35H12.24c-2.89,0-3.34-.72-3.49-4-.11-2.61,1-3.4,3.45-3.39H154c3.28-.15,5-1.36,5.1-3.58s-1.93-3.77-5.18-3.8c-2.34,0-3.26-.82-3.26-3.27q.08-51.75,0-103.51c0-1.8.74-2.6,2.4-2.63,3.24-.06,6.47,0,9.71,0a2.28,2.28,0,0,1,2.55,2,2.08,2.08,0,0,1,0,.61V181.41c0,3.33-.5,3.86-3.52,3.86H87.16Z"/>
    <path class="a" d="M157.21,0h23c3.7,0,5.07,1.33,5.07,5,0,15.06-.05,30.12,0,45.18,0,2.6-.92,3.66-3.56,3.65q-20.37-.07-40.74,0c-2.14,0-3.2-.86-3.49-3-.86-6.19-3.65-11.54-7-16.71a11.06,11.06,0,0,1-1.55-5.6c-.18-7.76-.1-15.52-.08-23.28,0-4,1-5.15,5.07-5.18,7.76-.08,15.53,0,23.29,0Zm-.54,12.51H175a3.62,3.62,0,0,0,4-3.24,2.79,2.79,0,0,0,0-.5c.09-2.34-1.61-3.13-3.6-3.42a13.59,13.59,0,0,0-2.21-.12H139.61c-3.07,0-5,1.4-5,3.6s1.94,3.72,4.88,3.73q8.58-.06,17.18-.05Zm-14.3,15.55h-.08c0-2.31.06-4.61,0-6.91a3.56,3.56,0,0,0-7.11-.28,139.79,139.79,0,0,0,.07,14.33c.1,1.83,1.2,3.58,3.61,3.37s3.4-1.71,3.5-3.89,0-4.42,0-6.62Zm29.41,0h-.06c0,2-.09,4.06,0,6.09.15,3,1.35,4.46,3.48,4.44,2.3,0,3.83-1.64,3.89-4.48.1-4.15.11-8.3,0-12.44-.06-2.22-1.15-4.06-3.57-4.2-2.58-.15-3.53,1.77-3.7,4s0,4.35,0,6.53Zm-4.91,0h-.08c0-2.11.08-4.23,0-6.35-.1-2.29-1.27-4-3.65-4.08s-3.54,1.67-3.55,4c0,4.24-.07,8.48,0,12.71.08,2.82,1.5,4.4,3.66,4.24,2.52-.18,3.39-2,3.55-4.19s0-4.28,0-6.39Zm-12.27.22h-.06c0-2.3.09-4.6,0-6.9s-1.3-3.72-3.63-3.69a3.37,3.37,0,0,0-3.48,3.25,1.6,1.6,0,0,0,0,.31c-.14,4.51-.21,9-.06,13.52.07,2,1.09,3.87,3.52,3.84s3.58-1.71,3.72-4,0-4.28,0-6.4Z"/>
    <path class="a" d="M99.2,88.35A31.38,31.38,0,0,1,68.1,56.69v-.07c.22-17.26,14.62-30.89,32.42-30.69,16.49.19,30.38,14.63,30.23,31.43A31.33,31.33,0,0,1,99.2,88.35Zm.14-55c-13.65.34-24.2,11.12-23.87,24.35C75.8,70.45,86.88,81.34,99.26,81c14.06-.35,24.39-10.93,24.1-24.67-.26-12.68-11.36-23.33-24-23Z"/>
    <path class="a" d="M86.86,199.94H4.76a8.65,8.65,0,0,1-2.23-.65,9.9,9.9,0,0,1,.83-2.18c2.19-3.3,5.05-4.66,9.26-4.65,50.58.16,101.15.1,151.72.1,2,0,6.87,3.68,7.17,5.69.07.5-1.08,1.64-1.73,1.7-2.2.19-4.43,0-6.65,0H86.86Z"/>
    <path class="a" d="M77.22,171.09H15.67a5.33,5.33,0,0,1-1.67-.65,12.88,12.88,0,0,1,.62-2.18c1.64-3.3,3.79-4.66,6.94-4.65,37.92.16,75.83.1,113.74.1,1.52,0,5.16,3.68,5.38,5.69a2.34,2.34,0,0,1-1.3,1.7,41.7,41.7,0,0,1-5,0H77.22Z"/>
    <path class="a" d="M41.13,81h-23c-3.51,0-4-.54-4.07-4,0-4.06.06-8.13-.07-12.19-.08-2.55.86-3.76,3.51-3.75q20.24,0,40.5-.06c2,0,2.83,1,3.48,2.79,1.64,4.66,3.44,9.29,5.45,13.81,1.12,2.65.92,3.4-1.93,3.4Z"/>
    <path class="a" d="M44.15,96.1H33.89c-2,0-6.48-4.54-6.25-6.49.06-.54,1.2-1.36,1.85-1.37q14.28-.12,28.56,0c2.47,0,2.94,1,1.64,3.12-1.75,2.92-3.65,5.45-7.79,4.81-2.53-.4-5.17-.08-7.75-.08Z"/>
    <g>
      <path class="a" d="M46.22,132.26c-2-.72-3.71-1-5-1.95-.77-.57-.81-2.13-1.18-3.25,1-.21,2-.73,2.82-.56a10,10,0,0,1,4,1.6,3.78,3.78,0,0,1,1,2.83C47.91,131.44,46.71,131.9,46.22,132.26Z"/>
      <path class="a" d="M41.76,113.79A28.76,28.76,0,0,1,46.89,116c.66.44.68,1.85,1,2.82-.89.27-1.83.87-2.66.74a10.31,10.31,0,0,1-4.11-1.5A3.8,3.8,0,0,1,40,115.27C40,114.77,41.15,114.26,41.76,113.79Z"/>
      <path class="a" d="M44.46,103.3c.46.07,1.59-.07,2.21.42a3.36,3.36,0,0,1,1.26,2.57c-.11.58-1.54,1.21-2.42,1.27a5.26,5.26,0,0,1-2.85-.86,12.91,12.91,0,0,1-2.18-2c.9-.45,1.79-.93,2.71-1.34C43.42,103.21,43.74,103.3,44.46,103.3Z"/>
      <path class="a" d="M43.92,144.27l-4-4.35c.62-.49,1.41-1.51,1.84-1.38,1.88.58,4.6.1,5.08,2.78C47,142,45.31,142.92,43.92,144.27Z"/>
    </g>
    <path class="a" d="M84,62.87a19.29,19.29,0,0,1-.12-11.67v-.05c.65-2.07,1.92-2.34,3.49-.87a61.39,61.39,0,0,1,5.45,5.49,3.16,3.16,0,0,1,.13,3,68.82,68.82,0,0,1-5.51,5.82c-1.25,1.26-2.49,1-3-.55A5.72,5.72,0,0,1,84,62.87Z"/>
    <path class="a" d="M115.42,51.84a19.37,19.37,0,0,1,.13,11.67v.06c-.66,2.07-1.92,2.33-3.49.86a60.09,60.09,0,0,1-5.45-5.49,3.13,3.13,0,0,1-.13-3,67.34,67.34,0,0,1,5.5-5.83c1.25-1.26,2.49-1,3.06.55C115.16,51.05,115.3,51.45,115.42,51.84Z"/>
    <path class="a" d="M94.48,41.83a19.37,19.37,0,0,1,11.67-.12h.06c2.07.66,2.33,1.92.86,3.49a61.39,61.39,0,0,1-5.49,5.45,3.13,3.13,0,0,1-3,.13,70.46,70.46,0,0,1-5.83-5.5c-1.26-1.25-1-2.5.56-3.06Z"/>
    <path class="a" d="M105.2,73.1a19.33,19.33,0,0,1-11.66.13h-.06c-2.07-.66-2.33-1.92-.86-3.49a57.63,57.63,0,0,1,5.49-5.45,3.13,3.13,0,0,1,3-.13,70.34,70.34,0,0,1,5.82,5.5c1.26,1.25.95,2.49-.55,3.06C106,72.84,105.6,73,105.2,73.1Z"/>
    <path class="a" d="M86.06,18.88H10.59A10.08,10.08,0,0,0,.12,28.55c0,.17,0,.33,0,.5C0,36.25.07,43.46,0,50.67c0,2.2.83,3.23,3.12,3.14,3-.1,5.91,0,8.87,0H57.18c2,0,3.51-.25,4-2.76,2.52-13.68,10.09-23.35,22.57-29l6.15-2.44a.34.34,0,0,0,.18-.46.35.35,0,0,0-.3-.21Z"/>
    <path class="a" d="M104.54,20.31l15.76,7.12a.76.76,0,0,0,1.08-.7V19.62a.76.76,0,0,0-.76-.76H104.85a.75.75,0,0,0-.75.77A.75.75,0,0,0,104.54,20.31Z"/>
  </g>
</svg>
