<svg xmlns="http://www.w3.org/2000/svg" width="192.06" height="200.02" viewBox="0 0 192.06 200.02">
  <defs>
    <style>
      .a {
        fill: #fff;
      }
    </style>
  </defs>
  <title>punching-drilling-riveting-REV02</title>
  <g>
    <path class="a" d="M14.53,120.57c7.48,0,15-.23,22.45-.07,9.39.2,6.79-1.61,11,6.66a2.12,2.12,0,0,1,.11.21c1.07,3.3,3.37,4.65,6.76,4.17,2.14-.3,2.75.67,2.71,2.72q-.16,7.88,0,15.76a4.21,4.21,0,0,0,1.32,3c3.33,2.28,6.84,4.3,10.78,1.07a2.26,2.26,0,0,1,.64-.32A3.55,3.55,0,0,0,72.62,150c-.08-4.93,0-9.87,0-14.81,0-3.8,0-3.9,3.89-3.71,2.47.12,4.09-.71,5-3.06.79-1.91,2-3.63,2.77-5.55s2.09-2.5,4.08-2.49q13.26.12,26.52,0c4,0,4.42-.45,4.43-4.39V74.21c0-3.81-.51-4.25-4.29-4.25H14.72c-3.33,0-3.82.51-3.83,3.7V116.9C10.92,119.79,11.8,120.58,14.53,120.57ZM95.41,82.75A14,14,0,1,1,81.47,96.81v-.06a14,14,0,0,1,13.9-14ZM68.35,148.41c0,2-1.49,2.74-3.17,2.89A2.92,2.92,0,0,1,62,148.71a2.82,2.82,0,0,1,0-.41L61.86,134c0-1.51.57-2.23,2.09-2.18h2.39a1.74,1.74,0,0,1,2,2C68.35,138.7,68.4,143.55,68.35,148.41Zm-3.12-27.55H77.85c2.12,0,2.26.48,1.49,2.42-1.12,2.85-2.79,4-6.07,3.81-5.93-.34-11.9-.07-17.85,0-2.1,0-5.33-3.17-5-5.21.07-.44,1.27-1,1.95-1C56.66,120.81,60.94,120.86,65.23,120.86ZM45.14,84.45a3.09,3.09,0,0,1,3.09-3.09h2.42a3.09,3.09,0,0,1,3.09,3.09h0a3.11,3.11,0,0,1-3.09,3.09H48.23A3.09,3.09,0,0,1,45.14,84.45Zm-10.47,0a3.09,3.09,0,0,1,3.09-3.09h2.42a3.09,3.09,0,0,1,3.09,3.09h0a3.09,3.09,0,0,1-3.09,3.09H37.76A3.09,3.09,0,0,1,34.67,84.45Zm.53,7.63H50.65a3.09,3.09,0,0,1,0,6.18H35.2a3.09,3.09,0,0,1,0-6.18ZM21,84.45a3.09,3.09,0,0,1,3.09-3.09h5.25a3.09,3.09,0,0,1,3.1,3.08h0a3.1,3.1,0,0,1-3.1,3.09H24.1A3.1,3.1,0,0,1,21,84.45Zm3.09,7.63h2.42a3.09,3.09,0,0,1,0,6.18H24.1a3.09,3.09,0,1,1,0-6.18ZM21,106.23a3.11,3.11,0,0,1,3.09-3.09H50.65a3.11,3.11,0,0,1,3.09,3.09h0a3.09,3.09,0,0,1-3.09,3.09H24.1a3.09,3.09,0,0,1-3.1-3.08Z" transform="translate(0.01 0.02)"/>
    <path class="a" d="M95.41,105.49A8.78,8.78,0,0,0,97.5,88.17v8.21a2.09,2.09,0,1,1-4.17.29,1.41,1.41,0,0,1,0-.29V88.17a8.78,8.78,0,0,0,2.08,17.32Z" transform="translate(0.01 0.02)"/>
    <path class="a" d="M190.26,73.78a11.5,11.5,0,0,0-1.66,0H139.4a11.64,11.64,0,0,0-1.67,0,1.9,1.9,0,0,0-1.9,1.92v.08a1.69,1.69,0,0,0,1.81,1.85c2.68-.38,2.57,1.24,2.45,3-.05.71,0,1.43,0,2.14,0,5.38,1.89,7.56,7.23,7.92,1.77.12,1.62,1.13,1.57,2.26s.5,2.6-1.56,2.42c-1.22-.1-2.55.22-2.63,1.47-.24,3.55-1,7.28.3,10.63,2.46,6.29,5.43,12.38,8.17,18.57.42.94,1,1.79,2.08,1.67,2.34-.28,2.39,1.08,2.26,2.75-.07.87,0,1.75,0,2.62-.12,3,.8,5.49,3.55,7a1.61,1.61,0,0,1,.89,1,5.35,5.35,0,0,1-2.72,6.36c-1,.58-2,1.26-1.54,2.61a1.94,1.94,0,0,0,2.3,1.5,1.84,1.84,0,0,0,.55-.21c1.39-.59,1.27.22,1.45,1.2.47,2.41-1.27,2.91-2.83,3.7-1,.52-2,1.34-1.43,2.64a1.94,1.94,0,0,0,2.36,1.38,1.86,1.86,0,0,0,.54-.24c.4-.19,1.12-.53,1.17.11.1,1.32.88,2.89-.8,3.85-.69.4-1.45.68-2.12,1.11-.91.59-1.67,1.35-1.13,2.56a2,2,0,0,0,2.55,1.19c.45-.13.89-.28,1.41-.44.76,2.73.09,4.4-2.49,5.23a2,2,0,0,0-1.57,2.36l.06.21a1.93,1.93,0,0,0,2.31,1.45,1.82,1.82,0,0,0,.56-.22c1.19-.58,1.24,0,1.41,1,.37,2.21-.87,3.12-2.64,3.85-1.13.47-2.18,1.29-1.62,2.76s1.62,1.63,3,1.1c.43-.17,1.11-.46,1.15.2.07,1.4.84,3.06-1.1,3.95a13.72,13.72,0,0,0-2.46,1.43,1.59,1.59,0,0,0-.51,2.13c.38.76,1.08,1.52,1.86,1.2,2.64-1.09,2.38.56,2.35,2.22a2,2,0,0,0,1.79,2.19H164a2,2,0,0,0,2-2,1.77,1.77,0,0,0,0-.23,6.84,6.84,0,0,0,0-1.43c-.38-2.47.24-4.29,2.87-5.15a1.83,1.83,0,0,0,1.47-2.12,2.38,2.38,0,0,0-.18-.51,1.85,1.85,0,0,0-2.3-1.25,1.82,1.82,0,0,0-.43.19c-1.32.64-1.29-.17-1.47-1.18-.43-2.39,1.24-2.94,2.83-3.72,1-.51,1.95-1.28,1.42-2.63-.38-1-1.27-1.73-2.25-1.31-2.5,1.07-1.85-.71-2-1.93-.2-2.06,1.66-2.05,2.75-2.79s2-1.31,1.48-2.62a2,2,0,0,0-2.33-1.45,2.11,2.11,0,0,0-.54.22c-1.17.56-1.22,0-1.39-1-.39-2.26.94-3.09,2.69-3.8,1.09-.44,2-1.26,1.61-2.56a2,2,0,0,0-2.41-1.48,2.07,2.07,0,0,0-.47.18c-1.15.49-1.24,0-1.43-1-.43-2.4,1.09-3.18,2.84-4,1.05-.48,2-1.3,1.41-2.63s-1.48-1.88-2.88-1.17c-1.22.62-1.2-.12-1.36-1-.36-2.1.76-3,2.5-3.69,1.16-.45,2.24-1.22,1.77-2.67s-1.63-1.84-3.06-1.2c-.84.38-1.19,0-1.17-.81,0-1.08-.22-2.14,1.09-2.87,2.47-1.36,3.36-3.69,3.35-6.42v-4.3c0-1,.23-1.57,1.32-1.44,1.86.21,2.66-.88,3.32-2.42a137.74,137.74,0,0,1,5.92-13c2.55-4.59,2.52-9.42,2.41-14.35,0-1.59-.74-2.71-2.43-2.55-2.48.24-1.83-1.47-2-2.79-.19-1.75.77-1.87,2.16-1.91,4.1-.12,6.58-2.74,6.64-6.84a30.54,30.54,0,0,0,0-3.58c-.17-1.81.17-2.89,2.37-2.66,1.2.13,1.89-.8,1.91-2A1.89,1.89,0,0,0,190.26,73.78Zm-24,60.73a2.25,2.25,0,0,1-2.27,2.23h-.08a2.12,2.12,0,0,1-2.23-2v-.06a38.87,38.87,0,0,1-.06-5.71c.11-1.85,1.65-1,2.6-1.11s2.06-.38,2.08,1.17v2.87h0a25.45,25.45,0,0,1-.05,2.62Zm11.17-24.41c-1.86,4-3.61,8-5.33,12a2.49,2.49,0,0,1-2.69,1.75c-3.66-.1-7.32-.09-11,0a2.36,2.36,0,0,1-2.56-1.59q-2.68-6.24-5.53-12.41c-.7-1.5.06-1.57,1.21-1.56H176.1c1.5-.06,2.1.17,1.32,1.81Zm1.83-8.09c.11,1.33,0,2.25-1.82,2.2-4.53-.14-9.07,0-13.6,0s-8.91-.07-13.36,0c-1.79,0-2-.83-1.86-2.2.09-1.2-.41-2.56,1.75-2.54q13.6.14,27.2,0c2.2,0,1.59,1.38,1.68,2.53ZM154.58,90.76q9.4.12,18.81,0c2.06,0,1.5,1.4,1.53,2.47s.4,2.29-1.49,2.23c-3.17-.1-6.35,0-9.52,0s-6.2-.1-9.29,0c-2,.08-1.69-1.15-1.67-2.32S152.57,90.73,154.58,90.76Zm22.31-4H147.77c-2.85,0-3.54-.71-3.57-3.49-.08-5.56-.08-5.56,5.35-5.56,10.58,0,21.15.05,31.73,0,1.83,0,2.45.41,2.43,2.36-.05,6.72,0,6.72-6.82,6.72Z" transform="translate(0.01 0.02)"/>
    <path class="a" d="M24.88,45.13c1.68-.27,2.2.51,2.13,2.17-.13,2.78,0,5.57-.06,8.35,0,1.3.42,1.91,1.78,1.88,3-.05,6.05,0,9.08,0,1.31,0,1.86-.53,1.83-1.86-.06-2.46,0-4.93,0-7.4,0-3.14,0-3.14,3-3.14h83.6q16.83,0,33.67,0c2,0,2.7-.53,2.56-2.56a45,45,0,0,1,0-7.16c.21-2.43-.79-2.89-3-2.88-27.31.07-54.62,0-81.92.08a14.3,14.3,0,0,1-9.83-3.55c-4.59-3.93-9.32-7.69-14-11.54a4.48,4.48,0,0,0-2.92-1.41c-6.45,0-12.91-.1-19.35.08-6.11.17-9.58,4-9.58,10.12,0,5.26.13,10.52-.06,15.76C21.74,44.56,22.45,45.52,24.88,45.13ZM39.56,28.59c0,2.25-2.21,4.09-5,4.12s-5-1.72-5.07-4,2.24-4.31,5.06-4.29S39.56,26.39,39.56,28.59Z" transform="translate(0.01 0.02)"/>
    <path class="a" d="M56.9,17.35l7.69,6.43a3,3,0,0,0,2.33.87c.29,0,.76-.14,1.23-.21l59.45-9.11c10.85-1.67,21.7-3.37,32.56-5,1.67-.25,2.21-.8,1.7-2.48a37.22,37.22,0,0,1-1.38-5.79c-.26-1.89-1.06-2.28-2.89-2C143.84,2.23,130.07,4.3,116.31,6.4l-58.75,9c-.59.09-1.42-.11-1.61.69S56.49,17,56.9,17.35Zm11.28.74L152.83,5c.39-.06.79-.13,1.18-.17.8-.09,1.76-.28,1.9.83s-.91,1.08-1.66,1.19L73.12,19.32l-4.4.68c-1.27,0-2.32-.24-2.33-1.21C66.37,18,67.52,18.19,68.18,18.09Z" transform="translate(0.01 0.02)"/>
    <path class="a" d="M128.38,184.83c-.56-.31-.84-1.49-.87-2.28-.1-2.78-.05-5.57,0-8.36,0-1.86-.85-2.79-2.75-2.78-3,0-6.06,0-9.08-.06-2.13,0-3.06.93-3,3,0,2.7,0,5.41.06,8.12,0,1.66-.54,2.59-2.3,2.59H85.78c-1.59,0-2.3-.77-2.26-2.38,0-2.7-.16-5.43.1-8.11a3.93,3.93,0,0,1,1.93-2.79c4.75-1.82,9.61-3.37,14.44-5q10.41-3.48,20.84-6.91c1.82-.6,3-1.51,2.27-3.66-.95-2.87-1.88-5.75-2.83-8.62-.69-2.1-2.1-2.58-4.13-1.9Q91.81,153.93,67.44,162a7.81,7.81,0,0,1-4.59,0c-16.27-5.32-32.48-10.77-48.71-16.18-2.5-.83-3.43-.35-4.3,2.22-.79,2.34-1.52,4.7-2.31,7-1.15,3.47-.86,4,2.68,5.13,11.48,3.8,23,7.62,34.4,11.56a3.62,3.62,0,0,1,2,2.47,53.13,53.13,0,0,1,0,8.83,2.88,2.88,0,0,1-2,2c-8.2.14-16.4.07-24.6.09-1.77,0-2.37-.87-2.32-2.54.08-2.71,0-5.42.06-8.12,0-2.08-.9-3.11-3-3.09H5.86c-2.27,0-3.14,1-3.08,3.22q.11,3.94,0,7.89c0,.8-.26,2-.79,2.31-1.86,1-2,2.53-2,4.25v6.45c0,4,.47,4.51,4.53,4.51H126.35c3.26,0,3.79-.54,3.82-3.71,0-2.39,0-4.77.07-7.16C130.27,187.41,130.2,185.85,128.38,184.83Zm-49-2.42c0,1.75-.74,2.44-2.43,2.43H65v-.06H53.83c-2.8,0-3.09-.39-3-3.25a44.27,44.27,0,0,0,0-4.75c-.09-2.32.32-2.61,2.62-1.84a70.08,70.08,0,0,0,8.61,2.75,16.36,16.36,0,0,0,6.5-.12,74.39,74.39,0,0,0,8.6-2.8c1.47-.51,2.14,0,2.14,1.47,0,2,0,4.11,0,6.17ZM14.1,152l-.27.15ZM5.64,175a.82.82,0,0,1,.82-.82H13.9a.82.82,0,0,1,.82.82h0v9.33a.82.82,0,0,1-.82.82H6.46a.82.82,0,0,1-.82-.82h0Zm119,9.33a.82.82,0,0,1-.82.82h-7.44a.82.82,0,0,1-.82-.82h0V175a.82.82,0,0,1,.82-.82h7.44a.82.82,0,0,1,.82.82h0Z" transform="translate(0.01 0.02)"/>
    <path class="a" d="M42.56,141.15a1.72,1.72,0,0,0-2.13,2.71l4.63,3.64a1.72,1.72,0,1,0,2.13-2.71h0Z" transform="translate(0.01 0.02)"/>
    <path class="a" d="M36.44,135.84,34.07,134a1.73,1.73,0,0,0-2.42.28h0a1.73,1.73,0,0,0,.29,2.43h0l2.37,1.85a1.72,1.72,0,1,0,2.13-2.71Z" transform="translate(0.01 0.02)"/>
    <path class="a" d="M88,140.85l-4.57,3.72a1.72,1.72,0,1,0,2.17,2.67h0l4.57-3.71A1.72,1.72,0,0,0,88,140.85Z" transform="translate(0.01 0.02)"/>
    <path class="a" d="M96.85,134.16l-2.34,1.9a1.72,1.72,0,1,0,2.17,2.67L99,136.84a1.72,1.72,0,0,0-2.17-2.68Z" transform="translate(0.01 0.02)"/>
  </g>
</svg>
