<svg xmlns="http://www.w3.org/2000/svg" width="197.31" height="200.02" viewBox="0 0 197.31 200.02">
  <defs>
    <style>
      .a {
        fill: #fff;
      }
    </style>
  </defs>
  <title>heatPressForming-bonding-REV02</title>
  <g>
    <path class="a" d="M197.29,116.3c0-4.33-.67-5-5-5H29.34c-1.31,0-2.62.22-3.92.16h-.19a2.16,2.16,0,0,1-2-2.32,2.2,2.2,0,0,1,.53-1.24,1.12,1.12,0,0,1,.2-.18,111.09,111.09,0,0,1,9.2-6.33c6.63-4.11,13.35-8.08,20-12.14,5.47-3.34,11-6.64,16.35-10.12L90.48,65.5l29.3-18.75c6.33-3.91,12.72-7.72,19.1-11.56,2.52-1.52,5.09-3,7.58-4.55,6.15-3.92,12.25-7.92,18.42-11.81,2.37-1.5,3.82-4.64,2.41-6.4-3-3.71-6.1-7.29-9.32-10.79-2-2.13-4.82-1.82-7.09-1.1L120.6,19c-4.44,2.88-8.93,5.66-13.38,8.51-3.13,2-6.2,4.11-9.36,6.07C91.61,37.45,85.29,41.25,79,45.12q-7.64,4.73-15.23,9.53c-3.51,2.22-7,4.5-10.46,6.75-4.44,2.85-8.85,5.74-13.33,8.52-1.29.81-2.66,1.72-1.7,3.18.44.68,2.52,1,3.42.54,3.35-1.63,6.57-3.56,9.75-5.52,2.35-1.45,4.5-3.2,6.83-4.67,2.79-1.76,5.71-3.34,8.51-5.07s5.65-3.71,8.52-5.48c2.67-1.64,5.46-3.07,8.1-4.75l21.7-13.71c2.23-1.34,4.5-2.65,6.7-4Q123,23.29,134.15,16.11c1.24-.8,2.52-1.55,3.77-2.34,3.8-2.42,7.52-5,11.43-7.24a6.88,6.88,0,0,1,9,1.67c3.22,4.5,4.14,7.62-2,10.28l-49.22,30.7c-5.86,3.71-11.66,7.5-17.5,11.24-2.78,1.77-5.62,3.44-8.39,5.23-3.33,2.17-6.58,4.48-9.93,6.62-4.1,2.62-8.27,5.11-12.4,7.67L43.52,89.57c-1.11.7-2.19,1.45-3.31,2.15-3.07,1.92-6.11,3.89-9.15,5.87-4.36,2.84-8.79,5.58-13,8.56a3.3,3.3,0,0,1-4.23.12,10.24,10.24,0,0,0-4.68-1.49c-2.77-.19-4.93-1.9-4.34-4.38a7.35,7.35,0,0,1,2.66-4c4.76-3.32,9.76-6.29,14.55-9.56a74.46,74.46,0,0,0,7-5.67c1.31-1.15.67-2.47-.66-2.83a4.71,4.71,0,0,0-3.25.7C19.5,82.52,13.9,86,8.48,89.74a29.6,29.6,0,0,0-6.49,6A8.67,8.67,0,0,0,.85,104.9a5.66,5.66,0,0,1-.07,5.22A8.36,8.36,0,0,0,4.33,121,4.44,4.44,0,0,1,7,125.41c-.06,1.31,0,2.62,0,3.94,0,4.31.49,4.74,4.76,5,1,.07,2.79.73,2.81,1.18a36.28,36.28,0,0,1-.43,7.65c-.31,1.89-1.71,3.68-1.73,5.52-.14,15.65-.09,31.3-.08,47,0,3.3.91,4.19,4.24,4.21h32c1.66,0,3.79.11,3.76-2.18,0-2.08-2-2-3.63-2h-5c-7.12-.16-7.12,1.63-7.08-7.29,0-4.41.24-4.59,4.58-4.59H160.83c7.35,0,6.7-.15,6.72,6.69,0,5.19,0,5.19-5.32,5.19H67.53c-1.92,0-5.11-.9-5.11,2,0,3.07,3.25,2.16,5.26,2.17,15.91.06,31.83,0,47.74,0H187.3c3.82,0,4.65-.82,4.66-4.61V179.55c0-2.05-.67-3.54-2.92-3.46s-2.7,1.67-2.64,3.5c.13,4.09.3,8.19.5,12.27.08,1.61.17,2.84-2.49,2.54a51.06,51.06,0,0,0-9.89,0c-2.25.19-2.24-1-2.14-2.4.19-2.6.56-5.19.63-7.79.1-4-1.81-5.87-5.88-5.87H134.61c-14.5,0-29-.18-43.52-.2-10,0-20.1.15-30.14.19q-12.72.06-25.44,0c-2.49,0-4,.73-4.09,3.51-.07,3.58-.3,7.15-.34,10.73A3.1,3.1,0,0,1,28,195.66H20.76a4.1,4.1,0,0,1-4.05-4.11v-38c0-4.42.12-4.55,4.57-4.55H182.61c3.61,0,3.78.17,3.78,3.89v9.71c0,1.82.49,3.45,2.67,3.45s2.92-1.52,2.9-3.55c0-4.63,0-9.27-.06-13.9,0-1.35-.15-3.08-1-4-1.84-2-2-4.17-1.89-6.56.15-3.28.63-3.74,3.89-3.79,3.47,0,4.31-.87,4.33-4.38C197.31,125.39,197.3,120.84,197.29,116.3ZM22.88,123.09h0a2.33,2.33,0,0,1,2.32-2.32h.57a14.46,14.46,0,0,1,2.28,0H178.63a2.11,2.11,0,0,1,.74.14,1.94,1.94,0,0,1,1.57,2.1v.08h0v.07a1.9,1.9,0,0,1-1.4,2,2.23,2.23,0,0,1-.92.19H25.2A2.32,2.32,0,0,1,22.88,123ZM4.94,113.76a4.38,4.38,0,0,1,4.21-4.43,4.72,4.72,0,0,1,4.35,4.36,4.57,4.57,0,0,1-4.3,4.08,4.1,4.1,0,0,1-4.26-3.92Z" transform="translate(0.01 0)"/>
    <path class="a" d="M102.51,96.26a2.3,2.3,0,0,0,2.66,3.09,1.53,1.53,0,0,0,.63-.3c6.18-5.08,5.74-11.3-.17-15.75-5-3.8-5.31-5.33-1.22-10,0,0,1.52-1.54.75-2.76a2.71,2.71,0,0,0-3.38-.89C96.15,72.22,94.54,80.48,99,84c1,.8,2,1.71,3,2.5,4,3.1,4.12,5.4.75,9.27A1.49,1.49,0,0,0,102.51,96.26Z" transform="translate(0.01 0)"/>
    <path class="a" d="M117.45,87.16a2.31,2.31,0,0,0,1.3,3,2.34,2.34,0,0,0,1.36.1,1.53,1.53,0,0,0,.63-.3c6.18-5.08,5.74-11.3-.17-15.75-5-3.8-5.31-5.34-1.22-10,0,0,1.52-1.55.75-2.76a2.71,2.71,0,0,0-3.38-.89c-5.63,2.54-7.24,10.8-2.74,14.31,1,.81,2,1.71,3,2.51,4,3.09,4.11,5.39.75,9.26A1.75,1.75,0,0,0,117.45,87.16Z" transform="translate(0.01 0)"/>
    <path class="a" d="M134.41,96.26a2.31,2.31,0,0,0,1.31,3,2.35,2.35,0,0,0,1.36.1,1.67,1.67,0,0,0,.63-.3c6.18-5.08,5.73-11.3-.17-15.75-5-3.8-5.31-5.33-1.22-10,0,0,1.52-1.54.75-2.76a2.71,2.71,0,0,0-3.38-.89c-5.64,2.54-7.24,10.8-2.74,14.32,1,.8,2,1.71,3,2.5,4,3.1,4.11,5.4.74,9.27A1.75,1.75,0,0,0,134.41,96.26Z" transform="translate(0.01 0)"/>
  </g>
</svg>
