<svg xmlns="http://www.w3.org/2000/svg" width="147.6" height="199.96" viewBox="0 0 147.6 199.96">
  <defs>
    <style>
      .a {
        fill: #fff;
      }
    </style>
  </defs>
  <title>lab</title>
  <g>
    <path class="a" d="M44.43,127c-2-9.84.3-17.69,8.41-23,6.77-4.47,14.13-4.74,21.1-.66,8.82,5.16,11.54,13.27,9.62,23.48,1.17.08,2.19.21,3.2.21,7.43,0,14.87-.06,22.29.09a4.16,4.16,0,0,1,3.18,1.73c5.66,12.44,11.23,24.92,16.6,37.49a23.48,23.48,0,0,1,1.77,8.22c.27,6.84-2.76,10.23-9.56,11.26a33.47,33.47,0,0,1-5,.38H31a27.86,27.86,0,0,1-8-1.32,8.87,8.87,0,0,1-6.45-10.68,48.81,48.81,0,0,1,3.1-10.31c4.91-11.28,10.19-22.39,15.07-33.68,1.1-2.55,2.41-3.47,5-3.16A44.09,44.09,0,0,0,44.43,127Zm19.43,9.42a15.77,15.77,0,0,0,15.84-15.7v0a16.05,16.05,0,0,0-15.79-15.61A15.72,15.72,0,0,0,48.33,120.5a15.44,15.44,0,0,0,14.92,15.94h.61Zm31.9,15A10.39,10.39,0,1,0,85.42,162h.11a10.2,10.2,0,0,0,10.24-10.16c0-.15,0-.29,0-.43ZM77,179.17a7,7,0,0,0,7.34-6.65v-.05a7.05,7.05,0,0,0-7.1-7h0a7,7,0,0,0-7,7v.09A6.77,6.77,0,0,0,77,179.17Z" transform="translate(-0.03)"/>
    <path class="a" d="M45.6,23.31H55V26.6c0,11.64-.38,23.3.15,34.91.29,6.29-2.22,11.36-4.56,16.67-11.8,26.73-23.69,53.41-35.34,80.2A121.93,121.93,0,0,0,9,176.56c-1.5,5.89,1.94,11.26,7.72,13A29.78,29.78,0,0,0,25,190.88q48.72.13,97.44,0a30.09,30.09,0,0,0,3.79-.3c10.47-1.4,14.65-7.11,11.82-17.39-1.75-6.36-4.51-12.48-7.19-18.54Q112.2,112.28,93.34,70a7.09,7.09,0,0,1-.7-2.79q-.06-21.27,0-42.55a8.58,8.58,0,0,1,.22-1.33h9V40.84c0,8.5-.59,17,0,25.49.23,3.59,2.62,7.07,4.14,10.56q18.47,42.3,37,84.6c2.82,6.49,4.8,13.17,4.62,20.41-.21,8.47-4.64,14.65-12.83,16.75a38.42,38.42,0,0,1-9.24,1.23c-34.83.08-69.65.15-104.48-.08a33.83,33.83,0,0,1-12.35-3C3,194.38.56,189.26.12,183.18c-.66-9,2.51-17.08,6-25.09Q25.61,113.57,45,69a11.4,11.4,0,0,0,.93-4.5c0-12.51-.21-25-.34-37.54C45.59,25.78,45.6,24.64,45.6,23.31Z" transform="translate(-0.03)"/>
    <path class="a" d="M73.81,16.87H48.6c-5.12,0-7.68-2.87-7.71-8.53C40.87,3,43.5,0,48.46,0H99.17c5,0,7.55,2.89,7.56,8.34s-2.64,8.51-7.71,8.52C90.61,16.89,82.21,16.87,73.81,16.87Z" transform="translate(-0.03)"/>
  </g>
</svg>
