<svg xmlns="http://www.w3.org/2000/svg" width="675" height="155" viewBox="0 0 675 155">
  <defs>
    <style>
      .a {
        fill: #d31621;
      }

      .b {
        fill: #fff;
      }
    </style>
  </defs>
  <title>white-PLM</title>
  <g>
    <rect class="a" width="208.41" height="155"/>
    <g>
      <path class="b" d="M70.05,84.1q-13-.51-26,0c-4.74.17-7.85,3.19-7.77,8,.09,4.66,3.11,7.64,7.86,8,4.11.34,8.27.09,12.39.09v-.09c4.53,0,9.07.34,13.56-.08s7.14-3.53,7.1-8S74.67,84.27,70.05,84.1Z"/>
      <path class="b" d="M141.7,69.86c-6.55,0-10.41,3.19-10.29,8.44s3.62,7.9,10.21,7.94c6.22,0,10.33-3,10.5-7.77C152.25,73.39,148.05,69.9,141.7,69.86Z"/>
      <path class="b" d="M45.6,35c3.53.21,7.1,0,10.63,0,4,0,7.9.21,11.8,0,4.79-.29,8.4-2.31,8.78-7.73.34-5-2.35-8.44-8.15-8.82a223.86,223.86,0,0,0-23.6-.21c-5.38.21-9,4.25-8.65,8.66C36.91,32.4,40.48,34.79,45.6,35Z"/>
      <path class="b" d="M25.26,89.34a8.52,8.52,0,0,0-8.52,8.51v30.57a8.52,8.52,0,0,0,17,0V97.85A8.51,8.51,0,0,0,25.26,89.34Z"/>
      <path class="b" d="M120.77,83.29a8.51,8.51,0,0,0-8.51,8.51v36.62a8.51,8.51,0,0,0,17,0V91.8A8.51,8.51,0,0,0,120.77,83.29Z"/>
      <path class="b" d="M168.82,92.91A8.51,8.51,0,1,0,155,102.8l21.26,30.48a8.51,8.51,0,0,0,13.86-9.88Z"/>
      <path class="b" d="M24.73,28.59a8.73,8.73,0,0,0-8,8.83V76.47a8.73,8.73,0,0,0,8,8.83,8.51,8.51,0,0,0,9-8.49V37.08A8.51,8.51,0,0,0,24.73,28.59Z"/>
      <path class="b" d="M88,28.59a8.73,8.73,0,0,0-8,8.83V76.47a8.73,8.73,0,0,0,8,8.83,8.51,8.51,0,0,0,9-8.49V37.08A8.51,8.51,0,0,0,88,28.59Z"/>
      <path class="b" d="M120.77,18.07a8.51,8.51,0,0,0-8.51,8.51V66.3a8.51,8.51,0,0,0,17,0V26.58A8.51,8.51,0,0,0,120.77,18.07Z"/>
      <path class="b" d="M155.81,66.32h0a8.52,8.52,0,0,0,11.84-2.19L190.16,31.4a8.51,8.51,0,0,0-14-9.65L153.62,54.48A8.52,8.52,0,0,0,155.81,66.32Z"/>
    </g>
    <g>
      <path class="b" d="M632.78,22.21a10.6,10.6,0,0,0-5.62-3.78,11.13,11.13,0,0,0-6.88.4,10.33,10.33,0,0,0-5.17,4.35l-48.2,82.87L518.7,23.18a10,10,0,0,0-2.19-2.62,10.25,10.25,0,0,0-2.89-1.69,12,12,0,0,0-3.3-.73,11.32,11.32,0,0,0-3.42.29,10.52,10.52,0,0,0-7.82,10.22V136.93h21.17V66.42L558,131.74a9.26,9.26,0,0,0,3.79,3.78,10.74,10.74,0,0,0,5.17,1.29,11.4,11.4,0,0,0,5.33-1.29,9.27,9.27,0,0,0,3.87-3.78l37.53-65.32v70.51H635V28.65A10.23,10.23,0,0,0,632.78,22.21Z"/>
      <path class="b" d="M401.5,18.07H380.25V126.12a10.76,10.76,0,0,0,.82,4.24,10.15,10.15,0,0,0,2.25,3.39,10.46,10.46,0,0,0,3.39,2.25,11,11,0,0,0,4.25.81h95.21V115.6H401.5Z"/>
      <path class="b" d="M363.11,40.55A44.9,44.9,0,0,0,358,32.06a34,34,0,0,0-7.53-7.16,37.8,37.8,0,0,0-10.22-5,42.6,42.6,0,0,0-13.06-1.86H278.54a33.5,33.5,0,0,0-9.76,1.61,29.58,29.58,0,0,0-9.8,5.18,28.33,28.33,0,0,0-7.53,9.35,30.23,30.23,0,0,0-3,14.08v88.52h21.51V48.29c0-2.81.74-5,2.23-6.46s3.67-2.23,6.53-2.23h48.48A19,19,0,0,1,334.62,41a16.19,16.19,0,0,1,5.5,3.77,17.47,17.47,0,0,1,3.6,5.8A28.12,28.12,0,0,1,345.45,58v9.77a19.65,19.65,0,0,1-1.32,7.41,15.93,15.93,0,0,1-3.72,5.59,17.86,17.86,0,0,1-5.75,3.69,25,25,0,0,1-7.48,1.69H278.54v21.53h48.64a42.63,42.63,0,0,0,8.47-.91,41.89,41.89,0,0,0,17.41-8,34.52,34.52,0,0,0,7.16-7.58,36.85,36.85,0,0,0,4.92-10.22A44.09,44.09,0,0,0,367,67.75V58a42.82,42.82,0,0,0-.91-8.49A40.5,40.5,0,0,0,363.11,40.55Z"/>
    </g>
  </g>
</svg>
