<svg xmlns="http://www.w3.org/2000/svg" width="205.99" height="199.99" viewBox="0 0 205.99 199.99">
  <defs>
    <style>
      .a {
        fill: #fff;
      }
    </style>
  </defs>
  <title>assembly-machine</title>
  <g>
    <path class="a" d="M86.31,23.73c3.75,0,7.51.09,11.26,0,2.46-.07,3.32,1,3.27,3.34-.11,4.52,0,9,0,13.57,0,3.41-.14,3.49-3.5,3A18.27,18.27,0,0,0,77,56.66C73.63,69,84.33,81,97,79.12c3.73-.56,3.76-.55,3.77,3.13,0,4.43-.1,8.87,0,13.31.07,2.59-1,3.43-3.48,3.39-7.08-.09-14.17,0-21.25,0-3.06,0-3.12.11-1.67,2.65,3.56,6.23,2.4,13.34-2.91,17.82a14.32,14.32,0,0,1-17.77.32c-5.64-4.51-7-11.48-3.51-17.9,1.4-2.56,1.25-2.87-1.62-2.88H27.83c-3.6,0-3.84-.24-3.86-3.71V80.92c0-2.21.71-2.92,3.06-2.66,10,1.13,18.46-4.24,20.78-13,3.2-12.1-6-23-19-22.47C24,42.92,24,42.92,24,38c0-2.65-.06-5.3,0-7.94.12-4.24,1.88-6.13,6.11-6.24,5.12-.15,10.24-.06,15.36-.07,4,0,4,0,2.58-3.72-3.65-9.2.28-17.61,9.22-19.6a13.66,13.66,0,0,1,14,4.41c3.59,4,4.34,8.7,2.38,13.83s-1.84,5.06,3.49,5.06Z" transform="translate(0.05 0.03)"/>
    <path class="a" d="M181.55,84.77c0,3.83-.05,7.67,0,11.51,0,1.82-.64,2.66-2.52,2.64q-7.82-.08-15.61,0c-2.19,0-2.49-1-2.18-2.91A18,18,0,0,0,146.5,75.26l-.11,0a18.33,18.33,0,0,0-21.08,13.93,17.6,17.6,0,0,0,0,7.37c.29,1.55-.29,2.31-1.82,2.32H107.11c-2,0-2.22-1.43-2.22-3v-22c.09-1.85-.66-2.07-2.11-1.17a14.49,14.49,0,0,1-8.47,2.45c-6-.3-10.44-3.25-12.7-8.8A12.7,12.7,0,0,1,84.5,51.92c4.21-4.33,9.32-5.38,15-3.55a10.18,10.18,0,0,1,1.18.5c4.16,1.9,4.16,1.91,4.16-2.62,0-6.4.07-12.8,0-19.19,0-2.39.8-3.4,3.25-3.35,5.12.1,10.24.08,15.36,0,2.26,0,2.93.76,2.56,3.07-1.5,9.56,4.26,18,13.73,20.37a18.4,18.4,0,0,0,21.64-11.58,19.05,19.05,0,0,0,.61-9.36c-.3-1.91.42-2.48,2.13-2.48,3.84,0,7.69-.08,11.52.06,4,.14,5.77,1.86,5.86,5.88.12,5.88,0,11.77,0,17.66,0,2.78.25,3,2.67,1.53,9.81-5.83,21.37,1,21.67,11.22s-10.57,17.26-20,13a15.5,15.5,0,0,1-2-1.09c-1.88-1.2-2.34-.41-2.31,1.49.07,3.75,0,7.5,0,11.26Z" transform="translate(0.05 0.03)"/>
    <path class="a" d="M100.81,164.41v10c0,3.35-.25,3.51-3.47,3.52H83c-3.57,0-3.57,0-3.17-3.54a18,18,0,0,0-14.29-19.83c-9.74-2-19,3.52-21.58,12.78a15.15,15.15,0,0,0-.16,7.85c.63,2.43-.34,2.81-2.38,2.76-3.75-.08-7.51,0-11.26,0-4.16,0-6.11-2-6.08-6.17.05-6.57.22-13.13.31-19.7,0-3.13,0-3.16-2.82-1.58-5.46,3.07-10.82,2.94-15.87-.71a12.89,12.89,0,0,1-5.46-13.5,13.75,13.75,0,0,1,16-11,15.14,15.14,0,0,1,1.61.4c.81.26,1.61.57,2.41.88C24,128,24,128,24,123.8V106.39c0-3.2.28-3.45,3.55-3.46H42.14c2.07,0,2.59.69,2.26,2.78-1.18,7.42,1.23,13.57,7.47,17.79,6.64,4.48,13.72,4.59,20.48.37,6.46-4,9.17-10.2,8.13-17.75-.34-2.47.25-3.25,2.66-3.2,4.77.09,9.55.12,14.33,0,2.44-.07,3.35.85,3.32,3.26-.08,6.65,0,13.31,0,20,0,3.93,0,3.93,3.47,2.2,8.23-4.09,18-.14,20.25,8.32,1.48,5.52.12,10.4-4.25,14.12-4.65,4-9.94,4.56-15.55,2.08a13.28,13.28,0,0,1-1.56-.88c-1.81-1.17-2.4-.46-2.38,1.45C100.84,157.07,100.81,160.74,100.81,164.41Z" transform="translate(0.05 0.03)"/>
    <path class="a" d="M119.13,177.93c-3.84,0-7.68-.07-11.51,0-2,0-2.76-.82-2.74-2.74q.06-7.42,0-14.84c0-2,.77-2.56,2.83-2.32,10,1.14,18-3.6,20.72-12,4-12.38-5.64-24.21-19.08-23.43-4.47.26-4.47.26-4.47-4.28,0-4.1.07-8.19,0-12.29,0-2.28.81-3.18,3.16-3.15,7.08.1,14.16,0,21.24,0,3.52,0,3.52,0,1.86-3a13.71,13.71,0,0,1,4.74-18.8c.28-.17.57-.32.86-.47a14.11,14.11,0,0,1,19.06,6l.27.54a13.41,13.41,0,0,1-.64,12.77c-1.63,3-1.62,3,1.88,3H178c3.31,0,3.59.25,3.61,3.42q.06,7.15,0,14.33c-.06,3.27-.12,3.27-3.4,2.8a18.32,18.32,0,0,0-20.6,14c-2.79,12,8.33,23.64,20.45,21.38,3.43-.64,3.58-.54,3.6,3,0,3.33.08,6.66,0,10-.15,4.25-2,6-6.22,6.07-6.14,0-12.29.07-18.43,0-2.27,0-2.44.56-1.33,2.42,3.92,6.62,2.83,13.76-2.63,18.21a5.87,5.87,0,0,1-4,1.46c-2.56-.06-5.12,0-7.68,0-6.58,0-11.22-4.57-11.5-11.23a14.36,14.36,0,0,1,2.17-8.27c1.41-2.34,1.28-2.53-1.37-2.55H119.19Z" transform="translate(0.05 0.03)"/>
  </g>
</svg>
