<svg xmlns="http://www.w3.org/2000/svg" width="217.07" height="200" viewBox="0 0 217.07 200">
  <defs>
    <style>
      .a {
        fill: #fdfefe;
      }
    </style>
  </defs>
  <title>3</title>
  <g>
    <path class="a" d="M217,175.82c0-3.5-1.7-5.24-5.16-5.28H200.47c-4-.08-4.41-.53-4.46-4.43,0-4.07,0-8.14-.16-12.21-.14-3.21-1.81-4.66-4.57-4.62-7.93.13-15.87.26-23.8.29-12.39.05-24.77,0-37.16,0H91.16c-10.59-.06-21.19-.33-31.79-.41s-21.37,0-32,0c-3.61,0-4.79.92-4.74,4.6.06,4.26.14,8.52.08,12.77-.05,3.09-1.11,4.08-4.16,4.1H6.9c-5.32,0-6.8,1.36-6.84,6.6Q0,186.36,0,195.59C0,199.05,1,200,4.41,200H212.6c3.74,0,4.47-.81,4.47-4.55Q217.06,185.63,217,175.82Zm-12,16.5c-22.45-.12-44.9-.14-67.36-.18h-28.7v.12h-96C9.27,192.26,9,192,9,188.37v-4.84c0-3.75.63-4.45,4.5-4.42s7.94.37,11.91.35c9.75-.05,19.5-.33,29.25-.34,7.75,0,15.51.28,23.26.35,6.9.07,13.81,0,20.71,0h65.61c13.25,0,26.49-.26,39.74-.37,4.13,0,4.6.48,4.61,4.54,0,1.7-.13,3.42,0,5.11C208.86,191.57,207.59,192.33,205,192.32Z"/>
    <path class="a" d="M192,0H25a4.68,4.68,0,0,0,0,9.36H87.47v8.56h0c.06,5.4,0,10.79,0,16.19,0,4.5-.29,4.79-4.75,5.07H81.1c-7.2-.13-14.41-.28-21.62-.37h0a3.5,3.5,0,0,0-3.33,2.36l-9.46,26.9c-1.53,3.74-4.9,3-8,3.06-5.31,0-6,3-5.93,10.13V94.17c-.17,4.91,1,7.61,4.86,7.61,15.15,0,29.26-.1,44.41-.11h53c15.15,0,29.26.11,44.42.11,3.81,0,5-2.7,4.86-7.61V81.26c0-7.17-.63-10.09-5.93-10.13-3.08,0-6.46.68-8-3.06L160.9,41.23a3.48,3.48,0,0,0-3.32-2.36h0c-7.21.09-14.41.24-21.62.37h-1.62c-4.45-.28-4.73-.57-4.75-5.07V18h0V9.37H192A4.69,4.69,0,0,0,192,0ZM99.38,14.23h18.28c2,0,3,.86,2.93,2.88v9.08h-.07c0,3,0,6.05,0,9.07,0,2-.81,3-2.81,3.08-3.06.07-6.13.12-9.19.18l-9.18-.18c-2-.05-2.85-1.09-2.82-3.08.06-3,0-6,0-9.07h-.08V17.11C96.42,15.09,97.35,14.21,99.38,14.23ZM150.1,47.68c5,0,5.42.37,6.88,5.24s2.91,9.56,4.51,14.29c1.21,3.58,1,4-2.89,4-7.55,0-15.11.12-22.66.18-9.14.07-18.28.16-27.42.22s-18.28-.15-27.41-.22c-7.56-.06-15.11-.15-22.67-.18-3.86,0-4.09-.4-2.88-4,1.59-4.73,3.06-9.51,4.5-14.29s1.87-5.24,6.89-5.24Z"/>
  </g>
</svg>
