<svg xmlns="http://www.w3.org/2000/svg" width="200.23" height="199.97" viewBox="0 0 200.23 199.97">
  <defs>
    <style>
      .a {
        fill: #fff;
      }

      .b {
        fill: #f2f2f2;
      }

      .c {
        fill: #e6e6e6;
      }
    </style>
  </defs>
  <title>paintTheEdge</title>
  <g>
    <path class="a" d="M.07,125c0-16,.15-32.06-.07-48.08C-.09,70.1,2.73,65.18,8.12,61.49c6.66-4.56,14.23-6.9,22-8.37,24.32-4.58,48.59-4.63,72.56,2a60.58,60.58,0,0,1,15,6.91c5.19,3.16,7.52,8.19,7.49,14.53q-.19,48.09,0,96.17c0,7.44-3.08,12.57-9.07,16.35-7,4.46-14.93,6.74-23,8.13-24.57,4.2-49,4.11-73-3.25-4.9-1.5-9.56-4.27-13.85-7.16S0,179.29,0,173.91C.14,157.59.07,141.28.07,125ZM75.63,99.52c0,6.15.36,12-.12,17.74a40.75,40.75,0,0,1-2.9,12.11c-1.89,4.51-6.53,5.32-10.5,2.41a41.5,41.5,0,0,1-3.84-3.42c-3.31-3.09-4.27-2.78-6.77.89a152.74,152.74,0,0,1-11,14.57,22.36,22.36,0,0,1-7.7,5.25c-3.93,1.79-6.91.62-8.73-3.31a48.91,48.91,0,0,1-3.39-10c-3-13.27-3.59-26.8-4-40.35a4,4,0,0,0-1.12-2.83,74.47,74.47,0,0,0-7-3.59c-.08.94-.18,1.68-.19,2.41v82.11c0,3.43,1.32,6.14,4.14,7.62,4.36,2.29,8.83,4.68,13.54,5.92,22.33,5.86,44.91,6,67.44,1.36,6.25-1.3,12.28-4,18.17-6.56,3.69-1.63,5.28-4.93,5.26-9.33-.16-26.79-.08-53.59-.08-80.39V88.94a71.28,71.28,0,0,0-6.56,3.38A4.15,4.15,0,0,0,108.5,95c-.23,2.84,0,5.71-.1,8.57s-1.73,4.73-4.25,4.65-3.91-1.79-4-4.64c-.05-2.45,0-4.91,0-7.69a35.09,35.09,0,0,1-4.77.87c-3.06.14-3.77,1.6-3.71,4.55.2,10.39.09,20.79.06,31.19,0,3.21-1.94,5.18-4.6,4.87-2.33-.27-3.67-2-3.68-5V102.05c0-1-.09-2-.15-3.26Zm-12.9-7.17c10-1.19,20.08-2.11,30.05-3.66,7.06-1.1,14-3.13,19.93-7.42,5.55-4,5.59-9.21-.17-12.94a38.06,38.06,0,0,0-10.63-4.76A151.08,151.08,0,0,0,28.3,62.11c-5.95,1.36-11.82,3.21-16.66,7.21-4.34,3.6-4.48,7.93.07,11.23a40.75,40.75,0,0,0,10.34,5.34C35.17,90.5,48.87,91.45,62.73,92.35ZM25.05,95.67c.8,15.5,1.54,30.54,5.24,45.91,1.84-1.53,3.38-2.41,4.39-3.71,3.5-4.49,7.08-9,10.13-13.73,4.27-6.7,9.41-8.14,16.12-3.86,1.73,1.1,3.32,2.42,5.31,3.87,1.56-8.24,1.39-16.12.7-24.22C52.83,100,39.08,99.2,25.05,95.67Z" transform="translate(0 -0.04)"/>
    <path class="b" d="M183.6,16.65h11c4.18,0,5.57,1.34,5.58,5.42,0,8.87,0,17.74,0,26.61a5.57,5.57,0,0,1-3.76,5.7c-13.22,5.91-26.38,12-39.61,17.87a3.73,3.73,0,0,0-2.6,4.06c.12,9.14.05,18.29.05,27.55,1.12.24,2,.39,2.92.62a12.18,12.18,0,0,1,9.53,11.76q.13,25.32,0,50.65a12.26,12.26,0,0,1-12,12.18c-3,.15-6.11.15-9.16,0a12.36,12.36,0,0,1-12.1-12.41q-.13-25,0-50.08c0-6.81,4.41-11.24,12.35-12.66.05-.92.14-1.92.14-2.93,0-9.63.07-19.26,0-28.89a5.55,5.55,0,0,1,3.74-5.71c13.31-6,26.55-12.06,39.86-18a3.31,3.31,0,0,0,2.35-3.61c-.13-6.46-.05-12.92-.05-19.56H183.5v3c-.11,8.42-5.17,13.45-13.66,13.47H97.74c-9.32,0-14.22-4.95-14.24-14.35V13c.1-7.87,5.31-13,13.21-13H170c8.46,0,13.45,5,13.54,13.55C183.47,14.49,183.54,15.42,183.6,16.65ZM133.29,33.29h36c4.55,0,5.85-1.27,5.86-5.69v-14c0-3.73-1.47-5.23-5.2-5.24H97c-3.9,0-5.25,1.45-5.27,5.44V27.53c0,4.57,1.26,5.78,5.76,5.79Zm8.56,108.43v24c0,3.61,1.42,4.95,5.06,5h6.85c3.1-.07,4.69-1.49,4.7-4.51q.09-24.59,0-49.15c0-3-1.61-4.5-4.66-4.62-2.09-.08-4.19,0-6.28,0-4.36,0-5.68,1.3-5.69,5.59,0,7.88,0,15.78,0,23.69Z" transform="translate(0 -0.04)"/>
    <path class="a" d="M25.05,95.67c14,3.53,27.78,4.37,41.89,4.26.69,8.1.86,16-.7,24.22-2-1.45-3.58-2.77-5.31-3.87-6.71-4.28-11.85-2.84-16.12,3.86-3.05,4.78-6.63,9.24-10.13,13.73-1,1.3-2.55,2.18-4.39,3.71C26.59,126.21,25.85,111.17,25.05,95.67Z" transform="translate(0 -0.04)"/>
    <path class="c" d="M133.29,33.29H97.53c-4.5,0-5.75-1.27-5.76-5.79s0-9.15,0-13.73c0-4,1.37-5.44,5.27-5.44h73c3.73,0,5.17,1.51,5.2,5.24v14c0,4.42-1.31,5.69-5.86,5.69Z" transform="translate(0 -0.04)"/>
    <path class="c" d="M141.85,141.72V118c0-4.29,1.33-5.56,5.69-5.59,2.09,0,4.19-.06,6.28,0,3.05.12,4.65,1.61,4.66,4.62q.08,24.57,0,49.15c0,3-1.6,4.44-4.7,4.51h-6.85c-3.64,0-5-1.38-5.06-5C141.82,157.72,141.85,149.72,141.85,141.72Z" transform="translate(0 -0.04)"/>
    <path class="a" d="M62.55,166.47c0,2.75.06,5.51,0,8.26a4.1,4.1,0,1,1-8.19.4,2.67,2.67,0,0,1,0-.4q-.12-8.13,0-16.25a4.07,4.07,0,0,1,3.79-4.33h.21c2.35-.08,4.15,1.72,4.22,4.37S62.55,163.8,62.55,166.47Z" transform="translate(0 -0.04)"/>
    <path class="a" d="M33.33,166.56c0,1.43.08,2.86,0,4.29-.16,2.46-1.57,3.93-4,4a3.71,3.71,0,0,1-4.13-3.25,3.26,3.26,0,0,1,0-.54,87.28,87.28,0,0,1,0-8.86,3.76,3.76,0,0,1,3.64-3.87,3.69,3.69,0,0,1,.47,0,3.82,3.82,0,0,1,4,3.59c0,.12,0,.23,0,.35C33.41,163.69,33.33,165.13,33.33,166.56Z" transform="translate(0 -0.04)"/>
  </g>
</svg>
