<svg xmlns="http://www.w3.org/2000/svg" width="173.45" height="199.99" viewBox="0 0 173.45 199.99">
  <defs>
    <style>
      .a {
        fill: #fff;
      }
    </style>
  </defs>
  <title>personal-tool</title>
  <g>
    <path class="a" d="M39.2,53.94c-.54-6.17.68-12.28,1.17-18.35.78-9.73,4.24-18.85,11.73-25.65A34.69,34.69,0,0,1,66.75,2.42,67.66,67.66,0,0,1,87.12.05c10.28.39,20.49,1.73,29.23,8a25.8,25.8,0,0,1,7.53,8.4,52.58,52.58,0,0,1,6.67,23.4c.31,6.51.88,13,.66,19.52a58,58,0,0,1-5,22.09A53,53,0,0,1,113.61,99c-6.5,5.93-13.83,10.36-22.56,12.46-7.64,1.84-14.38,0-21.09-3.49a53,53,0,0,1-14.44-10.3A57.4,57.4,0,0,1,41.89,74.52C39.79,67.76,39.57,60.86,39.2,53.94Z" transform="translate(0 -0.01)"/>
    <path class="a" d="M163.4,99.86V93.3c0-1.48.59-1.75,2-1,8.17,4.53,10.58,17,5.11,24.25a21.09,21.09,0,0,1-6.27,5.51,3.08,3.08,0,0,0-1.69,3v36.81a3.22,3.22,0,0,0,2,3.09c5.69,3.09,8.52,7.84,8.77,14.41a17.19,17.19,0,0,1-5.77,13.88c-1,.89-2.21,2-3.45,1.59s-.67-2.19-.69-3.35c-.07-3.6-.06-7.21,0-10.82,0-1.81-.61-2.57-2.5-2.5-2.94.12-5.9.14-8.84,0-2.18-.11-3.08.56-3,2.89.16,3.89,0,7.79,0,11.69,0,.73.27,1.61-.53,2.08s-1.33-.35-1.93-.76c-6.16-4.19-8.41-10.41-7.15-17.25.79-4.32,2.85-8.87,7.56-11,2.16-1,3-2.54,2.95-5-.1-11.6-.06-23.2,0-34.81a4.75,4.75,0,0,0-2.31-4.35c-5.72-4.35-10-9.87-8.31-17.62,1-4.79,3.42-9.2,7.93-11.86,1.71-1,1.83.36,1.83,1.6,0,3.81.07,7.62,0,11.42-.07,2.44.86,3.5,3.34,3.4a81.47,81.47,0,0,1,8.27,0c2.24.15,2.83-.79,2.7-2.83S163.4,101.85,163.4,99.86Z" transform="translate(0 -0.01)"/>
    <path class="a" d="M141.12,130.89a4.37,4.37,0,0,0-1.38-3.56l-8-9.46a12.2,12.2,0,0,0-3.66-2.92c-3.49-1.81-7-3.43-10.42-5.48-4-2.39-6.28-1.33-9.51.45l-14.71,7.69a5.53,5.53,0,0,0-2.6,2.91L85.58,134h-.77c-.82-2.35-3.13-9.43-4.34-13.13a8.16,8.16,0,0,0-1.66-2.71l-16-7.84c-4.32-2.41-5.74-3.18-10-.45a65.55,65.55,0,0,1-8.66,4.84L23.29,126.32A28.92,28.92,0,0,0,8.78,139.93C5.17,147,3,154.54.85,162.15c-1.92,6.89-.72,12.17,4.91,17.33a56.45,56.45,0,0,0,15,9.47,11.62,11.62,0,0,0,2,.72l28.94,7.6c7.56,1.39,15.14,1.41,22.68,2.18a226.86,226.86,0,0,0,24.74.37L116,198.58a10,10,0,0,0,1.34-.18c3-.61,12.51-2.81,13.73-3.15,2.51-.69,2.69-1.39,1.68-3.4-3.21-6.41-3.13-13.08-1.46-19.86a22.54,22.54,0,0,1,8-12.08,5,5,0,0,0,1.8-4.24Q141,143.28,141.12,130.89Z" transform="translate(0 -0.01)"/>
  </g>
</svg>
