<svg xmlns="http://www.w3.org/2000/svg" width="199.95" height="200.03" viewBox="0 0 199.95 200.03">
  <defs>
    <style>
      .a {
        fill: #fff;
      }
    </style>
  </defs>
  <title>quality-inspection-gauge</title>
  <g>
    <path class="a" d="M142.2,33.17C129.09,15.15,111.77,4.3,90.06,1S48.38,2.63,30.93,16C-.88,40.23-8.19,82.05,9.17,115c9.16,17.4,23.16,29.78,41.68,36.46,25.24,9.11,49.25,5.74,71.51-8.53,1.55,2.5,2.59,5.17,4.44,7,15,15.23,30.17,30.32,45.3,45.43a16.32,16.32,0,0,0,21.53,1c7.89-6.51,8.48-17.38,1.26-24.7-7.51-7.61-14.86-15.39-22.69-22.66-9.66-9-17.45-20.07-29.33-26.78,11.94-18.21,15.93-38.11,11.81-60a17.91,17.91,0,0,0-1.47,1.13c-5.13,5-10.29,9.93-15.34,15a5.33,5.33,0,0,0-1.52,3.15c-1,17.27-8.33,31.4-21.7,42.23-11.55,9.35-24.92,13.45-39.83,12.62a56.26,56.26,0,0,1-20.91-5.13,57,57,0,0,1-29.23-30,58.28,58.28,0,0,1,77.92-76A56.65,56.65,0,0,1,128,48.06a13.48,13.48,0,0,0-2.42,1.52q-8.39,8.09-16.69,16.27Q98.17,76.41,87.43,87c-1.13,1.11-1.9,1.5-3.24.15C80.53,83.46,76.72,79.91,73,76.3c-6.92-6.68-13.81-13.4-20.79-20a10.07,10.07,0,0,0-14.1,0c-4,4.13-3.93,10,.24,14.23,1.91,2,4,3.72,6,5.61Q61,92.2,77.62,108.31c5.59,5.41,11.1,5.41,16.66,0C99.64,103,105,97.79,110.39,92.54l41.39-40.67c6.3-6.19,12.65-12.32,18.91-18.55a40,40,0,0,0,5.22-5.95c2.77-4.18,1.46-9.63-2.79-12.93a9.63,9.63,0,0,0-12.39.75q-8.16,7.94-16.28,15.91C143.83,31.71,143.17,32.28,142.2,33.17Z" transform="translate(0 0)"/>
    <path class="a" d="M142.2,33.17c1-.89,1.63-1.46,2.25-2.07q8.15-8,16.28-15.91a9.63,9.63,0,0,1,12.39-.75c4.25,3.3,5.56,8.75,2.79,12.93a40,40,0,0,1-5.22,5.95c-6.26,6.23-12.61,12.36-18.91,18.55L110.39,92.54C105,97.79,99.64,103,94.28,108.26c-5.56,5.46-11.07,5.46-16.66,0Q61,92.2,44.29,76.11c-2-1.89-4.07-3.66-6-5.61-4.17-4.26-4.23-10.1-.24-14.23a10.07,10.07,0,0,1,14.1,0C59.15,62.9,66,69.62,73,76.3c3.76,3.61,7.57,7.16,11.23,10.86,1.34,1.35,2.11,1,3.24-.15Q98.18,76.39,109,65.85q8.32-8.16,16.69-16.27A12.86,12.86,0,0,1,128,48.06a56.58,56.58,0,0,0-25.44-22.8,58.28,58.28,0,0,0-77.92,76,57,57,0,0,0,29.23,30,56.26,56.26,0,0,0,20.91,5.13c14.91.83,28.28-3.27,39.83-12.62,13.37-10.83,20.66-25,21.7-42.23a5.33,5.33,0,0,1,1.52-3.15c5-5.06,10.21-10,15.34-15a17.91,17.91,0,0,1,1.47-1.13c4.12,21.94.13,41.84-11.81,60.05,11.88,6.71,19.67,17.79,29.33,26.78,7.83,7.27,15.18,15,22.69,22.66,7.22,7.32,6.63,18.19-1.26,24.7a16.32,16.32,0,0,1-21.53-1C157,180.29,141.82,165.2,126.8,150c-1.85-1.88-2.89-4.55-4.44-7.05-22.26,14.27-46.27,17.64-71.51,8.53A74.68,74.68,0,0,1,9.17,115C-8.19,82.05-.88,40.23,30.93,16,48.38,2.63,68.34-2.32,90.06,1S129.09,15.15,142.2,33.17Z" transform="translate(0 0)"/>
  </g>
</svg>
