<?xml version="1.0" standalone="no"?>
<!DOCTYPE svg PUBLIC "-//W3C//DTD SVG 20010904//EN"
 "http://www.w3.org/TR/2001/REC-SVG-20010904/DTD/svg10.dtd">
<svg version="1.0" xmlns="http://www.w3.org/2000/svg"
 width="634.000000pt" height="455.000000pt" viewBox="0 0 634.000000 455.000000"
 preserveAspectRatio="xMidYMid meet">
<metadata>
Created by potrace 1.16, written by Peter Selinger 2001-2019
</metadata>
<g transform="translate(0.000000,455.000000) scale(0.100000,-0.100000)"
fill="#000000" stroke="none">
<path d="M3215 4321 c-57 -38 -95 -76 -130 -135 -19 -32 -35 -67 -35 -76 0
-20 -25 -50 -41 -50 -5 0 -9 -13 -9 -30 0 -24 4 -30 21 -30 15 0 19 -5 15 -17
-2 -10 -8 -47 -11 -82 -4 -35 -21 -103 -37 -150 -28 -79 -31 -103 -39 -291 -7
-141 -13 -207 -22 -213 -9 -7 -9 -10 1 -14 17 -7 15 -33 -3 -33 -23 0 -18 -17
8 -25 20 -7 20 -8 3 -12 -12 -3 -25 3 -36 17 l-17 23 -369 -6 c-365 -5 -430
-11 -402 -35 10 -8 129 -12 430 -12 l415 -1 21 -47 c14 -30 24 -81 29 -142 l8
-95 30 2 c17 1 24 0 18 -3 -27 -12 -3 -74 28 -74 13 0 11 44 -3 58 -9 9 -9 12
1 12 26 0 5 115 -31 179 l-33 56 1 225 c1 182 5 250 23 355 21 125 30 159 32
119 10 -217 5 -285 -23 -268 -8 5 -9 -3 -5 -24 4 -19 2 -32 -3 -32 -6 0 -10
-5 -10 -11 0 -5 5 -7 12 -3 8 5 9 2 5 -9 -9 -23 10 -31 22 -10 9 15 10 16 11
2 0 -18 65 -25 75 -9 3 6 12 10 18 10 7 0 6 -4 -3 -11 -11 -8 0 -9 40 -6 96 9
90 30 90 -323 0 -193 4 -310 10 -310 16 0 30 36 19 47 -7 7 -5 12 5 16 12 5
16 0 16 -23 0 -28 2 -30 40 -30 38 0 40 2 40 29 0 17 -4 33 -10 36 -5 3 -10
17 -10 30 0 13 -5 27 -10 30 -8 5 -7 11 1 21 9 11 9 14 -1 14 -12 0 -12 77 0
95 4 6 10 27 14 47 7 36 8 37 63 44 32 4 181 4 333 0 344 -7 1370 -10 1390 -3
28 10 50 4 50 -14 0 -9 -7 -19 -15 -23 -30 -11 -14 -26 30 -26 33 0 45 4 45
15 0 8 -4 15 -10 15 -15 0 -12 26 5 40 8 7 13 15 11 19 -5 8 -71 5 -85 -4 -6
-3 -11 0 -11 7 0 12 -84 15 -492 17 -270 1 -495 4 -498 6 -4 3 -158 5 -343 5
-184 1 -367 4 -407 7 -153 13 -30 23 364 29 223 4 405 8 404 9 -2 2 -95 6
-208 10 -113 3 -241 10 -285 13 l-80 7 -5 355 -5 355 -29 55 c-54 104 -56 105
-156 125 l-90 19 -6 35 c-8 44 -39 98 -64 111 -30 16 -83 12 -115 -9z m78 -63
c38 -20 60 -58 34 -58 -7 0 -20 -9 -30 -20 -9 -11 -15 -20 -13 -20 1 0 0 -20
-4 -45 -4 -29 -3 -46 4 -49 6 -2 0 -5 -14 -6 -23 -1 -23 -2 -5 -10 19 -8 19
-9 -2 -9 -13 -1 -23 4 -23 10 0 5 -4 7 -10 4 -5 -3 -10 -1 -10 4 0 6 5 11 10
11 6 0 10 7 10 16 0 8 -4 12 -10 9 -5 -3 -10 1 -10 9 0 8 5 18 10 21 17 10 11
25 -7 18 -11 -4 -14 -3 -9 5 5 8 0 12 -13 12 -14 0 -19 5 -15 15 4 8 1 15 -5
15 -18 0 -12 32 11 57 24 25 66 30 101 11z"/>
<path d="M324 3273 c-78 -4 -82 -5 -93 -31 -12 -29 -9 -422 4 -453 5 -14 40
-17 242 -23 208 -6 238 -5 252 9 13 13 17 52 19 246 3 168 0 234 -9 245 -11
14 -172 17 -415 7z"/>
<path d="M2110 2888 c0 -5 11 -13 24 -18 16 -6 26 -18 28 -36 2 -17 10 -28 21
-30 19 -2 42 30 32 46 -3 6 3 10 14 10 18 0 19 -2 5 -27 l-14 -28 43 -6 c49
-7 57 -5 57 20 0 14 9 20 33 23 17 3 41 9 51 13 14 6 17 5 12 -3 -5 -8 2 -12
21 -12 27 1 27 1 9 15 -15 11 -16 15 -5 15 8 0 24 -7 35 -15 29 -22 74 -20 74
4 0 16 -9 21 -42 25 -77 10 -398 13 -398 4z"/>
<path d="M4720 2777 c0 -26 2 -27 113 -43 42 -6 52 -13 48 -36 -1 -8 70 -16
192 -22 49 -3 92 -7 95 -11 3 -3 -6 -65 -21 -138 -58 -293 -98 -481 -104 -490
-4 -6 9 -8 33 -4 71 10 189 29 202 33 7 2 12 22 12 53 l0 49 110 46 c60 25
112 46 115 46 3 0 25 9 48 19 23 11 87 37 142 59 165 66 197 81 190 92 -3 6
-15 6 -29 0 -13 -5 -27 -6 -31 -2 -13 13 -111 11 -148 -3 -20 -8 -40 -15 -42
-15 -11 0 -4 19 8 23 6 2 4 3 -5 2 -10 -2 -18 0 -18 4 0 4 -25 7 -56 7 -32 0
-48 -3 -37 -7 10 -4 12 -8 5 -8 -7 -1 -23 6 -36 14 -20 13 -28 13 -71 0 -27
-8 -51 -12 -54 -10 -2 3 2 5 10 5 10 1 9 4 -4 14 -14 11 -27 11 -58 3 -52 -13
-59 -4 -59 84 0 36 -3 93 -6 126 -6 56 -8 59 -30 55 -22 -4 -23 -2 -18 25 l6
30 -119 6 c-65 4 -178 10 -250 13 l-133 7 0 -26z m960 -407 c0 -7 7 -7 21 0
11 6 25 10 32 7 7 -2 -19 -14 -57 -26 -37 -12 -71 -20 -74 -17 -3 4 2 6 11 6
10 0 17 5 17 10 0 16 -22 12 -55 -10 -16 -11 -24 -20 -17 -20 7 0 11 -4 7 -10
-3 -5 -12 -7 -19 -4 -7 3 -16 -2 -19 -10 -4 -9 -11 -16 -17 -16 -6 0 -53 -18
-105 -40 -52 -22 -98 -40 -102 -40 -5 0 -10 13 -11 29 -1 20 3 30 15 34 10 3
90 31 178 61 163 57 195 64 195 46z"/>
<path d="M3000 2482 c0 -101 12 -148 41 -155 17 -5 19 -11 13 -41 -6 -35 -6
-36 26 -36 32 0 32 1 27 35 -4 27 -2 37 12 45 38 20 47 50 41 144 l-5 89 -77
4 -78 5 0 -90z"/>
<path d="M1944 2490 c-12 -5 -30 -20 -42 -34 -11 -14 -27 -26 -36 -26 -9 0
-19 -7 -22 -15 -7 -17 -44 -21 -44 -4 0 14 21 52 34 62 7 6 5 7 -5 4 -9 -3
-42 -11 -72 -18 -34 -8 -58 -20 -61 -29 -2 -8 -4 -2 -5 14 0 16 -4 27 -7 23
-8 -8 6 -108 15 -103 3 2 14 -1 22 -8 13 -9 3 -11 -50 -8 -72 3 -110 -10 -78
-29 9 -6 15 -14 12 -19 -8 -13 -35 0 -35 17 0 19 -50 13 -63 -8 -10 -17 -3
-74 13 -99 7 -11 28 -14 84 -14 41 0 73 -3 70 -8 -3 -4 -14 -8 -25 -8 -42 0
-16 -19 36 -25 30 -4 55 -11 55 -15 0 -5 38 -11 85 -15 46 -4 84 -10 83 -14
-1 -3 2 -14 6 -23 6 -14 20 -18 62 -18 30 0 62 5 72 11 13 8 94 -1 327 -35
171 -25 501 -72 735 -106 234 -34 436 -64 449 -67 20 -5 12 -10 -48 -30 -40
-13 -83 -24 -95 -25 -33 -1 -143 14 -291 42 -27 5 -87 14 -132 19 -45 6 -93
13 -106 16 -14 4 -28 2 -31 -4 -4 -6 -19 -10 -34 -10 -24 2 -24 2 -4 6 12 2
22 9 22 14 0 5 -3 8 -7 7 -13 -3 -135 14 -203 28 -36 8 -76 13 -90 13 -23 0
-24 -1 -5 -10 21 -10 12 -9 -100 7 -44 7 -47 9 -25 16 17 5 8 6 -25 3 -37 -3
-45 -2 -30 5 15 7 8 9 -28 5 -26 -2 -45 0 -42 5 3 4 -5 8 -18 8 -12 0 -40 5
-62 11 -22 6 -67 8 -100 6 -44 -4 -55 -3 -40 5 16 8 14 9 -12 4 -42 -7 -125 5
-117 18 4 6 -5 8 -25 3 -20 -4 -31 -3 -31 5 0 6 -4 9 -9 5 -5 -3 -12 -1 -15 4
-3 4 -19 11 -36 14 -33 7 -41 33 -12 40 9 3 3 5 -14 6 -20 1 -34 -5 -38 -14
-3 -8 -12 -15 -21 -15 -8 0 -15 -6 -15 -12 0 -8 -3 -9 -8 -3 -4 6 -29 11 -57
11 -27 1 -51 7 -53 13 -4 13 -51 14 -71 2 -12 -8 -8 -11 15 -16 16 -4 40 -10
54 -15 14 -5 42 -11 64 -15 21 -3 36 -9 32 -12 -5 -5 -67 4 -213 33 -40 8 -75
14 -78 14 -3 0 -5 12 -5 26 0 24 -3 26 -27 21 -81 -16 -83 -18 -83 -110 0 -58
5 -89 15 -103 11 -14 14 -15 15 -4 0 13 1 13 10 0 8 -12 10 -12 10 -1 0 8 3
12 6 9 3 -3 16 5 30 19 17 17 24 35 24 65 l0 40 38 -5 c20 -3 62 -12 92 -20
30 -8 78 -19 105 -23 l50 -9 -1 -96 c0 -54 -6 -109 -13 -127 -11 -26 -11 -34
3 -54 17 -24 21 -73 7 -82 -5 -3 -7 -15 -4 -25 4 -16 1 -19 -15 -14 -17 4 -20
1 -15 -17 3 -13 15 -25 25 -28 42 -11 87 -157 88 -284 1 -288 -160 -501 -366
-485 -72 5 -167 45 -184 76 -15 29 10 71 69 113 41 29 52 32 102 30 37 -3 67
2 86 12 44 22 91 80 103 126 10 36 14 40 33 34 12 -3 27 -11 34 -16 18 -15 23
6 8 35 -8 15 -10 27 -4 27 25 0 4 28 -40 53 -28 15 -53 36 -56 47 -3 11 -25
36 -48 55 l-42 36 -10 147 c-10 142 -11 147 -33 150 -34 5 -108 -27 -121 -51
-6 -12 -9 -31 -7 -42 3 -17 10 -20 57 -18 l54 2 -39 -15 c-22 -8 -49 -11 -60
-8 -19 6 -19 4 4 -20 19 -21 22 -29 11 -35 -7 -5 -23 -6 -35 -3 -17 4 -19 2
-9 -9 7 -7 13 -24 13 -39 0 -19 -9 -29 -38 -43 -39 -19 -56 -46 -68 -110 -3
-21 -13 -45 -22 -54 -12 -12 -13 -19 -4 -33 8 -14 8 -27 1 -50 -6 -17 -9 -39
-6 -50 4 -15 0 -20 -16 -20 -17 0 -19 -2 -8 -9 11 -7 7 -13 -15 -25 -25 -14
-26 -16 -5 -10 13 3 45 19 71 34 l47 28 37 -49 c20 -27 36 -50 36 -52 0 -3
-18 -17 -40 -32 -47 -33 -80 -82 -80 -119 0 -34 39 -71 108 -103 46 -22 64
-24 140 -21 66 2 99 9 134 26 106 52 183 151 224 287 17 55 19 57 22 28 3 -30
8 -34 65 -52 34 -11 76 -25 92 -30 17 -6 100 -32 185 -57 239 -70 513 -151
640 -188 63 -19 198 -58 300 -86 102 -29 277 -79 389 -111 113 -33 211 -59
218 -59 10 0 13 37 14 173 1 94 4 222 8 282 7 128 -7 119 146 92 84 -14 91
-14 115 3 50 35 217 119 224 113 6 -7 -1 -446 -9 -530 -2 -24 0 -43 5 -43 19
0 380 238 605 399 402 287 428 310 438 399 2 20 3 13 2 -15 -1 -33 2 -53 9
-53 22 0 450 301 538 379 16 13 28 29 28 34 0 5 7 15 15 21 10 8 17 46 23 136
5 69 7 129 4 133 -2 5 -11 2 -20 -6 -17 -13 -143 -90 -254 -153 l-58 -33 0 29
c0 31 7 37 145 110 107 57 229 123 234 127 2 2 2 5 -1 8 -6 7 -121 -50 -253
-124 -58 -34 -111 -61 -116 -61 -11 0 -12 90 -1 106 4 7 107 62 230 123 122
61 222 115 222 119 0 5 20 23 45 41 25 18 43 36 40 41 -3 5 -1 11 5 15 22 14
9 27 -21 21 -22 -4 -29 -2 -27 7 3 6 17 13 32 15 21 3 26 7 21 22 -4 13 0 20
15 25 11 3 20 11 20 16 0 12 -7 11 -38 -5 -45 -25 -205 -98 -242 -111 -19 -7
-105 -43 -190 -80 -85 -37 -193 -83 -240 -103 l-85 -37 52 -5 c28 -3 55 -8 58
-12 3 -3 -23 -19 -60 -36 -36 -17 -65 -33 -65 -37 0 -3 12 -4 28 -3 48 3 83
-2 78 -11 -6 -10 30 -22 38 -13 13 13 5 31 -11 26 -14 -5 -15 -4 -4 4 7 5 11
14 7 20 -10 17 12 24 34 12 18 -9 19 -14 9 -26 -11 -13 -8 -14 17 -9 l29 6
-24 -20 c-13 -12 -31 -21 -41 -21 -10 0 -20 -4 -22 -9 -1 -4 -39 -27 -83 -50
-87 -45 -112 -48 -250 -31 -44 5 -147 17 -229 25 -83 8 -154 19 -158 23 -5 5
-3 26 6 48 13 36 30 105 30 129 0 6 6 27 13 48 7 20 9 37 6 37 -8 0 -238 -69
-383 -115 -58 -18 -161 -50 -229 -71 -138 -43 -138 -47 10 -60 43 -3 79 -11
79 -17 0 -13 -95 -4 -440 39 -268 34 -339 43 -660 85 -85 11 -189 24 -230 29
-198 23 -265 32 -270 37 -3 3 16 3 42 1 27 -3 51 -1 57 5 8 8 11 7 11 -2 0 -7
9 -11 23 -9 18 2 22 9 21 36 -3 55 -9 62 -58 62 -35 0 -46 4 -51 19 -3 10 -30
29 -59 42 -50 22 -54 27 -66 72 -7 27 -23 61 -37 75 -14 15 -22 23 -20 17 3
-5 8 -28 11 -49 4 -21 9 -50 13 -64 5 -20 3 -23 -13 -19 -11 3 -62 15 -115 26
-105 22 -166 22 -180 0 -14 -22 -11 -33 6 -19 9 8 15 9 15 2 0 -6 -5 -14 -10
-17 -6 -4 -8 -12 -4 -18 3 -7 -2 -3 -10 7 -19 23 -19 31 -6 55 8 16 5 20 -22
25 -35 7 -50 0 -28 -14 11 -7 5 -10 -20 -10 -57 0 -76 9 -86 42 -15 50 -77 85
-120 68z m344 -152 c8 -18 11 -19 11 -5 1 9 5 17 10 17 19 0 187 -41 211 -51
14 -6 38 -13 54 -15 43 -5 66 -14 66 -25 0 -17 -289 -6 -299 10 -5 8 -17 11
-30 6 -15 -5 -21 -2 -21 9 0 19 -16 21 -23 4 -3 -7 -4 6 -4 30 1 47 9 53 25
20z m352 -203 c293 -37 455 -58 570 -71 117 -13 245 -29 435 -54 44 -5 98 -12
120 -15 22 -3 110 -13 195 -24 85 -11 183 -23 218 -26 79 -9 90 -25 35 -54
-27 -14 -43 -14 -23 0 11 8 6 9 -22 7 -20 -2 -35 -1 -33 2 2 4 -19 7 -48 8
-28 0 -81 6 -117 12 -87 14 -340 47 -365 48 -11 0 -45 3 -75 6 -48 5 -50 4
-20 -4 19 -6 94 -17 165 -26 72 -9 155 -20 185 -24 30 -4 95 -13 144 -19 92
-10 119 -22 99 -42 -18 -18 -163 -2 -156 17 3 8 -1 14 -10 14 -8 0 -17 -5 -19
-11 -3 -9 -45 -6 -153 10 -83 11 -162 21 -177 21 -18 0 -28 5 -28 15 0 17 -16
21 -22 5 -5 -16 -310 29 -325 48 -9 11 -16 12 -25 4 -20 -16 -308 26 -308 46
0 12 -3 12 -15 2 -22 -18 -264 16 -283 39 -10 13 -14 13 -21 3 -11 -18 -251
15 -267 36 -8 11 -13 12 -18 3 -8 -12 -103 -5 -119 9 -18 16 74 17 188 2 131
-17 142 -19 345 -48 102 -14 205 -28 230 -30 25 -2 90 -10 145 -18 126 -20
342 -46 374 -46 49 0 13 8 -104 24 -66 9 -149 21 -185 26 -36 6 -78 12 -95 14
-87 11 -285 37 -315 41 -71 11 -327 46 -410 56 -47 6 -87 13 -89 15 -9 8 294
-7 399 -21z m-890 -177 c0 -10 2 -10 8 0 9 13 137 -3 360 -44 45 -8 135 -24
200 -34 64 -10 207 -34 317 -54 110 -19 234 -39 275 -45 41 -6 138 -22 215
-36 150 -26 322 -54 500 -80 60 -9 113 -19 117 -21 5 -3 8 -22 8 -43 l0 -38
89 -17 c128 -23 131 -23 131 19 0 19 5 35 10 35 6 0 10 -15 9 -32 -3 -64 1
-80 21 -85 11 -3 20 -12 20 -19 0 -21 54 -17 100 6 46 23 77 26 77 6 0 -15
-11 -21 -92 -56 -36 -15 -61 -19 -90 -15 -35 5 -38 4 -23 -8 10 -8 15 -17 11
-20 -3 -4 1 -9 10 -13 9 -3 46 6 82 21 52 20 70 24 80 15 11 -9 24 -8 57 8
189 89 337 154 359 159 24 4 28 1 34 -26 4 -17 11 -31 16 -31 6 0 7 -4 4 -10
-3 -5 -1 -10 5 -10 6 0 8 -4 5 -10 -3 -5 -1 -10 6 -10 8 0 9 -3 3 -9 -9 -10
-234 -133 -374 -206 -41 -22 -97 -53 -125 -71 -27 -17 -85 -49 -129 -72 -62
-32 -84 -38 -105 -32 -14 4 -62 16 -106 25 -44 10 -102 23 -130 31 -27 7 -147
34 -265 59 -409 87 -649 140 -1075 235 -288 65 -579 129 -611 135 -45 9 -67
117 -45 220 6 28 13 80 16 118 4 37 11 67 16 67 5 0 9 -6 9 -12z m2975 -58
c-4 -20 -12 -30 -20 -26 -11 4 -131 -40 -240 -89 -64 -28 -233 -99 -288 -121
-50 -20 -65 -22 -105 -13 -26 5 -60 12 -77 14 -16 3 -61 10 -100 16 -193 30
-269 41 -369 54 -60 8 -111 17 -114 19 -12 13 75 16 135 6 37 -7 100 -16 138
-21 39 -4 90 -13 115 -18 25 -6 85 -15 135 -21 49 -6 92 -16 96 -21 6 -10 16
-7 96 27 17 8 34 14 38 14 7 0 205 75 240 91 60 26 321 127 323 124 2 -2 1
-18 -3 -35z m-3220 -676 c45 -26 47 -28 40 -63 -16 -87 -79 -144 -155 -139
-34 2 -44 7 -41 18 2 8 9 34 15 58 8 34 15 42 33 42 32 0 44 47 17 67 -19 14
-19 15 0 29 27 19 36 18 91 -12z"/>
<path d="M1090 2042 l-45 -18 3 -94 c1 -52 7 -99 11 -103 10 -10 91 23 107 44
7 9 9 44 5 99 -7 96 -10 99 -81 72z"/>
<path d="M1845 889 c3 -19 7 -49 9 -67 2 -18 6 -35 9 -39 8 -7 187 57 187 67
0 4 -41 19 -92 34 -50 16 -98 30 -105 33 -11 5 -13 -2 -8 -28z"/>
</g>
</svg>
