<?xml version="1.0" encoding="UTF-8"?>
<svg xmlns="http://www.w3.org/2000/svg" xmlns:xlink="http://www.w3.org/1999/xlink" width="18px" height="18px" viewBox="0 0 18 18" version="1.1">
<g id="surface1">
<path style=" stroke:none;fill-rule:nonzero;fill:rgb(0%,0%,0%);fill-opacity:1;" d="M 2.988281 0.0078125 C 2.964844 0.0117188 2.886719 0.0195312 2.8125 0.03125 C 2.191406 0.101562 1.523438 0.457031 1.09375 0.945312 C 0.703125 1.390625 0.457031 1.972656 0.410156 2.558594 C 0.390625 2.773438 0.40625 15.175781 0.421875 15.410156 C 0.496094 16.378906 1.046875 17.222656 1.902344 17.675781 C 2.152344 17.808594 2.445312 17.90625 2.769531 17.96875 C 2.898438 17.992188 3.238281 17.992188 8.910156 17.996094 C 13.234375 18 14.957031 17.996094 15.066406 17.984375 C 16.058594 17.886719 16.886719 17.316406 17.320312 16.433594 C 17.46875 16.125 17.554688 15.820312 17.59375 15.460938 C 17.601562 15.351562 17.605469 13.523438 17.601562 8.894531 L 17.597656 2.480469 L 17.566406 2.328125 C 17.496094 1.976562 17.382812 1.65625 17.226562 1.394531 C 16.757812 0.601562 15.96875 0.101562 15.050781 0.015625 C 14.910156 0 3.101562 -0.00390625 2.988281 0.0078125 Z M 14.054688 1.984375 C 14.109375 2.035156 14.148438 2.082031 14.144531 2.082031 C 14.144531 2.082031 14.09375 2.035156 14.042969 1.984375 C 13.988281 1.929688 13.945312 1.882812 13.953125 1.882812 C 13.953125 1.882812 14.003906 1.929688 14.054688 1.984375 Z M 14.191406 2.132812 C 14.207031 2.15625 14.207031 2.15625 14.1875 2.140625 C 14.164062 2.121094 14.15625 2.109375 14.167969 2.109375 C 14.167969 2.109375 14.179688 2.121094 14.191406 2.132812 Z M 14.355469 2.382812 C 14.480469 2.597656 14.566406 2.867188 14.597656 3.121094 C 14.605469 3.199219 14.609375 5.347656 14.609375 9.113281 C 14.609375 15.503906 14.617188 15.074219 14.535156 15.363281 C 14.496094 15.503906 14.375 15.753906 14.289062 15.886719 C 14 16.320312 13.519531 16.632812 12.992188 16.722656 C 12.835938 16.75 12.75 16.75 9.085938 16.746094 L 5.335938 16.742188 L 5.210938 16.710938 C 4.863281 16.628906 4.585938 16.488281 4.339844 16.273438 C 4.023438 16 3.8125 15.636719 3.703125 15.1875 C 3.679688 15.085938 3.675781 14.828125 3.675781 9.738281 C 3.675781 6.800781 3.679688 4.511719 3.683594 4.65625 C 3.699219 5.027344 3.703125 5.074219 3.707031 5.03125 C 3.714844 4.992188 3.730469 4.984375 3.917969 4.949219 C 3.960938 4.941406 4.027344 4.929688 4.058594 4.921875 C 4.132812 4.90625 4.234375 4.886719 4.339844 4.867188 C 4.382812 4.855469 4.449219 4.84375 4.480469 4.835938 C 4.511719 4.832031 4.574219 4.816406 4.621094 4.808594 C 4.664062 4.800781 4.730469 4.789062 4.761719 4.78125 C 4.792969 4.773438 4.855469 4.761719 4.902344 4.753906 C 4.945312 4.746094 5.007812 4.730469 5.035156 4.726562 C 5.0625 4.71875 5.121094 4.707031 5.167969 4.695312 C 5.214844 4.6875 5.277344 4.675781 5.308594 4.667969 C 5.339844 4.660156 5.390625 4.652344 5.417969 4.648438 L 5.46875 4.640625 L 5.472656 4.339844 C 5.476562 4.175781 5.480469 4.582031 5.480469 5.238281 C 5.484375 6.023438 5.488281 6.464844 5.5 6.519531 C 5.519531 6.625 5.605469 6.808594 5.671875 6.886719 C 5.785156 7.019531 5.902344 7.101562 6.082031 7.160156 L 6.179688 7.191406 L 12.171875 7.191406 L 12.285156 7.15625 C 12.5625 7.0625 12.757812 6.851562 12.835938 6.5625 C 12.855469 6.484375 12.859375 6.367188 12.859375 5.253906 C 12.859375 4.105469 12.859375 4.023438 12.835938 3.945312 C 12.746094 3.65625 12.539062 3.449219 12.25 3.351562 C 12.175781 3.328125 12.054688 3.324219 9.710938 3.320312 L 7.25 3.3125 L 9.71875 3.3125 C 11.078125 3.3125 12.183594 3.308594 12.175781 3.300781 C 12.164062 3.296875 12.183594 3.289062 12.214844 3.285156 C 12.246094 3.28125 12.300781 3.269531 12.339844 3.257812 C 12.492188 3.230469 12.527344 3.222656 12.605469 3.207031 C 12.652344 3.199219 12.714844 3.183594 12.746094 3.179688 C 12.777344 3.171875 12.84375 3.160156 12.886719 3.148438 C 12.933594 3.140625 12.996094 3.128906 13.027344 3.121094 C 13.058594 3.113281 13.125 3.101562 13.167969 3.09375 C 13.214844 3.085938 13.277344 3.074219 13.308594 3.066406 C 13.339844 3.058594 13.40625 3.046875 13.449219 3.039062 C 13.496094 3.027344 13.558594 3.015625 13.589844 3.007812 C 13.621094 3.003906 13.6875 2.988281 13.730469 2.980469 C 13.777344 2.972656 13.839844 2.960938 13.871094 2.953125 C 13.902344 2.945312 13.96875 2.933594 14.011719 2.925781 C 14.058594 2.917969 14.121094 2.902344 14.148438 2.898438 C 14.171875 2.890625 14.234375 2.878906 14.28125 2.867188 C 14.328125 2.859375 14.394531 2.84375 14.433594 2.835938 C 14.488281 2.824219 14.503906 2.824219 14.511719 2.839844 C 14.539062 2.882812 14.527344 2.824219 14.484375 2.695312 C 14.4375 2.558594 14.351562 2.386719 14.257812 2.246094 C 14.226562 2.195312 14.21875 2.179688 14.242188 2.207031 C 14.261719 2.230469 14.3125 2.308594 14.355469 2.382812 Z M 6.929688 3.3125 C 6.925781 3.316406 6.910156 3.320312 6.902344 3.316406 C 6.890625 3.308594 6.894531 3.304688 6.910156 3.304688 C 6.925781 3.304688 6.933594 3.308594 6.929688 3.3125 Z M 5.792969 3.503906 C 5.792969 3.507812 5.78125 3.523438 5.761719 3.539062 L 5.730469 3.566406 L 5.757812 3.53125 C 5.78125 3.503906 5.792969 3.496094 5.792969 3.503906 Z M 5.722656 3.574219 C 5.722656 3.578125 5.707031 3.597656 5.683594 3.617188 L 5.644531 3.648438 L 5.679688 3.609375 C 5.710938 3.574219 5.722656 3.566406 5.722656 3.574219 Z M 5.542969 3.847656 C 5.523438 3.878906 5.523438 3.867188 5.535156 3.832031 C 5.539062 3.820312 5.546875 3.8125 5.550781 3.816406 C 5.554688 3.820312 5.550781 3.835938 5.542969 3.847656 Z M 5.507812 3.953125 C 5.503906 3.964844 5.5 3.960938 5.5 3.945312 C 5.5 3.929688 5.503906 3.921875 5.507812 3.925781 C 5.511719 3.933594 5.511719 3.945312 5.507812 3.953125 Z M 5.496094 4.011719 C 5.488281 4.023438 5.484375 4.019531 5.484375 4.003906 C 5.484375 3.988281 5.488281 3.976562 5.492188 3.984375 C 5.496094 3.988281 5.5 4 5.496094 4.011719 Z M 5.496094 4.011719 "/>
<path style=" stroke:none;fill-rule:nonzero;fill:rgb(0%,0%,0%);fill-opacity:1;" d="M 14.527344 2.890625 C 14.527344 2.90625 14.53125 2.910156 14.535156 2.898438 C 14.539062 2.890625 14.539062 2.878906 14.535156 2.871094 C 14.53125 2.867188 14.527344 2.875 14.527344 2.890625 Z M 14.527344 2.890625 "/>
<path style=" stroke:none;fill-rule:nonzero;fill:rgb(0%,0%,0%);fill-opacity:1;" d="M 12.242188 3.332031 C 12.28125 3.351562 12.300781 3.351562 12.277344 3.332031 C 12.265625 3.324219 12.246094 3.320312 12.234375 3.320312 C 12.21875 3.320312 12.222656 3.324219 12.242188 3.332031 Z M 12.242188 3.332031 "/>
<path style=" stroke:none;fill-rule:nonzero;fill:rgb(0%,0%,0%);fill-opacity:1;" d="M 6.480469 8.304688 C 6.203125 8.378906 6 8.617188 5.980469 8.882812 C 5.972656 9.019531 5.992188 9.117188 6.050781 9.230469 C 6.261719 9.636719 6.863281 9.714844 7.191406 9.382812 C 7.332031 9.242188 7.394531 9.082031 7.378906 8.882812 C 7.359375 8.617188 7.160156 8.386719 6.878906 8.304688 C 6.785156 8.277344 6.574219 8.277344 6.480469 8.304688 Z M 6.480469 8.304688 "/>
<path style=" stroke:none;fill-rule:nonzero;fill:rgb(0%,0%,0%);fill-opacity:1;" d="M 11.832031 8.304688 C 11.695312 8.332031 11.558594 8.414062 11.460938 8.515625 C 11.214844 8.777344 11.21875 9.140625 11.472656 9.394531 C 11.621094 9.542969 11.773438 9.605469 11.988281 9.605469 C 12.28125 9.605469 12.515625 9.464844 12.636719 9.21875 C 12.726562 9.039062 12.71875 8.839844 12.621094 8.65625 C 12.53125 8.484375 12.347656 8.347656 12.144531 8.304688 C 12.023438 8.277344 11.945312 8.277344 11.832031 8.304688 Z M 11.832031 8.304688 "/>
<path style=" stroke:none;fill-rule:nonzero;fill:rgb(0%,0%,0%);fill-opacity:1;" d="M 8.292969 8.339844 C 8.132812 8.378906 7.921875 8.542969 7.847656 8.695312 C 7.671875 9.042969 7.839844 9.445312 8.222656 9.59375 C 8.324219 9.632812 8.53125 9.644531 8.648438 9.617188 C 8.996094 9.542969 9.234375 9.21875 9.183594 8.890625 C 9.144531 8.632812 8.921875 8.398438 8.664062 8.339844 C 8.585938 8.320312 8.367188 8.320312 8.292969 8.339844 Z M 8.292969 8.339844 "/>
<path style=" stroke:none;fill-rule:nonzero;fill:rgb(0%,0%,0%);fill-opacity:1;" d="M 10.035156 8.339844 C 9.925781 8.367188 9.796875 8.441406 9.707031 8.53125 C 9.40625 8.828125 9.460938 9.289062 9.820312 9.523438 C 10.027344 9.65625 10.3125 9.671875 10.542969 9.566406 C 10.914062 9.394531 11.039062 8.960938 10.820312 8.625 C 10.734375 8.5 10.589844 8.398438 10.421875 8.347656 C 10.335938 8.320312 10.128906 8.320312 10.035156 8.339844 Z M 10.035156 8.339844 "/>
<path style=" stroke:none;fill-rule:nonzero;fill:rgb(0%,0%,0%);fill-opacity:1;" d="M 6.480469 9.863281 C 6.242188 9.925781 6.054688 10.097656 5.988281 10.3125 C 5.945312 10.457031 5.953125 10.632812 6.015625 10.761719 C 6.097656 10.933594 6.261719 11.074219 6.457031 11.132812 C 6.578125 11.167969 6.777344 11.164062 6.902344 11.121094 C 7.179688 11.023438 7.367188 10.773438 7.367188 10.503906 C 7.367188 10.230469 7.191406 9.992188 6.910156 9.886719 C 6.800781 9.847656 6.59375 9.835938 6.480469 9.863281 Z M 6.480469 9.863281 "/>
<path style=" stroke:none;fill-rule:nonzero;fill:rgb(0%,0%,0%);fill-opacity:1;" d="M 11.789062 9.886719 C 11.648438 9.921875 11.554688 9.976562 11.460938 10.070312 C 11.3125 10.214844 11.242188 10.425781 11.277344 10.613281 C 11.3125 10.8125 11.441406 10.992188 11.613281 11.085938 C 11.699219 11.132812 11.878906 11.179688 11.96875 11.179688 C 12.316406 11.179688 12.617188 10.9375 12.675781 10.613281 C 12.71875 10.34375 12.566406 10.0625 12.300781 9.9375 C 12.128906 9.855469 11.96875 9.839844 11.789062 9.886719 Z M 11.789062 9.886719 "/>
<path style=" stroke:none;fill-rule:nonzero;fill:rgb(0%,0%,0%);fill-opacity:1;" d="M 8.363281 9.902344 C 8.175781 9.925781 8.019531 10.011719 7.898438 10.160156 C 7.808594 10.269531 7.773438 10.371094 7.765625 10.519531 C 7.75 10.777344 7.878906 10.996094 8.109375 11.121094 C 8.476562 11.316406 8.929688 11.179688 9.109375 10.816406 C 9.160156 10.710938 9.160156 10.707031 9.160156 10.554688 C 9.160156 10.402344 9.160156 10.394531 9.109375 10.289062 C 8.972656 10.015625 8.683594 9.863281 8.363281 9.902344 Z M 8.363281 9.902344 "/>
<path style=" stroke:none;fill-rule:nonzero;fill:rgb(0%,0%,0%);fill-opacity:1;" d="M 10.101562 9.898438 C 9.71875 9.957031 9.445312 10.296875 9.503906 10.648438 C 9.582031 11.097656 10.105469 11.34375 10.542969 11.128906 C 10.640625 11.082031 10.78125 10.949219 10.832031 10.859375 C 11.007812 10.539062 10.882812 10.15625 10.550781 9.980469 C 10.410156 9.90625 10.246094 9.878906 10.101562 9.898438 Z M 10.101562 9.898438 "/>
<path style=" stroke:none;fill-rule:nonzero;fill:rgb(0%,0%,0%);fill-opacity:1;" d="M 6.371094 11.492188 C 6.171875 11.5625 6.03125 11.679688 5.953125 11.851562 C 5.835938 12.097656 5.890625 12.375 6.09375 12.570312 C 6.238281 12.707031 6.394531 12.769531 6.59375 12.769531 C 7.105469 12.769531 7.449219 12.285156 7.246094 11.847656 C 7.167969 11.683594 7.003906 11.546875 6.824219 11.488281 C 6.695312 11.449219 6.492188 11.449219 6.371094 11.492188 Z M 6.371094 11.492188 "/>
<path style=" stroke:none;fill-rule:nonzero;fill:rgb(0%,0%,0%);fill-opacity:1;" d="M 11.714844 11.496094 C 11.519531 11.550781 11.359375 11.683594 11.269531 11.863281 C 11.222656 11.957031 11.214844 11.984375 11.210938 12.09375 C 11.203125 12.195312 11.210938 12.238281 11.234375 12.316406 C 11.289062 12.5 11.449219 12.664062 11.652344 12.742188 C 11.765625 12.785156 11.988281 12.796875 12.101562 12.761719 C 12.285156 12.707031 12.417969 12.617188 12.515625 12.472656 C 12.585938 12.363281 12.617188 12.269531 12.617188 12.132812 C 12.617188 11.859375 12.445312 11.621094 12.167969 11.515625 C 12.0625 11.476562 11.828125 11.464844 11.714844 11.496094 Z M 11.714844 11.496094 "/>
<path style=" stroke:none;fill-rule:nonzero;fill:rgb(0%,0%,0%);fill-opacity:1;" d="M 8.199219 11.527344 C 7.875 11.613281 7.648438 11.945312 7.703125 12.253906 C 7.78125 12.714844 8.308594 12.960938 8.746094 12.738281 C 8.996094 12.609375 9.144531 12.328125 9.101562 12.074219 C 9.046875 11.738281 8.753906 11.5 8.398438 11.503906 C 8.332031 11.503906 8.242188 11.515625 8.199219 11.527344 Z M 8.199219 11.527344 "/>
<path style=" stroke:none;fill-rule:nonzero;fill:rgb(0%,0%,0%);fill-opacity:1;" d="M 9.945312 11.527344 C 9.835938 11.554688 9.738281 11.609375 9.644531 11.695312 C 9.382812 11.941406 9.363281 12.328125 9.605469 12.589844 C 9.871094 12.882812 10.34375 12.898438 10.632812 12.632812 C 11.019531 12.277344 10.847656 11.660156 10.324219 11.523438 C 10.226562 11.496094 10.042969 11.5 9.945312 11.527344 Z M 9.945312 11.527344 "/>
<path style=" stroke:none;fill-rule:nonzero;fill:rgb(0%,0%,0%);fill-opacity:1;" d="M 6.480469 13.007812 C 6.371094 13.023438 6.238281 13.082031 6.148438 13.148438 C 5.847656 13.378906 5.804688 13.808594 6.058594 14.082031 C 6.1875 14.222656 6.355469 14.296875 6.554688 14.3125 C 7.183594 14.351562 7.542969 13.660156 7.121094 13.21875 C 6.964844 13.054688 6.714844 12.972656 6.480469 13.007812 Z M 6.480469 13.007812 "/>
<path style=" stroke:none;fill-rule:nonzero;fill:rgb(0%,0%,0%);fill-opacity:1;" d="M 11.90625 13.042969 C 11.691406 13.097656 11.496094 13.265625 11.421875 13.464844 C 11.296875 13.816406 11.496094 14.195312 11.867188 14.3125 C 11.917969 14.328125 11.992188 14.335938 12.085938 14.335938 C 12.179688 14.335938 12.253906 14.328125 12.304688 14.3125 C 12.628906 14.210938 12.839844 13.898438 12.785156 13.589844 C 12.71875 13.199219 12.3125 12.945312 11.90625 13.042969 Z M 11.90625 13.042969 "/>
<path style=" stroke:none;fill-rule:nonzero;fill:rgb(0%,0%,0%);fill-opacity:1;" d="M 8.269531 13.058594 C 8.128906 13.082031 7.957031 13.175781 7.859375 13.285156 C 7.597656 13.574219 7.65625 14.015625 7.980469 14.234375 C 8.121094 14.328125 8.230469 14.359375 8.394531 14.363281 C 8.609375 14.363281 8.777344 14.292969 8.921875 14.148438 C 9.171875 13.898438 9.171875 13.515625 8.917969 13.257812 C 8.757812 13.097656 8.503906 13.023438 8.269531 13.058594 Z M 8.269531 13.058594 "/>
<path style=" stroke:none;fill-rule:nonzero;fill:rgb(0%,0%,0%);fill-opacity:1;" d="M 9.992188 13.0625 C 9.84375 13.09375 9.710938 13.167969 9.601562 13.285156 C 9.421875 13.480469 9.386719 13.757812 9.511719 14 C 9.691406 14.355469 10.191406 14.472656 10.542969 14.25 C 10.894531 14.015625 10.945312 13.546875 10.648438 13.253906 C 10.484375 13.089844 10.226562 13.019531 9.992188 13.0625 Z M 9.992188 13.0625 "/>
</g>
</svg>
