<?xml version="1.0" encoding="UTF-8"?>
<svg xmlns="http://www.w3.org/2000/svg" xmlns:xlink="http://www.w3.org/1999/xlink" width="18px" height="18px" viewBox="0 0 18 18" version="1.1">
  <g id="surface1">
    <path style=" stroke:none;fill-rule:nonzero;fill:rgb(0%,0%,0%);fill-opacity:1;" d="M 10.066406 8.214844 C 6.695312 8.214844 3.664062 10.238281 2.316406 13.042969 C 3.773438 15.964844 6.695312 17.875 10.066406 17.875 C 13.4375 17.875 16.472656 15.851562 17.820312 13.042969 C 16.359375 10.238281 13.4375 8.214844 10.066406 8.214844 Z M 14.226562 10.347656 C 15.238281 11.023438 16.136719 11.921875 16.695312 13.042969 C 16.023438 14.054688 15.238281 15.066406 14.226562 15.742188 C 12.988281 16.640625 11.527344 17.089844 9.957031 17.089844 C 8.496094 17.089844 7.035156 16.640625 5.6875 15.742188 C 4.675781 15.066406 3.777344 14.167969 3.214844 13.042969 C 3.890625 12.03125 4.675781 11.019531 5.6875 10.347656 C 5.796875 10.347656 5.796875 10.238281 5.910156 10.238281 C 5.800781 10.6875 5.6875 11.25 5.6875 11.808594 C 5.6875 14.28125 7.597656 16.304688 9.957031 16.304688 C 12.316406 16.304688 14.226562 14.28125 14.226562 11.808594 C 14.226562 11.25 14.113281 10.796875 14 10.238281 C 14.113281 10.347656 14.226562 10.347656 14.226562 10.347656 Z M 10.742188 12.03125 C 10.742188 13.042969 9.957031 13.832031 8.945312 13.832031 C 7.933594 13.832031 7.144531 13.042969 7.144531 12.03125 C 7.144531 11.019531 7.933594 10.234375 8.945312 10.234375 C 9.84375 10.238281 10.742188 11.023438 10.742188 12.03125 Z M 10.742188 12.03125 "/>
    <path style=" stroke:none;fill-rule:nonzero;fill:rgb(0%,0%,0%);fill-opacity:1;" d="M 10.066406 7.203125 C 9.730469 7.203125 9.390625 7.203125 9.054688 7.3125 L 11.078125 7.3125 C 10.742188 7.316406 10.402344 7.203125 10.066406 7.203125 Z M 10.066406 7.203125 "/>
    <path style=" stroke:none;fill-rule:nonzero;fill:rgb(0%,0%,0%);fill-opacity:1;" d="M 1.527344 16.863281 C 1.417969 16.863281 1.304688 16.753906 1.304688 16.527344 L 1.304688 14.28125 C 1.078125 13.945312 0.851562 13.496094 0.628906 13.15625 C 0.851562 12.707031 1.078125 12.371094 1.304688 12.035156 L 1.304688 1.359375 C 1.304688 1.25 1.414062 1.136719 1.527344 1.136719 L 10.292969 1.136719 L 10.292969 5.070312 C 10.292969 5.40625 10.515625 5.628906 10.855469 5.628906 L 14.785156 5.628906 L 14.785156 8.441406 C 15.125 8.664062 15.574219 8.890625 15.910156 9.113281 L 15.910156 5.628906 C 15.910156 5.402344 15.796875 4.953125 15.125 4.054688 C 14.785156 3.492188 14.226562 2.820312 13.664062 2.257812 C 13.101562 1.695312 12.425781 1.132812 11.867188 0.683594 C 10.964844 0.125 10.515625 0.0117188 10.292969 0.0117188 L 1.527344 0.0117188 C 0.855469 0.0117188 0.179688 0.6875 0.179688 1.359375 L 0.179688 16.527344 C 0.179688 17.3125 0.855469 17.988281 1.527344 17.988281 L 5.460938 17.988281 C 4.785156 17.652344 4.222656 17.3125 3.664062 16.863281 Z M 11.414062 1.808594 C 11.867188 2.144531 12.3125 2.59375 12.875 3.046875 C 13.4375 3.605469 13.886719 4.058594 14.113281 4.503906 L 11.414062 4.503906 Z M 11.414062 1.808594 "/>
    <path style=" stroke:none;fill-rule:nonzero;fill:rgb(0%,0%,0%);fill-opacity:1;" d="M 4.113281 7.316406 C 3.777344 7.316406 3.550781 7.539062 3.550781 7.875 C 3.550781 8.214844 3.777344 8.4375 4.113281 8.4375 L 5.234375 8.4375 C 6.359375 7.875 7.707031 7.425781 9.054688 7.316406 Z M 4.113281 7.316406 "/>
    <path style=" stroke:none;fill-rule:nonzero;fill:rgb(0%,0%,0%);fill-opacity:1;" d="M 11.976562 7.316406 L 10.964844 7.316406 C 11.414062 7.316406 11.863281 7.425781 12.3125 7.539062 C 12.3125 7.425781 12.203125 7.316406 11.976562 7.316406 Z M 11.976562 7.316406 "/>
    <path style=" stroke:none;fill-rule:nonzero;fill:rgb(0%,0%,0%);fill-opacity:1;" d="M 3.886719 6.191406 L 7.933594 6.191406 C 8.042969 6.191406 8.15625 5.964844 8.15625 5.628906 C 8.15625 5.292969 8.046875 5.066406 7.820312 5.066406 L 3.886719 5.066406 C 3.664062 5.066406 3.550781 5.292969 3.550781 5.628906 C 3.550781 5.96875 3.664062 6.191406 3.886719 6.191406 Z M 3.886719 6.191406 "/>
    <path style=" stroke:none;fill-rule:nonzero;fill:rgb(0%,0%,0%);fill-opacity:1;" d="M 3.886719 3.945312 L 7.933594 3.945312 C 8.042969 3.945312 8.15625 3.605469 8.15625 3.382812 C 8.15625 3.046875 8.046875 2.820312 7.820312 2.820312 L 3.886719 2.820312 C 3.664062 2.820312 3.550781 3.046875 3.550781 3.382812 C 3.550781 3.605469 3.664062 3.945312 3.886719 3.945312 Z M 3.886719 3.945312 "/>
  </g>
</svg>